<?xml version="1.0" encoding="utf-8"?>
<!-- Generator: Adobe Illustrator 19.0.0, SVG Export Plug-In . SVG Version: 6.00 Build 0)  -->
<svg version="1.1" id="Layer_1" xmlns="http://www.w3.org/2000/svg" xmlns:xlink="http://www.w3.org/1999/xlink" x="0px" y="0px"
	 viewBox="0 0 1900 1200" style="enable-background:new 0 0 1900 1200;" xml:space="preserve">
<style type="text/css">
	.st0{fill:#F6F6F6;}
	.st1{fill:#DFE1E5;}
	.st2{fill:#3FB54C;}
	.st3{fill:#AAD9B9;}
	.st4{opacity:0.3;fill:#27803F;}
	.st5{fill:#FFD833;}
	.st6{opacity:0.5;}
	.st7{fill:#FFFFFF;}
	.st8{opacity:0.3;fill:#C0822B;}
	.st9{fill:#4B61AB;}
	.st10{fill:#7690C9;}
</style>
<g id="XMLID_18_">
	<path id="XMLID_2_" class="st0" d="M1229,1112H671c-128.7,0-233-104.3-233-233V321c0-128.7,104.3-233,233-233h558
		c128.7,0,233,104.3,233,233v558C1462,1007.7,1357.7,1112,1229,1112z"/>
</g>
<g id="XMLID_3_">
	<polygon id="XMLID_15_" class="st1" points="1332,842.8 1006.7,1030.6 568,777.3 893.3,589.5 	"/>
	<polygon id="XMLID_17_" class="st2" points="1332,722.8 1006.7,910.6 568,657.3 893.3,469.5 	"/>
	<g id="XMLID_75_">
		<polygon id="XMLID_78_" class="st2" points="1331.8,722.9 1006.6,910.7 568,657.5 893.2,469.7 		"/>
		<g id="XMLID_44_">
			<polygon id="XMLID_77_" class="st3" points="939.2,544 828.3,608.1 800.9,592.2 911.8,528.2 			"/>
			<polygon id="XMLID_76_" class="st3" points="987.2,571.7 876.3,635.8 848.9,619.9 959.8,555.9 			"/>
			<polygon id="XMLID_73_" class="st3" points="1059.1,613.3 948.2,677.3 920.8,661.5 1031.7,597.5 			"/>
			<polygon id="XMLID_72_" class="st3" points="1107.1,641 996.2,705 968.8,689.2 1079.7,625.2 			"/>
			<polygon id="XMLID_69_" class="st3" points="1179.1,682.5 1068.2,746.5 1040.8,730.7 1151.6,666.7 			"/>
			<polygon id="XMLID_68_" class="st3" points="1227,710.2 1116.2,774.2 1088.7,758.4 1199.6,694.4 			"/>
			<polygon id="XMLID_74_" class="st3" points="807.6,620 696.7,684 669.3,668.2 780.2,604.2 			"/>
			<polygon id="XMLID_71_" class="st3" points="855.6,647.7 744.7,711.7 717.3,695.9 828.2,631.9 			"/>
			<polygon id="XMLID_70_" class="st3" points="927.6,689.2 816.7,753.3 789.3,737.4 900.1,673.4 			"/>
			<polygon id="XMLID_67_" class="st3" points="975.5,716.9 864.6,781 837.2,765.1 948.1,701.1 			"/>
			<polygon id="XMLID_66_" class="st3" points="1047.5,758.5 936.6,822.5 909.2,806.7 1020.1,742.7 			"/>
			<polygon id="XMLID_65_" class="st3" points="1095.5,786.2 984.6,850.2 957.2,834.4 1068,770.4 			"/>
		</g>
	</g>
	<polygon id="XMLID_14_" class="st4" points="645.9,611.3 1006.7,819.6 1254.1,676.8 893.3,468.5 	"/>
	<g id="XMLID_48_">
		<polygon id="XMLID_13_" class="st5" points="1332,571.8 1006.7,759.6 568,506.3 893.3,318.5 		"/>
		<g id="XMLID_12_">
			<polygon id="XMLID_63_" class="st5" points="1331.4,571.9 1006.4,759.6 568,506.5 893,318.8 			"/>
			<g id="XMLID_50_" class="st6">
				<g id="XMLID_47_">
					<polygon id="XMLID_53_" class="st7" points="939,393.1 797.8,474.7 770.4,458.8 911.6,377.3 					"/>
					<polygon id="XMLID_54_" class="st7" points="986.9,420.8 845.7,502.3 818.3,486.5 959.5,405 					"/>
					<path id="XMLID_49_" class="st7" d="M786.2,497.2c20.8,12,20.7,31.5-0.2,43.6c-20.9,12.1-54.8,12.1-75.6,0.1
						c-20.8-12-20.7-31.5,0.2-43.6C731.5,485.2,765.4,485.2,786.2,497.2z"/>
				</g>
				<g id="XMLID_55_">
					<polygon id="XMLID_58_" class="st7" points="1058.9,462.3 917.7,543.9 890.3,528.1 1031.5,446.5 					"/>
					<polygon id="XMLID_57_" class="st7" points="1106.8,490 965.6,571.6 938.2,555.7 1079.4,474.2 					"/>
					<path id="XMLID_56_" class="st7" d="M906.1,566.4c20.8,12,20.7,31.5-0.2,43.6c-20.9,12.1-54.8,12.1-75.6,0.1
						c-20.8-12-20.7-31.5,0.2-43.6C851.4,554.4,885.2,554.4,906.1,566.4z"/>
				</g>
				<g id="XMLID_59_">
					<polygon id="XMLID_62_" class="st7" points="1178.7,531.5 1037.5,613.1 1010.1,597.3 1151.3,515.7 					"/>
					<polygon id="XMLID_61_" class="st7" points="1226.7,559.2 1085.5,640.8 1058.1,624.9 1199.3,543.4 					"/>
					<path id="XMLID_60_" class="st7" d="M1025.9,635.6c20.8,12,20.7,31.5-0.2,43.6c-20.9,12.1-54.8,12.1-75.6,0.1
						c-20.8-12-20.7-31.5,0.2-43.6C971.3,623.6,1005.1,623.6,1025.9,635.6z"/>
				</g>
			</g>
		</g>
		<polygon id="XMLID_16_" class="st8" points="645.9,461.3 1006.7,669.6 1254.1,526.8 893.3,318.5 		"/>
		<polygon id="XMLID_4_" class="st9" points="1331.4,422.2 1006.6,609.7 568.6,356.9 893.4,169.4 		"/>
		<g id="XMLID_37_">
			<polygon id="XMLID_21_" class="st10" points="927,236.5 684.9,376.3 657.5,360.5 899.6,220.7 			"/>
			<polygon id="XMLID_24_" class="st10" points="941.5,283.5 766.3,384.6 738.9,368.8 914.1,267.7 			"/>
			<polygon id="XMLID_33_" class="st10" points="1043.3,303.7 897.6,387.8 870.3,372 1016,287.9 			"/>
			<polygon id="XMLID_34_" class="st10" points="1091.2,331.3 945.5,415.4 918.2,399.6 1063.9,315.5 			"/>
			<polygon id="XMLID_36_" class="st10" points="1015.3,439.2 904.6,503.1 877.2,487.3 987.9,423.4 			"/>
			<polygon id="XMLID_23_" class="st10" points="924.9,427.4 849.1,471.1 773.9,427.6 849.6,383.9 			"/>
			<polygon id="XMLID_30_" class="st10" points="1146.7,363.3 1035.9,427.2 1008.6,411.4 1119.3,347.5 			"/>
			<polygon id="XMLID_40_" class="st10" points="1063.2,466.8 952.5,530.7 925.1,514.9 1035.8,451 			"/>
			<polygon id="XMLID_39_" class="st10" points="1194.6,391 1083.8,454.9 1056.5,439.1 1167.2,375.2 			"/>
			<polygon id="XMLID_43_" class="st10" points="1111.1,494.5 1000.4,558.4 973,542.6 1083.7,478.7 			"/>
			<polygon id="XMLID_41_" class="st10" points="1242.5,418.6 1131.8,482.6 1104.4,466.7 1215.1,402.8 			"/>
		</g>
	</g>
</g>
</svg>
