<?xml version="1.0" encoding="utf-8"?>
<!-- Generator: Adobe Illustrator 19.0.0, SVG Export Plug-In . SVG Version: 6.00 Build 0)  -->
<svg version="1.1" id="Layer_1" xmlns="http://www.w3.org/2000/svg" xmlns:xlink="http://www.w3.org/1999/xlink" x="0px" y="0px"
	 viewBox="0 0 1900 1200" style="enable-background:new 0 0 1900 1200;" xml:space="preserve">
<style type="text/css">
	.st0{fill:#3F64AF;}
	.st1{opacity:0.35;}
	.st2{fill:#2F5592;}
	.st3{fill:#FFFFFF;}
</style>
<g id="XMLID_3_">
	<path id="XMLID_2_" class="st0" d="M1229,1110.5H671c-128.7,0-233-104.3-233-233v-558c0-128.7,104.3-233,233-233h558
		c128.7,0,233,104.3,233,233v558C1462,1006.1,1357.7,1110.5,1229,1110.5z"/>
</g>
<g id="XMLID_20_" class="st1">
	<path id="XMLID_28_" class="st2" d="M819.4,409.4c18.3,0,34.8,1.6,49.9,4.9c15,3.2,27.8,8.5,38.6,15.8c10.7,7.3,19,17,25,29.2
		c5.8,12,8.8,27.1,8.8,44.9c0,19.3-4.4,35.3-13.1,48.2c-8.8,12.8-21.7,23.4-39,31.6c23.6,6.8,41,18.7,52.6,35.6
		c11.6,17.1,17.3,37.5,17.3,61.4c0,19.4-3.7,36.1-11.1,50.2c-7.5,14.2-17.7,25.8-30.3,34.6c-12.7,9-27.2,15.6-43.5,19.8
		c-16.1,4.3-32.9,6.4-50,6.4H639V409.4H819.4z M808.5,563.9c14.9,0,27.3-3.5,37.1-10.7c9.7-7.1,14.4-18.8,14.4-34.8
		c0-8.9-1.6-16.3-4.7-22c-3.2-5.7-7.5-10.2-13-13.3c-5.4-3.3-11.5-5.5-18.5-6.7c-6.9-1.4-14.2-1.9-21.7-1.9h-78.8v89.4H808.5z
		 M813.1,726.8c8.3,0,16.2-0.7,23.6-2.4c7.5-1.6,14.2-4.3,19.8-8.1c5.6-3.7,10.3-8.8,13.7-15.3c3.4-6.4,5-14.7,5-24.8
		c0-19.7-5.5-33.7-16.6-42.2c-11.1-8.4-25.8-12.6-43.9-12.6h-91.6v105.4H813.1z"/>
	<path id="XMLID_23_" class="st2" d="M1079.5,725.5c11.4,11.1,27.9,16.7,49.2,16.7c15.4,0,28.6-3.9,39.7-11.6
		c11-7.7,17.7-16,20.3-24.6h67c-10.8,33.3-27.1,57.2-49.4,71.5c-22,14.4-48.9,21.6-80.2,21.6c-21.8,0-41.5-3.5-59.1-10.5
		c-17.6-7-32.3-16.9-44.7-29.8c-12.1-12.9-21.5-28.2-28.1-46.2c-6.6-17.9-9.9-37.6-9.9-59c0-20.7,3.5-40.1,10.2-58
		c6.9-17.9,16.5-33.4,29-46.4c12.6-13.1,27.5-23.4,44.9-30.9c17.4-7.5,36.5-11.3,57.8-11.3c23.4,0,44,4.5,61.6,13.7
		c17.5,9.1,31.9,21.3,43.2,36.7c11.3,15.3,19.3,32.9,24.3,52.6c5,19.7,6.7,40.2,5.3,61.7h-199.9
		C1060.6,693.7,1068,714.4,1079.5,725.5z M1166.9,580c-9-10-24.4-15.4-43-15.4c-12.2,0-22.2,2-30.3,6.2c-7.9,4.1-14.3,9.2-19.3,15.3
		c-4.9,6.1-8.3,12.6-10.2,19.5c-2,6.7-3.1,12.9-3.5,18.3h123.8C1182.6,604.4,1176,590.1,1166.9,580z"/>
	<rect id="XMLID_21_" x="1045" y="435" class="st2" width="155.1" height="37.8"/>
</g>
<g id="XMLID_5_">
	<path id="XMLID_11_" class="st3" d="M819.4,399.8c18.3,0,34.8,1.6,49.9,4.9c15,3.2,27.8,8.5,38.6,15.8c10.7,7.3,19,17,25,29.2
		c5.8,12,8.8,27.1,8.8,44.9c0,19.3-4.4,35.3-13.1,48.2c-8.8,12.8-21.7,23.4-39,31.6c23.6,6.8,41,18.7,52.6,35.6
		c11.6,17.1,17.3,37.5,17.3,61.4c0,19.4-3.7,36.1-11.1,50.2c-7.5,14.2-17.7,25.8-30.3,34.6c-12.7,9-27.2,15.6-43.5,19.8
		c-16.1,4.3-32.9,6.4-50,6.4H639V399.8H819.4z M808.5,554.4c14.9,0,27.3-3.5,37.1-10.7c9.7-7.1,14.4-18.8,14.4-34.8
		c0-8.9-1.6-16.3-4.7-22c-3.2-5.7-7.5-10.2-13-13.3c-5.4-3.3-11.5-5.5-18.5-6.7c-6.9-1.4-14.2-1.9-21.7-1.9h-78.8v89.4H808.5z
		 M813.1,717.2c8.3,0,16.2-0.7,23.6-2.4c7.5-1.6,14.2-4.3,19.8-8.1c5.6-3.7,10.3-8.8,13.7-15.3c3.4-6.4,5-14.7,5-24.8
		c0-19.7-5.5-33.7-16.6-42.2c-11.1-8.4-25.8-12.6-43.9-12.6h-91.6v105.4H813.1z"/>
	<path id="XMLID_8_" class="st3" d="M1079.5,716c11.4,11.1,27.9,16.7,49.2,16.7c15.4,0,28.6-3.9,39.7-11.6c11-7.7,17.7-16,20.3-24.6
		h67c-10.8,33.3-27.1,57.2-49.4,71.5c-22,14.4-48.9,21.6-80.2,21.6c-21.8,0-41.5-3.5-59.1-10.5c-17.6-7-32.3-16.9-44.7-29.8
		c-12.1-12.9-21.5-28.2-28.1-46.2c-6.6-17.9-9.9-37.6-9.9-59c0-20.7,3.5-40.1,10.2-58c6.9-17.9,16.5-33.4,29-46.4
		c12.6-13.1,27.5-23.4,44.9-30.9c17.4-7.5,36.5-11.3,57.8-11.3c23.4,0,44,4.5,61.6,13.7c17.5,9.1,31.9,21.3,43.2,36.7
		c11.3,15.3,19.3,32.9,24.3,52.6c5,19.7,6.7,40.2,5.3,61.7h-199.9C1060.6,684.1,1068,704.8,1079.5,716z M1166.9,570.4
		c-9-10-24.4-15.4-43-15.4c-12.2,0-22.2,2-30.3,6.2c-7.9,4.1-14.3,9.2-19.3,15.3c-4.9,6.1-8.3,12.6-10.2,19.5
		c-2,6.7-3.1,12.9-3.5,18.3h123.8C1182.6,594.8,1176,580.5,1166.9,570.4z"/>
	<rect id="XMLID_7_" x="1045" y="425.5" class="st3" width="155.1" height="37.8"/>
</g>
</svg>
