<?xml version="1.0" encoding="utf-8"?>
<!-- Generator: Adobe Illustrator 19.0.0, SVG Export Plug-In . SVG Version: 6.00 Build 0)  -->
<svg version="1.1" id="Layer_1" xmlns="http://www.w3.org/2000/svg" xmlns:xlink="http://www.w3.org/1999/xlink" x="0px" y="0px"
	 viewBox="0 0 1900 1200" style="enable-background:new 0 0 1900 1200;" xml:space="preserve">
<style type="text/css">
	.st0{fill:#EDEAD9;}
	.st1{fill:#3AAA7F;}
	.st2{fill:#4ED192;}
	.st3{opacity:0.5;}
	.st4{fill:#FFFFFF;}
	.st5{clip-path:url(#XMLID_111_);}
	.st6{fill:#B2AA9D;}
	.st7{clip-path:url(#XMLID_112_);}
</style>
<path id="XMLID_29_" class="st0" d="M1219,1103.5H661c-128.7,0-233-104.3-233-233v-558c0-128.7,104.3-233,233-233h558
	c128.7,0,233,104.3,233,233v558C1452,999.2,1347.7,1103.5,1219,1103.5z"/>
<g id="XMLID_1_">
	<g id="XMLID_2_">
		<path id="XMLID_105_" class="st1" d="M1318.3,901.8H561.8c-15.8,0-28.7-12.8-28.7-28.7v-53.4H1347v53.4
			C1347,888.9,1334.2,901.8,1318.3,901.8z"/>
	</g>
	<g id="XMLID_3_">
		<path id="XMLID_103_" class="st2" d="M561.8,281.8h756.5c15.8,0,28.7,12.8,28.7,28.7v533.3c0,15.8-12.8,28.7-28.7,28.7H561.8
			c-15.8,0-28.7-12.8-28.7-28.7V310.5C533.1,294.6,545.9,281.8,561.8,281.8z"/>
	</g>
</g>
<g id="XMLID_15_">
	<g id="XMLID_21_">
		<path id="XMLID_102_" class="st1" d="M971.8,970.4h-63.5c-10.8,0-19.6-8.8-19.6-19.6v-49.2h102.8v49.2
			C991.4,961.6,982.7,970.4,971.8,970.4z"/>
	</g>
	<g id="XMLID_10_">
		<path class="st2" d="M971.8,955.9h-63.5c-10.8,0-19.6-8.8-19.6-19.6v-49.2h102.8v49.2C991.4,947.1,982.7,955.9,971.8,955.9z"/>
	</g>
</g>
<g id="XMLID_56_" class="st3">
	<g id="XMLID_5_">
		<path id="XMLID_100_" class="st1" d="M1280.4,792c-45.5,13.7-92.9,20.8-139.8,21.3c-50.5,0.6-116.9,2.3-140.8,7.4
			c0,0-43.8,6.6-57.8,22.9c-14-16.3-57.8-22.9-57.8-22.9c-23.8-5.1-90.3-6.8-140.8-7.4c-46.9-0.5-94.3-7.6-139.8-21.3
			c-16.3-4.9-26.5-7.6-26.5-7.6v51.4c0,0,5.8,1.8,22.2,6.6c45.7,13.4,93.5,17.9,140.9,13.9c51-4.3,118.2-8.7,142.2-4.4
			c0,0,45.7,4.3,59.5,24.2v0l0,0c13.8-19.9,59.5-24.2,59.5-24.2c24-4.3,91.2,0.1,142.2,4.4c47.4,4,95.2-0.6,140.9-13.9
			c16.4-4.8,22.2-6.6,22.2-6.6v-51.4C1306.8,784.4,1296.7,787.1,1280.4,792z"/>
	</g>
</g>
<g id="XMLID_7_">
	<g id="XMLID_8_">
		<path id="XMLID_99_" class="st0" d="M577.2,770.1c0,0,10.2,2.7,26.5,7.6c45.5,13.7,92.9,20.8,139.8,21.3
			c50.5,0.6,116.9,2.3,140.8,7.4c0,0,43.8,6.6,57.8,22.9v32.6c-13.8-19.9-59.5-24.2-59.5-24.2c-24-4.3-91.2,0.1-142.2,4.4
			c-47.4,4-95.2-0.6-140.9-13.9c-16.4-4.8-22.2-6.6-22.2-6.6V770.1z"/>
	</g>
</g>
<g id="XMLID_11_">
	<g id="XMLID_13_">
		<path id="XMLID_97_" class="st0" d="M1306.8,770.1c0,0-10.2,2.7-26.5,7.6c-45.5,13.7-92.9,20.8-139.8,21.3
			c-50.5,0.6-116.9,2.3-140.8,7.4c0,0-43.8,6.6-57.8,22.9v32.6c13.8-19.9,59.5-24.2,59.5-24.2c24-4.3,91.2,0.1,142.2,4.4
			c47.4,4,95.2-0.6,140.9-13.9c16.4-4.8,22.2-6.6,22.2-6.6V770.1z"/>
	</g>
</g>
<g id="XMLID_30_">
	<g id="XMLID_12_">
		<path id="XMLID_14_" class="st4" d="M942,271.2c-14-16.3-57.8-22.9-57.8-22.9c-23.8-5.1-90.3-6.8-140.8-7.4
			c-46.9-0.5-94.3-7.6-139.8-21.3c-16.3-4.9-26.5-7.6-26.5-7.6v558.1c0,0,10.2,2.7,26.5,7.6c45.5,13.7,92.9,20.8,139.8,21.3
			c50.5,0.6,116.9,2.3,140.8,7.4c0,0,43.8,6.6,57.8,22.9V271.2z"/>
	</g>
	<g id="XMLID_6_">
		<path id="XMLID_9_" class="st4" d="M942,271.2c14-16.3,57.8-22.9,57.8-22.9c23.8-5.1,90.3-6.8,140.8-7.4
			c46.9-0.5,94.3-7.6,139.8-21.3c16.3-4.9,26.5-7.6,26.5-7.6v558.1c0,0-10.2,2.7-26.5,7.6c-45.5,13.7-92.9,20.8-139.8,21.3
			c-50.5,0.6-116.9,2.3-140.8,7.4c0,0-43.8,6.6-57.8,22.9V271.2z"/>
	</g>
</g>
<g id="XMLID_124_">
	<defs>
		<path id="XMLID_18_" d="M608.8,254c43.6,11.8,88.7,18.1,134.3,18.6c98.6,1.1,126.9,5,134.5,6.7l0.9,0.2l1,0.1
			c0.1,0,8.7,1.4,18.7,4.2v491.6c-8.7-1.8-42.7-6.6-154.3-7.9c-44.6-0.5-88.7-7.2-131-20c-1.4-0.4-2.7-0.8-4-1.2V254"/>
	</defs>
	<clipPath id="XMLID_111_">
		<use xlink:href="#XMLID_18_"  style="overflow:visible;"/>
	</clipPath>
	<g id="XMLID_122_" class="st5">
		<g id="XMLID_17_">
			<path id="XMLID_96_" class="st6" d="M937.5,812.2c-10.3-12-42.6-19.1-54.2-20.9l-0.4-0.1c-18.2-3.9-66.5-6.4-139.6-7.2
				c-48.1-0.5-95.7-7.8-141.4-21.6c-16-4.8-26.2-7.5-26.3-7.6l3.1-11.6c0.1,0,10.4,2.8,26.6,7.7c44.6,13.4,91.1,20.5,138.1,21
				c74.7,0.8,122.4,3.4,141.8,7.5c5.5,0.8,46.4,7.6,61.3,24.9L937.5,812.2z"/>
		</g>
		<g id="XMLID_49_">
			<path id="XMLID_94_" class="st6" d="M937.5,780.6c-10.3-12-42.6-19.1-54.2-20.9l-0.4-0.1c-18.2-3.9-66.4-6.4-139.6-7.2
				c-48.1-0.5-95.7-7.8-141.4-21.6c-16-4.8-26.2-7.5-26.3-7.6l3.1-11.6c0.1,0,10.4,2.8,26.6,7.7c44.6,13.4,91.1,20.5,138.1,21
				c74.7,0.9,122.4,3.4,141.8,7.5c5.5,0.8,46.4,7.6,61.3,24.9L937.5,780.6z"/>
		</g>
		<g id="XMLID_32_">
			<path id="XMLID_93_" class="st6" d="M937.5,749c-10.3-12-42.6-19.1-54.2-20.9l-0.4-0.1c-18.2-3.9-66.5-6.4-139.6-7.2
				c-48.1-0.5-95.7-7.8-141.4-21.6c-16-4.8-26.2-7.5-26.3-7.6l3.1-11.6c0.1,0,10.4,2.8,26.6,7.7c44.6,13.4,91.1,20.5,138.1,21
				c74.7,0.8,122.4,3.4,141.8,7.5c5.5,0.8,46.4,7.6,61.3,24.9L937.5,749z"/>
		</g>
		<g id="XMLID_58_">
			<path id="XMLID_91_" class="st6" d="M937.5,717.4c-10.3-11.9-42.6-19.1-54.2-20.9l-0.4-0.1c-18.2-3.9-66.5-6.4-139.6-7.2
				c-48.1-0.5-95.7-7.8-141.4-21.6c-16-4.8-26.2-7.5-26.3-7.6l3.1-11.6c0.1,0,10.4,2.8,26.6,7.7c44.6,13.4,91.1,20.5,138.1,21
				c74.7,0.8,122.4,3.4,141.8,7.5c5.5,0.8,46.4,7.6,61.3,24.9L937.5,717.4z"/>
		</g>
		<g id="XMLID_82_">
			<path id="XMLID_90_" class="st6" d="M937.5,685.8c-10.3-12-42.6-19.1-54.2-20.9l-0.4-0.1c-18.2-3.9-66.4-6.4-139.6-7.2
				c-48.1-0.5-95.7-7.8-141.4-21.6c-16-4.8-26.2-7.5-26.3-7.6l3.1-11.6c0.1,0,10.4,2.8,26.6,7.7c44.6,13.4,91.1,20.5,138.1,21
				c74.7,0.8,122.4,3.4,141.8,7.5c5.5,0.8,46.4,7.6,61.3,24.9L937.5,685.8z"/>
		</g>
		<g id="XMLID_89_">
			<path id="XMLID_88_" class="st6" d="M937.5,654.2c-10.3-12-42.6-19.1-54.2-20.9l-0.4-0.1c-18.2-3.9-66.5-6.4-139.6-7.2
				c-48.1-0.5-95.7-7.8-141.4-21.6c-16-4.8-26.2-7.5-26.3-7.6l3.1-11.6c0.1,0,10.4,2.8,26.6,7.7c44.6,13.4,91.1,20.5,138.1,21
				c74.7,0.8,122.4,3.4,141.8,7.5c5.5,0.8,46.4,7.6,61.3,24.9L937.5,654.2z"/>
		</g>
		<g id="XMLID_92_">
			<path id="XMLID_87_" class="st6" d="M937.5,622.7c-10.3-12-42.6-19.1-54.2-20.9l-0.4-0.1c-18.2-3.9-66.5-6.4-139.6-7.2
				c-48.1-0.5-95.7-7.8-141.4-21.6c-16-4.8-26.2-7.5-26.3-7.6l3.1-11.6c0.1,0,10.4,2.8,26.6,7.7c44.6,13.4,91.1,20.5,138.1,21
				c74.7,0.8,122.4,3.4,141.8,7.5c5.5,0.8,46.4,7.6,61.3,24.9L937.5,622.7z"/>
		</g>
		<g id="XMLID_95_">
			<path id="XMLID_86_" class="st6" d="M937.5,591.1c-10.3-12-42.6-19.1-54.2-20.9l-0.4-0.1c-18.2-3.9-66.5-6.4-139.6-7.2
				c-48.1-0.5-95.7-7.8-141.4-21.6c-16-4.8-26.2-7.5-26.3-7.6l3.1-11.6c0.1,0,10.4,2.8,26.6,7.7c44.6,13.4,91.1,20.5,138.1,21
				c74.7,0.8,122.4,3.4,141.8,7.5c5.5,0.8,46.4,7.6,61.3,24.9L937.5,591.1z"/>
		</g>
		<g id="XMLID_98_">
			<path id="XMLID_85_" class="st6" d="M937.5,559.5c-10.3-12-42.6-19.1-54.2-20.9l-0.4-0.1c-18.2-3.9-66.5-6.4-139.6-7.2
				c-48.1-0.5-95.7-7.8-141.4-21.6c-16-4.8-26.2-7.5-26.3-7.6l3.1-11.6c0.1,0,10.4,2.8,26.6,7.7c44.6,13.4,91.1,20.5,138.1,21
				c74.7,0.8,122.4,3.4,141.8,7.5c5.5,0.8,46.4,7.6,61.3,24.9L937.5,559.5z"/>
		</g>
		<g id="XMLID_101_">
			<path id="XMLID_84_" class="st6" d="M937.5,527.9c-10.3-12-42.6-19.1-54.2-20.9l-0.4-0.1c-18.2-3.9-66.4-6.4-139.6-7.2
				c-48.1-0.5-95.7-7.8-141.4-21.6c-16-4.8-26.2-7.5-26.3-7.6l3.1-11.6c0.1,0,10.4,2.8,26.6,7.7c44.6,13.4,91.1,20.5,138.1,21
				c74.7,0.8,122.4,3.4,141.8,7.5c5.5,0.8,46.4,7.6,61.3,24.9L937.5,527.9z"/>
		</g>
		<g id="XMLID_104_">
			<path id="XMLID_83_" class="st6" d="M937.5,496.3c-10.3-12-42.6-19.1-54.2-20.9l-0.4-0.1c-18.2-3.9-66.4-6.4-139.6-7.2
				c-48.1-0.5-95.7-7.8-141.4-21.6c-16-4.8-26.2-7.5-26.3-7.6l3.1-11.6c0.1,0,10.4,2.8,26.6,7.7c44.6,13.4,91.1,20.5,138.1,21
				c74.7,0.8,122.4,3.4,141.8,7.5c5.5,0.8,46.4,7.6,61.3,24.9L937.5,496.3z"/>
		</g>
		<g id="XMLID_107_">
			<path id="XMLID_81_" class="st6" d="M937.5,464.7c-10.3-12-42.6-19.1-54.2-20.9l-0.4-0.1c-18.2-3.9-66.5-6.4-139.6-7.2
				c-48.1-0.5-95.7-7.8-141.4-21.6c-16-4.8-26.2-7.5-26.3-7.6l3.1-11.6c0.1,0,10.4,2.8,26.6,7.7c44.6,13.4,91.1,20.5,138.1,21
				c74.7,0.8,122.4,3.4,141.8,7.5c5.5,0.8,46.4,7.6,61.3,24.9L937.5,464.7z"/>
		</g>
		<g id="XMLID_110_">
			<path id="XMLID_80_" class="st6" d="M937.5,433.1c-10.3-12-42.6-19.1-54.2-20.9l-0.4-0.1c-18.2-3.9-66.5-6.4-139.6-7.2
				c-48.1-0.5-95.7-7.8-141.4-21.6c-16-4.8-26.2-7.5-26.3-7.6l3.1-11.6c0.1,0,10.4,2.8,26.6,7.7c44.6,13.4,91.1,20.5,138.1,21
				c74.7,0.8,122.4,3.4,141.8,7.5c5.5,0.8,46.4,7.6,61.3,24.9L937.5,433.1z"/>
		</g>
		<g id="XMLID_113_">
			<path id="XMLID_79_" class="st6" d="M937.5,401.6c-10.3-12-42.6-19.1-54.2-20.9l-0.4-0.1c-18.2-3.9-66.5-6.4-139.6-7.2
				c-48.1-0.5-95.7-7.8-141.4-21.6c-16-4.8-26.2-7.5-26.3-7.6l3.1-11.6c0.1,0,10.4,2.8,26.6,7.7c44.6,13.4,91.1,20.5,138.1,21
				c74.7,0.8,122.4,3.4,141.8,7.5c5.5,0.8,46.4,7.6,61.3,24.9L937.5,401.6z"/>
		</g>
		<g id="XMLID_116_">
			<path id="XMLID_60_" class="st6" d="M937.5,370c-10.3-12-42.6-19.1-54.2-20.9l-0.4-0.1c-18.2-3.9-66.4-6.4-139.6-7.2
				c-48.1-0.5-95.7-7.8-141.4-21.6c-16-4.8-26.2-7.5-26.3-7.6l3.1-11.6c0.1,0,10.4,2.8,26.6,7.7c44.6,13.4,91.1,20.5,138.1,21
				c74.7,0.8,122.4,3.4,141.8,7.5c5.5,0.8,46.4,7.6,61.3,24.9L937.5,370z"/>
		</g>
		<g id="XMLID_119_">
			<path id="XMLID_59_" class="st6" d="M937.5,338.4c-10.3-11.9-42.6-19.1-54.2-20.9l-0.4-0.1c-18.2-3.9-66.4-6.4-139.6-7.2
				c-48.1-0.5-95.7-7.8-141.4-21.6c-16-4.8-26.2-7.5-26.3-7.6l3.1-11.6c0.1,0,10.4,2.8,26.6,7.7c44.6,13.4,91.1,20.5,138.1,21
				c74.7,0.8,122.4,3.4,141.8,7.5c5.5,0.8,46.4,7.6,61.3,24.9L937.5,338.4z"/>
		</g>
	</g>
</g>
<g id="XMLID_125_">
	<defs>
		<path id="XMLID_19_" d="M1275.2,260v492.3c-1.3,0.4-2.6,0.8-4,1.2c-42.3,12.7-86.4,19.5-131,20c-111.6,1.3-145.6,6.1-154.3,7.9
			V289.8c10-2.8,18.6-4.2,18.7-4.2l1-0.1l0.9-0.2c7.6-1.6,35.9-5.6,134.5-6.7C1186.5,278.1,1231.6,271.8,1275.2,260"/>
	</defs>
	<clipPath id="XMLID_112_">
		<use xlink:href="#XMLID_19_"  style="overflow:visible;"/>
	</clipPath>
	<g id="XMLID_128_" class="st7">
		<g id="XMLID_174_">
			<path id="XMLID_57_" class="st6" d="M946.6,818.2l-9.1-7.8c14.9-17.2,55.8-24,61.3-24.9c19.3-4.1,67-6.6,141.8-7.5
				c47-0.5,93.5-7.6,138.1-21c16.2-4.9,26.5-7.6,26.6-7.7l3.1,11.6c-0.1,0-10.3,2.7-26.3,7.6c-45.7,13.8-93.3,21-141.4,21.6
				c-73.1,0.8-121.4,3.3-139.6,7.2l-0.4,0.1C989.2,799.1,956.9,806.2,946.6,818.2z"/>
		</g>
		<g id="XMLID_171_">
			<path id="XMLID_55_" class="st6" d="M946.6,786.6l-9.1-7.8c14.9-17.2,55.8-24,61.3-24.9c19.3-4.1,67-6.6,141.8-7.5
				c47-0.5,93.5-7.6,138.1-21c16.2-4.9,26.5-7.6,26.6-7.7l3.1,11.6c-0.1,0-10.3,2.7-26.3,7.6c-45.7,13.8-93.3,21-141.4,21.6
				c-73.1,0.8-121.4,3.3-139.6,7.2l-0.4,0.1C989.2,767.5,956.9,774.7,946.6,786.6z"/>
		</g>
		<g id="XMLID_168_">
			<path id="XMLID_54_" class="st6" d="M946.6,755l-9.1-7.8c14.9-17.2,55.8-24,61.3-24.9c19.3-4.1,67-6.6,141.8-7.5
				c47-0.5,93.5-7.6,138.1-21c16.2-4.9,26.5-7.6,26.6-7.7l3.1,11.6c-0.1,0-10.3,2.7-26.3,7.6c-45.7,13.8-93.3,21-141.4,21.6
				c-73.1,0.8-121.4,3.3-139.6,7.2l-0.4,0.1C989.2,735.9,956.9,743.1,946.6,755z"/>
		</g>
		<g id="XMLID_165_">
			<path id="XMLID_53_" class="st6" d="M946.6,723.4l-9.1-7.8c14.9-17.2,55.8-24,61.3-24.9c19.3-4.1,67-6.6,141.8-7.5
				c47-0.5,93.5-7.6,138.1-21c16.2-4.9,26.5-7.6,26.6-7.7l3.1,11.6c-0.1,0-10.3,2.7-26.3,7.6c-45.7,13.8-93.3,21-141.4,21.6
				c-73.1,0.8-121.4,3.3-139.6,7.2l-0.4,0.1C989.2,704.3,956.9,711.5,946.6,723.4z"/>
		</g>
		<g id="XMLID_162_">
			<path id="XMLID_52_" class="st6" d="M946.6,691.8l-9.1-7.8c14.9-17.2,55.8-24,61.3-24.9c19.3-4.1,67-6.6,141.8-7.5
				c47-0.5,93.5-7.6,138.1-21c16.2-4.9,26.5-7.6,26.6-7.7l3.1,11.6c-0.1,0-10.3,2.7-26.3,7.6c-45.7,13.8-93.3,21-141.4,21.6
				c-73.1,0.8-121.4,3.3-139.6,7.2l-0.4,0.1C989.2,672.7,956.9,679.9,946.6,691.8z"/>
		</g>
		<g id="XMLID_159_">
			<path id="XMLID_51_" class="st6" d="M946.6,660.3l-9.1-7.8c14.9-17.2,55.8-24,61.3-24.9c19.3-4.1,67-6.6,141.8-7.5
				c47-0.5,93.5-7.6,138.1-21c16.2-4.9,26.5-7.6,26.6-7.7l3.1,11.6c-0.1,0-10.3,2.7-26.3,7.6c-45.7,13.8-93.3,21-141.4,21.6
				c-73.1,0.8-121.4,3.3-139.6,7.2l-0.4,0.1C989.2,641.1,956.9,648.3,946.6,660.3z"/>
		</g>
		<g id="XMLID_156_">
			<path id="XMLID_50_" class="st6" d="M946.6,628.7l-9.1-7.8c14.9-17.2,55.8-24,61.3-24.9c19.3-4.1,67-6.6,141.8-7.5
				c47-0.5,93.5-7.6,138.1-21c16.2-4.9,26.5-7.6,26.6-7.7l3.1,11.6c-0.1,0-10.3,2.7-26.3,7.6c-45.7,13.8-93.3,21-141.4,21.6
				c-73.1,0.8-121.4,3.3-139.6,7.2l-0.4,0.1C989.2,609.5,956.9,616.7,946.6,628.7z"/>
		</g>
		<g id="XMLID_153_">
			<path id="XMLID_48_" class="st6" d="M946.6,597.1l-9.1-7.8c14.9-17.2,55.8-24,61.3-24.9c19.3-4.1,67-6.6,141.8-7.5
				c47-0.5,93.5-7.6,138.1-21c16.2-4.9,26.5-7.6,26.6-7.7l3.1,11.6c-0.1,0-10.3,2.7-26.3,7.6c-45.7,13.8-93.3,21-141.4,21.6
				c-73.1,0.8-121.4,3.3-139.6,7.2l-0.4,0.1C989.2,578,956.9,585.1,946.6,597.1z"/>
		</g>
		<g id="XMLID_150_">
			<path id="XMLID_47_" class="st6" d="M946.6,565.5l-9.1-7.8c14.9-17.2,55.8-24,61.3-24.9c19.3-4.1,67-6.6,141.8-7.5
				c47-0.5,93.5-7.6,138.1-21c16.2-4.9,26.5-7.6,26.6-7.7l3.1,11.6c-0.1,0-10.3,2.7-26.3,7.6c-45.7,13.8-93.3,21-141.4,21.6
				c-73.1,0.8-121.4,3.3-139.6,7.2l-0.4,0.1C989.2,546.4,956.9,553.6,946.6,565.5z"/>
		</g>
		<g id="XMLID_147_">
			<path id="XMLID_46_" class="st6" d="M946.6,533.9l-9.1-7.8c14.9-17.2,55.8-24,61.3-24.9c19.3-4.1,67-6.6,141.8-7.5
				c47-0.5,93.5-7.6,138.1-21c16.2-4.9,26.5-7.6,26.6-7.7l3.1,11.6c-0.1,0-10.3,2.7-26.3,7.6c-45.7,13.8-93.3,21-141.4,21.6
				c-73.1,0.8-121.4,3.3-139.6,7.2l-0.4,0.1C989.2,514.8,956.9,522,946.6,533.9z"/>
		</g>
		<g id="XMLID_144_">
			<path id="XMLID_43_" class="st6" d="M946.6,502.3l-9.1-7.8c14.9-17.2,55.8-24,61.3-24.9c19.3-4.1,67-6.6,141.8-7.5
				c47-0.5,93.5-7.6,138.1-21c16.2-4.9,26.5-7.6,26.6-7.7l3.1,11.6c-0.1,0-10.3,2.7-26.3,7.6c-45.7,13.8-93.3,21-141.4,21.6
				c-73.1,0.8-121.4,3.3-139.6,7.2l-0.4,0.1C989.2,483.2,956.9,490.4,946.6,502.3z"/>
		</g>
		<g id="XMLID_141_">
			<path id="XMLID_34_" class="st6" d="M946.6,470.7l-9.1-7.8c14.9-17.2,55.8-24,61.3-24.9c19.3-4.1,67-6.6,141.8-7.5
				c47-0.5,93.5-7.6,138.1-21c16.2-4.9,26.5-7.6,26.6-7.7l3.1,11.6c-0.1,0-10.3,2.7-26.3,7.6c-45.7,13.8-93.3,21-141.4,21.6
				c-73.1,0.8-121.4,3.3-139.6,7.2l-0.4,0.1C989.2,451.6,956.9,458.8,946.6,470.7z"/>
		</g>
		<g id="XMLID_138_">
			<path id="XMLID_20_" class="st6" d="M946.6,439.2l-9.1-7.8c14.9-17.2,55.8-24,61.3-24.9c19.3-4.1,67-6.6,141.8-7.5
				c47-0.5,93.5-7.6,138.1-21c16.2-4.9,26.5-7.6,26.6-7.7l3.1,11.6c-0.1,0-10.3,2.7-26.3,7.6c-45.7,13.8-93.3,21-141.4,21.6
				c-73.1,0.8-121.4,3.3-139.6,7.2l-0.4,0.1C989.2,420,956.9,427.2,946.6,439.2z"/>
		</g>
		<g id="XMLID_135_">
			<path id="XMLID_106_" class="st6" d="M946.6,407.6l-9.1-7.8c14.9-17.2,55.8-24,61.3-24.9c19.3-4.1,67-6.6,141.8-7.5
				c47-0.5,93.5-7.6,138.1-21c16.2-4.9,26.5-7.6,26.6-7.7l3.1,11.6c-0.1,0-10.3,2.7-26.3,7.6c-45.7,13.8-93.3,21-141.4,21.6
				c-73.1,0.8-121.4,3.3-139.6,7.2l-0.4,0.1C989.2,388.4,956.9,395.6,946.6,407.6z"/>
		</g>
		<g id="XMLID_132_">
			<path id="XMLID_108_" class="st6" d="M946.6,376l-9.1-7.8c14.9-17.2,55.8-24,61.3-24.9c19.3-4.1,67-6.6,141.8-7.5
				c47-0.5,93.5-7.6,138.1-21c16.2-4.9,26.5-7.6,26.6-7.7l3.1,11.6c-0.1,0-10.3,2.7-26.3,7.6c-45.7,13.8-93.3,21-141.4,21.6
				c-73.1,0.8-121.4,3.3-139.6,7.2l-0.4,0.1C989.2,356.9,956.9,364,946.6,376z"/>
		</g>
		<g id="XMLID_129_">
			<path id="XMLID_109_" class="st6" d="M946.6,344.4l-9.1-7.8c14.9-17.2,55.8-24,61.3-24.9c19.3-4.1,67-6.6,141.8-7.5
				c47-0.5,93.5-7.6,138.1-21c16.2-4.9,26.5-7.6,26.6-7.7l3.1,11.6c-0.1,0-10.3,2.7-26.3,7.6c-45.7,13.8-93.3,21-141.4,21.6
				c-73.1,0.8-121.4,3.3-139.6,7.2l-0.4,0.1C989.2,325.3,956.9,332.5,946.6,344.4z"/>
		</g>
	</g>
</g>
<g id="XMLID_4_">
	<rect x="934.1" y="201.7" class="st0" width="15.9" height="627.6"/>
</g>
</svg>
