<?xml version="1.0" encoding="utf-8"?>
<!-- Generator: Adobe Illustrator 19.0.0, SVG Export Plug-In . SVG Version: 6.00 Build 0)  -->
<svg version="1.1" id="Layer_1" xmlns="http://www.w3.org/2000/svg" xmlns:xlink="http://www.w3.org/1999/xlink" x="0px" y="0px"
	 viewBox="0 0 1900 1200" style="enable-background:new 0 0 1900 1200;" xml:space="preserve">
<style type="text/css">
	.st0{fill:#282827;}
	.st1{fill:#2B3B4C;}
	.st2{fill:#2E7DEF;}
	.st3{fill:#F23D3D;}
	.st4{fill:#FFF100;}
	.st5{fill:#FFE000;}
	.st6{fill:#53E82E;}
</style>
<g id="XMLID_3_">
	<path id="XMLID_22_" class="st0" d="M1229,1112H671c-128.7,0-233-104.3-233-233V321c0-128.7,104.3-233,233-233h558
		c128.7,0,233,104.3,233,233v558C1462,1007.7,1357.7,1112,1229,1112z"/>
</g>
<g id="XMLID_9_">
	<line id="XMLID_76_" class="st1" x1="647.6" y1="707.7" x2="939.5" y2="901.3"/>
	<path id="XMLID_77_" class="st2" d="M939.5,928.4c-5.1,0-10.3-1.5-14.9-4.5L632.7,730.3c-12.5-8.3-15.9-25.1-7.6-37.5
		c8.3-12.5,25.1-15.9,37.5-7.6l291.9,193.6c12.5,8.3,15.9,25.1,7.6,37.5C956.9,924.1,948.3,928.4,939.5,928.4z"/>
</g>
<g id="XMLID_8_">
	<line id="XMLID_74_" class="st1" x1="951.5" y1="505.1" x2="1243.8" y2="699.7"/>
	<path id="XMLID_75_" class="st3" d="M1243.8,726.7c-5.2,0-10.4-1.5-15-4.5L936.5,527.7c-12.4-8.3-15.8-25.1-7.5-37.5
		c8.3-12.4,25.1-15.8,37.5-7.5l292.3,194.5c12.4,8.3,15.8,25.1,7.5,37.5C1261.1,722.5,1252.5,726.7,1243.8,726.7z"/>
</g>
<g id="XMLID_7_">
	<line id="XMLID_72_" class="st1" x1="951.1" y1="506.1" x2="647.5" y2="707.7"/>
	<path id="XMLID_73_" class="st4" d="M647.6,734.8c-8.8,0-17.4-4.2-22.6-12.1c-8.3-12.4-4.9-29.2,7.6-37.5l303.6-201.7
		c12.4-8.3,29.2-4.9,37.5,7.6c8.3,12.4,4.9,29.2-7.6,37.5L662.5,730.2C657.9,733.3,652.7,734.8,647.6,734.8z"/>
</g>
<g id="XMLID_6_">
	<line id="XMLID_70_" class="st1" x1="1243.1" y1="699.7" x2="939.5" y2="901.3"/>
	<path id="XMLID_71_" class="st3" d="M939.6,928.4c-8.8,0-17.4-4.2-22.6-12.1c-8.3-12.4-4.9-29.2,7.6-37.5l303.6-201.7
		c12.4-8.3,29.2-4.9,37.5,7.6c8.3,12.4,4.9,29.2-7.6,37.5L954.5,923.9C949.9,926.9,944.7,928.4,939.6,928.4z"/>
</g>
<g id="XMLID_19_">
	<line id="XMLID_68_" class="st1" x1="939.5" y1="691.6" x2="939.5" y2="901.7"/>
	<path id="XMLID_69_" class="st5" d="M939.5,928.8c-14.9,0-27.1-12.1-27.1-27.1V691.6c0-14.9,12.1-27.1,27.1-27.1
		c14.9,0,27.1,12.1,27.1,27.1v210.1C966.6,916.6,954.5,928.8,939.5,928.8z"/>
</g>
<g id="XMLID_42_">
	<line id="XMLID_66_" class="st1" x1="951.1" y1="296.1" x2="951.1" y2="506.2"/>
	<path id="XMLID_67_" class="st2" d="M951.1,533.2c-14.9,0-27.1-12.1-27.1-27.1V296.1c0-14.9,12.1-27.1,27.1-27.1
		c14.9,0,27.1,12.1,27.1,27.1v210.1C978.2,521.1,966.1,533.2,951.1,533.2z"/>
</g>
<g id="XMLID_41_">
	<line id="XMLID_46_" class="st1" x1="1243.8" y1="490" x2="1243.8" y2="698.7"/>
	<path id="XMLID_47_" class="st6" d="M1243.8,725.8c-14.9,0-27.1-12.1-27.1-27.1V490c0-14.9,12.1-27.1,27.1-27.1
		s27.1,12.1,27.1,27.1v208.8C1270.8,713.6,1258.7,725.8,1243.8,725.8z"/>
</g>
<g id="XMLID_1_">
	<line id="XMLID_44_" class="st1" x1="951.1" y1="296.3" x2="647.5" y2="498"/>
	<path id="XMLID_45_" class="st6" d="M647.6,525c-8.8,0-17.4-4.2-22.6-12.1c-8.3-12.4-4.9-29.2,7.6-37.5l303.6-201.7
		c12.4-8.3,29.2-4.9,37.5,7.6c8.3,12.4,4.9,29.2-7.6,37.5L662.5,520.5C657.9,523.6,652.7,525,647.6,525z"/>
</g>
<g id="XMLID_5_">
	<line id="XMLID_40_" class="st1" x1="951.5" y1="295.4" x2="1243.8" y2="490"/>
	<path id="XMLID_43_" class="st5" d="M1243.8,517c-5.2,0-10.4-1.5-15-4.5L936.5,317.9c-12.4-8.3-15.8-25.1-7.5-37.5
		c8.3-12.4,25.1-15.8,37.5-7.5l292.3,194.5c12.4,8.3,15.8,25.1,7.5,37.5C1261.1,512.8,1252.5,517,1243.8,517z"/>
</g>
<g id="XMLID_17_">
	<line id="XMLID_38_" class="st1" x1="1243.1" y1="490" x2="939.5" y2="691.6"/>
	<path id="XMLID_39_" class="st2" d="M939.6,718.7c-8.8,0-17.4-4.2-22.6-12.1c-8.3-12.4-4.9-29.2,7.6-37.5l303.6-201.7
		c12.4-8.3,29.2-4.9,37.5,7.6c8.3,12.4,4.9,29.2-7.6,37.5L954.5,714.1C949.9,717.2,944.7,718.7,939.6,718.7z"/>
</g>
<g id="XMLID_2_">
	<line id="XMLID_36_" class="st1" x1="647.6" y1="498" x2="939.5" y2="691.6"/>
	<path id="XMLID_37_" class="st3" d="M939.5,718.7c-5.1,0-10.3-1.5-14.9-4.5L632.7,520.5c-12.5-8.3-15.9-25.1-7.6-37.5
		c8.3-12.5,25.1-15.9,37.5-7.6l291.9,193.6c12.5,8.3,15.9,25.1,7.6,37.5C956.9,714.4,948.3,718.7,939.5,718.7z"/>
</g>
<g id="XMLID_33_">
	<line id="XMLID_34_" class="st1" x1="647.5" y1="498.1" x2="647.5" y2="706.8"/>
	<path id="XMLID_35_" class="st5" d="M647.5,733.9c-14.9,0-27.1-12.1-27.1-27.1V498.1c0-14.9,12.1-27.1,27.1-27.1
		s27.1,12.1,27.1,27.1v208.8C674.6,721.8,662.5,733.9,647.5,733.9z"/>
</g>
</svg>
