<?xml version="1.0" encoding="utf-8"?>
<!-- Generator: Adobe Illustrator 19.0.0, SVG Export Plug-In . SVG Version: 6.00 Build 0)  -->
<svg version="1.1" id="Layer_1" xmlns="http://www.w3.org/2000/svg" xmlns:xlink="http://www.w3.org/1999/xlink" x="0px" y="0px"
	 viewBox="0 0 1900 1200" style="enable-background:new 0 0 1900 1200;" xml:space="preserve">
<style type="text/css">
	.st0{fill:#FF743E;}
	.st1{clip-path:url(#SVGID_2_);}
	.st2{opacity:0.65;}
	.st3{fill:#F25E30;}
	.st4{display:none;fill:#21252D;}
	.st5{opacity:0.1;}
	.st6{fill:#561D1D;}
	.st7{clip-path:url(#XMLID_363_);fill:#EEF1F6;}
	.st8{clip-path:url(#XMLID_363_);fill:#EFF2F7;}
	.st9{clip-path:url(#XMLID_363_);fill:#F0F2F7;}
	.st10{clip-path:url(#XMLID_363_);fill:#F1F3F8;}
	.st11{clip-path:url(#XMLID_363_);fill:#F2F4F8;}
	.st12{clip-path:url(#XMLID_363_);fill:#F3F5F9;}
	.st13{clip-path:url(#XMLID_363_);fill:#F5F6FA;}
	.st14{clip-path:url(#XMLID_363_);fill:#F6F7FA;}
	.st15{clip-path:url(#XMLID_363_);fill:#F7F8FB;}
	.st16{clip-path:url(#XMLID_363_);fill:#F8F9FB;}
	.st17{clip-path:url(#XMLID_363_);fill:#F9FAFC;}
	.st18{clip-path:url(#XMLID_363_);fill:#FAFBFC;}
	.st19{clip-path:url(#XMLID_363_);fill:#FBFBFD;}
	.st20{clip-path:url(#XMLID_363_);fill:#FCFCFD;}
	.st21{clip-path:url(#XMLID_363_);fill:#FDFDFE;}
	.st22{clip-path:url(#XMLID_363_);fill:#FEFEFE;}
	.st23{clip-path:url(#XMLID_363_);fill:#FFFFFF;}
	.st24{clip-path:url(#XMLID_363_);fill:#EAEDF4;}
	.st25{clip-path:url(#XMLID_363_);fill:#EBEEF5;}
	.st26{clip-path:url(#XMLID_363_);fill:#ECEFF5;}
	.st27{clip-path:url(#XMLID_363_);fill:#EDF0F6;}
	.st28{clip-path:url(#XMLID_364_);fill:#FAFBFC;}
	.st29{clip-path:url(#XMLID_364_);fill:#FBFBFD;}
	.st30{clip-path:url(#XMLID_364_);fill:#FCFCFD;}
	.st31{clip-path:url(#XMLID_364_);fill:#FDFDFE;}
	.st32{clip-path:url(#XMLID_365_);fill:#F6F7FA;}
	.st33{clip-path:url(#XMLID_365_);fill:#F7F8FB;}
	.st34{clip-path:url(#XMLID_365_);fill:#F8F9FB;}
	.st35{clip-path:url(#XMLID_365_);fill:#F9FAFC;}
	.st36{clip-path:url(#XMLID_365_);fill:#FAFBFC;}
	.st37{clip-path:url(#XMLID_366_);fill:#EEF1F6;}
	.st38{clip-path:url(#XMLID_366_);fill:#EFF2F7;}
	.st39{clip-path:url(#XMLID_366_);fill:#F0F2F7;}
	.st40{clip-path:url(#XMLID_366_);fill:#F1F3F8;}
	.st41{clip-path:url(#XMLID_366_);fill:#F2F4F8;}
	.st42{clip-path:url(#XMLID_367_);fill:#EBEEF5;}
	.st43{clip-path:url(#XMLID_367_);fill:#ECEFF5;}
	.st44{clip-path:url(#XMLID_367_);fill:#EDF0F6;}
	.st45{clip-path:url(#XMLID_367_);fill:#EEF1F6;}
	.st46{clip-path:url(#XMLID_368_);fill:#F8F9FB;}
	.st47{clip-path:url(#XMLID_368_);fill:#F9FAFC;}
	.st48{clip-path:url(#XMLID_368_);fill:#FAFBFC;}
	.st49{clip-path:url(#XMLID_369_);fill:#F6F7FA;}
	.st50{clip-path:url(#XMLID_369_);fill:#F7F8FB;}
	.st51{clip-path:url(#XMLID_369_);fill:#F8F9FB;}
	.st52{clip-path:url(#XMLID_370_);fill:#F0F2F7;}
	.st53{clip-path:url(#XMLID_370_);fill:#F1F3F8;}
	.st54{clip-path:url(#XMLID_370_);fill:#F2F4F8;}
	.st55{clip-path:url(#XMLID_371_);fill:#EFF2F7;}
	.st56{clip-path:url(#XMLID_371_);fill:#F0F2F7;}
	.st57{clip-path:url(#XMLID_372_);fill:#EAEDF4;}
	.st58{clip-path:url(#XMLID_372_);fill:#EBEEF5;}
	.st59{clip-path:url(#XMLID_372_);fill:#ECEFF5;}
	.st60{clip-path:url(#XMLID_372_);fill:#EDF0F6;}
	.st61{clip-path:url(#XMLID_372_);fill:#EEF1F6;}
	.st62{clip-path:url(#XMLID_372_);fill:#EFF2F7;}
	.st63{clip-path:url(#XMLID_372_);fill:#F0F2F7;}
	.st64{clip-path:url(#XMLID_372_);fill:#F1F3F8;}
	.st65{clip-path:url(#XMLID_372_);fill:#F2F4F8;}
	.st66{clip-path:url(#XMLID_372_);fill:#F3F5F9;}
	.st67{clip-path:url(#XMLID_372_);fill:#F5F6FA;}
	.st68{clip-path:url(#XMLID_372_);fill:#F6F7FA;}
	.st69{clip-path:url(#XMLID_372_);fill:#F7F8FB;}
	.st70{clip-path:url(#XMLID_372_);fill:#F8F9FB;}
	.st71{clip-path:url(#XMLID_372_);fill:#F9FAFC;}
	.st72{clip-path:url(#XMLID_372_);fill:#FAFBFC;}
	.st73{clip-path:url(#XMLID_372_);fill:#FBFBFD;}
	.st74{clip-path:url(#XMLID_372_);fill:#FCFCFD;}
	.st75{clip-path:url(#XMLID_372_);fill:#FDFDFE;}
	.st76{clip-path:url(#XMLID_372_);fill:#FEFEFE;}
	.st77{clip-path:url(#XMLID_372_);fill:#FFFFFF;}
	.st78{clip-path:url(#XMLID_373_);fill:#EAEDF4;}
	.st79{clip-path:url(#XMLID_373_);fill:#EBEEF5;}
	.st80{clip-path:url(#XMLID_373_);fill:#ECEFF5;}
	.st81{clip-path:url(#XMLID_373_);fill:#EDF0F6;}
	.st82{clip-path:url(#XMLID_373_);fill:#EEF1F6;}
	.st83{clip-path:url(#XMLID_373_);fill:#EFF2F7;}
	.st84{clip-path:url(#XMLID_373_);fill:#F0F2F7;}
	.st85{clip-path:url(#XMLID_373_);fill:#F1F3F8;}
	.st86{clip-path:url(#XMLID_373_);fill:#F2F4F8;}
	.st87{clip-path:url(#XMLID_373_);fill:#F3F5F9;}
	.st88{clip-path:url(#XMLID_373_);fill:#F5F6FA;}
	.st89{clip-path:url(#XMLID_373_);fill:#F6F7FA;}
	.st90{clip-path:url(#XMLID_373_);fill:#F7F8FB;}
	.st91{clip-path:url(#XMLID_373_);fill:#F8F9FB;}
	.st92{clip-path:url(#XMLID_373_);fill:#F9FAFC;}
	.st93{clip-path:url(#XMLID_373_);fill:#FAFBFC;}
	.st94{clip-path:url(#XMLID_373_);fill:#FBFBFD;}
	.st95{clip-path:url(#XMLID_373_);fill:#FCFCFD;}
	.st96{clip-path:url(#XMLID_373_);fill:#FDFDFE;}
	.st97{clip-path:url(#XMLID_373_);fill:#FEFEFE;}
	.st98{clip-path:url(#XMLID_373_);fill:#FFFFFF;}
	.st99{clip-path:url(#XMLID_374_);fill:#EAEDF4;}
	.st100{clip-path:url(#XMLID_374_);fill:#EBEEF5;}
	.st101{clip-path:url(#XMLID_374_);fill:#ECEFF5;}
	.st102{clip-path:url(#XMLID_374_);fill:#EDF0F6;}
	.st103{clip-path:url(#XMLID_374_);fill:#EEF1F6;}
	.st104{clip-path:url(#XMLID_374_);fill:#EFF2F7;}
	.st105{clip-path:url(#XMLID_374_);fill:#F0F2F7;}
	.st106{clip-path:url(#XMLID_374_);fill:#F1F3F8;}
	.st107{clip-path:url(#XMLID_374_);fill:#F2F4F8;}
	.st108{clip-path:url(#XMLID_374_);fill:#F3F5F9;}
	.st109{clip-path:url(#XMLID_374_);fill:#F5F6FA;}
	.st110{clip-path:url(#XMLID_374_);fill:#F6F7FA;}
	.st111{clip-path:url(#XMLID_374_);fill:#F7F8FB;}
	.st112{clip-path:url(#XMLID_374_);fill:#F8F9FB;}
	.st113{clip-path:url(#XMLID_374_);fill:#F9FAFC;}
	.st114{clip-path:url(#XMLID_374_);fill:#FAFBFC;}
	.st115{clip-path:url(#XMLID_374_);fill:#FBFBFD;}
	.st116{clip-path:url(#XMLID_374_);fill:#FCFCFD;}
	.st117{clip-path:url(#XMLID_374_);fill:#FDFDFE;}
	.st118{clip-path:url(#XMLID_374_);fill:#FEFEFE;}
	.st119{clip-path:url(#XMLID_374_);fill:#FFFFFF;}
	.st120{clip-path:url(#XMLID_375_);fill:#EAEDF4;}
	.st121{clip-path:url(#XMLID_375_);fill:#EBEEF5;}
	.st122{clip-path:url(#XMLID_375_);fill:#ECEFF5;}
	.st123{clip-path:url(#XMLID_375_);fill:#EDF0F6;}
	.st124{clip-path:url(#XMLID_375_);fill:#EEF1F6;}
	.st125{clip-path:url(#XMLID_375_);fill:#EFF2F7;}
	.st126{clip-path:url(#XMLID_375_);fill:#F0F2F7;}
	.st127{clip-path:url(#XMLID_375_);fill:#F1F3F8;}
	.st128{clip-path:url(#XMLID_375_);fill:#F2F4F8;}
	.st129{clip-path:url(#XMLID_375_);fill:#F3F5F9;}
	.st130{clip-path:url(#XMLID_375_);fill:#F5F6FA;}
	.st131{clip-path:url(#XMLID_375_);fill:#F6F7FA;}
	.st132{clip-path:url(#XMLID_375_);fill:#F7F8FB;}
	.st133{clip-path:url(#XMLID_375_);fill:#F8F9FB;}
	.st134{clip-path:url(#XMLID_375_);fill:#F9FAFC;}
	.st135{clip-path:url(#XMLID_375_);fill:#FAFBFC;}
	.st136{clip-path:url(#XMLID_375_);fill:#FBFBFD;}
	.st137{clip-path:url(#XMLID_375_);fill:#FCFCFD;}
	.st138{clip-path:url(#XMLID_375_);fill:#FDFDFE;}
	.st139{clip-path:url(#XMLID_375_);fill:#FEFEFE;}
	.st140{clip-path:url(#XMLID_375_);fill:#FFFFFF;}
</style>
<g id="XMLID_29_">
	<path class="st0" d="M1220,1106.5H662c-128.7,0-233-104.3-233-233v-558c0-128.7,104.3-233,233-233h558c128.7,0,233,104.3,233,233
		v558C1453,1002.1,1348.7,1106.5,1220,1106.5z"/>
</g>
<g id="XMLID_95_">
	<defs>
		<path id="SVGID_1_" d="M1220,1106.5H662c-128.7,0-233-104.3-233-233v-558c0-128.7,104.3-233,233-233h558
			c128.7,0,233,104.3,233,233v558C1453,1002.1,1348.7,1106.5,1220,1106.5z"/>
	</defs>
	<clipPath id="SVGID_2_">
		<use xlink:href="#SVGID_1_"  style="overflow:visible;"/>
	</clipPath>
	<g id="XMLID_21_" class="st1">
		<g id="XMLID_101_" class="st2">
			<path id="XMLID_132_" class="st3" d="M1828.7,541.4c-10.2,0-19.7,2.8-27.9,7.8l-87.6-87.6l-2.2-2.2l-90.5-90.5
				c4.9-8.1,7.8-17.7,7.8-27.9c0-29.7-24.1-53.8-53.8-53.8c-10.2,0-19.7,2.8-27.9,7.8l-52.9-52.9c4.9-8.1,7.8-17.7,7.8-27.9
				c0-29.7-24.1-53.8-53.8-53.8c-10.2,0-19.7,2.8-27.9,7.8l-52.9-52.9c4.9-8.1,7.8-17.7,7.8-27.9c0-29.7-24.1-53.8-53.8-53.8
				c-10.2,0-19.7,2.8-27.9,7.8L1205.6-46l0,0l-92.7-92.7c4.9-8.1,7.8-17.7,7.8-27.9c0-29.7-24.1-53.8-53.8-53.8
				c-10.2,0-19.7,2.8-27.9,7.8l-52.9-52.9c4.9-8.1,7.8-17.7,7.8-27.9c0-29.7-24.1-53.8-53.8-53.8s-53.8,24.1-53.8,53.8
				c0,10.2,2.8,19.7,7.8,27.9l-52.9,52.9c-8.1-4.9-17.7-7.8-27.9-7.8c-29.7,0-53.8,24.1-53.8,53.8c0,10.2,2.8,19.7,7.8,27.9
				l-52.9,52.9c-8.1-4.9-17.7-7.8-27.9-7.8c-29.7,0-53.8,24.1-53.8,53.8c0,10.2,2.8,19.7,7.8,27.9L588,40.9
				c-8.1-4.9-17.7-7.8-27.9-7.8c-29.7,0-53.8,24.1-53.8,53.8c0,10.2,2.8,19.7,7.8,27.9l-52.9,52.9c-8.1-4.9-17.7-7.8-27.9-7.8
				c-29.7,0-53.8,24.1-53.8,53.8c0,10.2,2.8,19.7,7.8,27.9l-52.9,52.9c-8.1-4.9-17.7-7.8-27.9-7.8c-29.7,0-53.8,24.1-53.8,53.8
				c0,10.2,2.8,19.7,7.8,27.9l-52.9,52.9c-8.1-4.9-17.7-7.8-27.9-7.8c-29.7,0-53.8,24.1-53.8,53.8c0,10.2,2.8,19.7,7.8,27.9
				l-52.9,52.9c-8.1-4.9-17.7-7.8-27.9-7.8c-29.7,0-53.8,24.1-53.8,53.8c0,29.7,24.1,53.8,53.8,53.8c10.2,0,19.7-2.8,27.9-7.8
				l52.9,52.9c-4.9,8.1-7.8,17.7-7.8,27.9c0,29.7,24.1,53.8,53.8,53.8c10.2,0,19.7-2.8,27.9-7.8l53.6,53.6
				c-4.9,8.1-7.8,17.7-7.8,27.9c0,29.7,24.1,53.8,53.8,53.8c10.2,0,19.7-2.8,27.9-7.8l52.9,52.9c-4.9,8.1-7.8,17.7-7.8,27.9
				c0,29.7,24.1,53.8,53.8,53.8c10.2,0,19.7-2.8,27.9-7.8l52.9,52.9c-4.9,8.1-7.8,17.7-7.8,27.9c0,29.7,24.1,53.8,53.8,53.8
				c10.2,0,19.7-2.8,27.9-7.8l52.9,52.9c-4.9,8.1-7.8,17.7-7.8,27.9c0,29.7,24.1,53.8,53.8,53.8c10.2,0,19.7-2.8,27.9-7.8l53.6,53.6
				c-4.9,8.1-7.8,17.7-7.8,27.9c0,29.7,24.1,53.8,53.8,53.8c10.2,0,19.7-2.8,27.9-7.8l52.9,52.9c-4.9,8.1-7.8,17.7-7.8,27.9
				c0,29.7,24.1,53.8,53.8,53.8s53.8-24.1,53.8-53.8c0-10.2-2.8-19.7-7.8-27.9l52.9-52.9c8.1,4.9,17.7,7.8,27.9,7.8
				c29.7,0,53.8-24.1,53.8-53.8c0-10.2-2.8-19.7-7.8-27.9l52.9-52.9c8.1,4.9,17.7,7.8,27.9,7.8c29.7,0,53.8-24.1,53.8-53.8
				c0-10.2-2.8-19.7-7.8-27.9l52.9-52.9c8.1,4.9,17.7,7.8,27.9,7.8c29.7,0,53.8-24.1,53.8-53.8c0-10.2-2.8-19.7-7.8-27.9l52.9-52.9
				c8.1,4.9,17.7,7.8,27.9,7.8c29.7,0,53.8-24.1,53.8-53.8c0-10.2-2.8-19.7-7.8-27.9l52.9-52.9c8.1,4.9,17.7,7.8,27.9,7.8
				c29.7,0,53.8-24.1,53.8-53.8c0-10.2-2.8-19.7-7.8-27.9l52.9-52.9c8.1,4.9,17.7,7.8,27.9,7.8c29.7,0,53.8-24.1,53.8-53.8
				c0-10.2-2.8-19.7-7.8-27.9l52.9-52.9c8.1,4.9,17.7,7.8,27.9,7.8c29.7,0,53.8-24.1,53.8-53.8
				C1882.5,565.5,1858.4,541.4,1828.7,541.4z M1546.7,387c8.1,4.9,17.7,7.8,27.9,7.8c10.2,0,19.7-2.8,27.9-7.8l81.5,81.5l-80.7,80.7
				c-8.1-4.9-17.7-7.8-27.9-7.8c-10.2,0-19.7,2.8-27.9,7.8l-53.6-53.6c4.9-8.1,7.8-17.7,7.8-27.9s-2.8-19.7-7.8-27.9L1546.7,387z
				 M1529.3,623.1l-52.9,52.9c-8.1-4.9-17.7-7.8-27.9-7.8s-19.7,2.8-27.9,7.8l-53.6-53.6c4.9-8.1,7.8-17.7,7.8-27.9
				c0-10.2-2.8-19.7-7.8-27.9l52.9-52.9c8.1,4.9,17.7,7.8,27.9,7.8c10.2,0,19.7-2.8,27.9-7.8l53.6,53.6c-4.9,8.1-7.8,17.7-7.8,27.9
				C1521.5,605.4,1524.4,614.9,1529.3,623.1z M1402.6,749.8l-52.9,52.9c-8.1-4.9-17.7-7.8-27.9-7.8c-10.2,0-19.7,2.8-27.9,7.8
				l-53.6-53.6c4.9-8.1,7.8-17.7,7.8-27.9c0-10.2-2.8-19.7-7.8-27.9l52.9-52.9c8.1,4.9,17.7,7.8,27.9,7.8c10.2,0,19.7-2.8,27.9-7.8
				l53.6,53.6c-4.9,8.1-7.8,17.7-7.8,27.9C1394.8,732.1,1397.7,741.6,1402.6,749.8z M1275.9,876.5l-52.9,52.9
				c-8.1-4.9-17.7-7.8-27.9-7.8c-10.2,0-19.7,2.8-27.9,7.8l-53.6-53.6c4.9-8.1,7.8-17.7,7.8-27.9c0-10.2-2.8-19.7-7.8-27.9
				l52.9-52.9c8.1,4.9,17.7,7.8,27.9,7.8c10.2,0,19.7-2.8,27.9-7.8l53.6,53.6c-4.9,8.1-7.8,17.7-7.8,27.9
				C1268.1,858.8,1270.9,868.3,1275.9,876.5z M1149.2,1003.2l-52.9,52.9c-8.1-4.9-17.7-7.8-27.9-7.8c-10.2,0-19.7,2.8-27.9,7.8
				l-53.6-53.6c4.9-8.1,7.8-17.7,7.8-27.9c0-10.2-2.8-19.7-7.8-27.9l52.9-52.9c8.1,4.9,17.7,7.8,27.9,7.8c10.2,0,19.7-2.8,27.9-7.8
				l53.6,53.6c-4.9,8.1-7.8,17.7-7.8,27.9C1141.4,985.5,1144.2,995.1,1149.2,1003.2z M1022.5,1129.9l-52.9,52.9
				c-8.1-4.9-17.7-7.8-27.9-7.8c-10.2,0-19.7,2.8-27.9,7.8l-53.6-53.6c4.9-8.1,7.8-17.7,7.8-27.9c0-10.2-2.8-19.7-7.8-27.9
				l52.9-52.9c8.1,4.9,17.7,7.8,27.9,7.8s19.7-2.8,27.9-7.8l53.6,53.6c-4.9,8.1-7.8,17.7-7.8,27.9
				C1014.7,1112.2,1017.5,1121.8,1022.5,1129.9z M352.7,565.9l52.9-52.9c8.1,4.9,17.7,7.8,27.9,7.8s19.7-2.8,27.9-7.8l53.6,53.6
				c-4.9,8.1-7.8,17.7-7.8,27.9c0,10.2,2.8,19.7,7.8,27.9L462,675.2c-8.1-4.9-17.7-7.8-27.9-7.8c-10.2,0-19.7,2.8-27.9,7.8
				l-53.6-53.6c4.9-8.1,7.8-17.7,7.8-27.9C360.5,583.5,357.6,574,352.7,565.9z M479.4,439.2l52.9-52.9c8.1,4.9,17.7,7.8,27.9,7.8
				s19.7-2.8,27.9-7.8l53.6,53.6c-4.9,8.1-7.8,17.7-7.8,27.9c0,10.2,2.8,19.7,7.8,27.9l-52.9,52.9c-8.1-4.9-17.7-7.8-27.9-7.8
				c-10.2,0-19.7,2.8-27.9,7.8l-53.6-53.6c4.9-8.1,7.8-17.7,7.8-27.9S484.4,447.3,479.4,439.2z M606.1,312.4l52.9-52.9
				c8.1,4.9,17.7,7.8,27.9,7.8s19.7-2.8,27.9-7.8l53.6,53.6c-4.9,8.1-7.8,17.7-7.8,27.9c0,10.2,2.8,19.7,7.8,27.9l-52.9,52.9
				c-8.1-4.9-17.7-7.8-27.9-7.8c-10.2,0-19.7,2.8-27.9,7.8l-53.6-53.6c4.9-8.1,7.8-17.7,7.8-27.9S611.1,320.6,606.1,312.4z
				 M732.8,185.7l52.9-52.9c8.1,4.9,17.7,7.8,27.9,7.8s19.7-2.8,27.9-7.8l53.6,53.6c-4.9,8.1-7.8,17.7-7.8,27.9
				c0,10.2,2.8,19.7,7.8,27.9l-52.9,52.9c-8.1-4.9-17.7-7.8-27.9-7.8c-10.2,0-19.7,2.8-27.9,7.8l-53.6-53.6
				c4.9-8.1,7.8-17.7,7.8-27.9C740.6,203.4,737.8,193.9,732.8,185.7z M859.5,59l52.9-52.9c8.1,4.9,17.7,7.8,27.9,7.8
				s19.7-2.8,27.9-7.8l53.6,53.6c-4.9,8.1-7.8,17.7-7.8,27.9c0,10.2,2.8,19.7,7.8,27.9l-52.9,52.9c-8.1-4.9-17.7-7.8-27.9-7.8
				c-10.2,0-19.7,2.8-27.9,7.8l-53.6-53.6c4.9-8.1,7.8-17.7,7.8-27.9S864.5,67.2,859.5,59z M859.5-194.4l52.9-52.9
				c8.1,4.9,17.7,7.8,27.9,7.8s19.7-2.8,27.9-7.8l52.9,52.9c-4.9,8.1-7.8,17.7-7.8,27.9c0,10.2,2.8,19.7,7.8,27.9l-52.9,52.9
				c-8.1-4.9-17.7-7.8-27.9-7.8s-19.7,2.8-27.9,7.8l-52.9-52.9c4.9-8.1,7.8-17.7,7.8-27.9C867.3-176.7,864.5-186.3,859.5-194.4z
				 M1148.5,242.2l-52.9,52.9c-8.1-4.9-17.7-7.8-27.9-7.8c-10.2,0-19.7,2.8-27.9,7.8L987,242.2c4.9-8.1,7.8-17.7,7.8-27.9
				c0-10.2-2.8-19.7-7.8-27.9l52.9-52.9c8.1,4.9,17.7,7.8,27.9,7.8c10.2,0,19.7-2.8,27.9-7.8l52.9,52.9c-4.9,8.1-7.8,17.7-7.8,27.9
				C1140.7,224.5,1143.5,234.1,1148.5,242.2z M1275.2,368.9l-52.9,52.9c-8.1-4.9-17.7-7.8-27.9-7.8c-10.2,0-19.7,2.8-27.9,7.8
				l-52.9-52.9c4.9-8.1,7.8-17.7,7.8-27.9c0-10.2-2.8-19.7-7.8-27.9l52.9-52.9c8.1,4.9,17.7,7.8,27.9,7.8c10.2,0,19.7-2.8,27.9-7.8
				l52.9,52.9c-4.9,8.1-7.8,17.7-7.8,27.9C1267.4,351.2,1270.2,360.8,1275.2,368.9z M1401.9,495.6l-52.9,52.9
				c-8.1-4.9-17.7-7.8-27.9-7.8c-10.2,0-19.7,2.8-27.9,7.8l-52.9-52.9c4.9-8.1,7.8-17.7,7.8-27.9c0-10.2-2.8-19.7-7.8-27.9
				l52.9-52.9c8.1,4.9,17.7,7.8,27.9,7.8c10.2,0,19.7-2.8,27.9-7.8l52.9,52.9c-4.9,8.1-7.8,17.7-7.8,27.9
				C1394.1,478,1396.9,487.5,1401.9,495.6z M606.8,566.6l52.9-52.9c8.1,4.9,17.7,7.8,27.9,7.8c10.2,0,19.7-2.8,27.9-7.8l52.9,52.9
				c-4.9,8.1-7.8,17.7-7.8,27.9c0,10.2,2.8,19.7,7.8,27.9l-52.9,52.9c-8.1-4.9-17.7-7.8-27.9-7.8c-10.2,0-19.7,2.8-27.9,7.8
				l-52.9-52.9c4.9-8.1,7.8-17.7,7.8-27.9C614.6,584.3,611.8,574.7,606.8,566.6z M733.6,439.9l52.9-52.9c8.1,4.9,17.7,7.8,27.9,7.8
				c10.2,0,19.7-2.8,27.9-7.8l52.9,52.9c-4.9,8.1-7.8,17.7-7.8,27.9c0,10.2,2.8,19.7,7.8,27.9l-52.9,52.9
				c-8.1-4.9-17.7-7.8-27.9-7.8c-10.2,0-19.7,2.8-27.9,7.8l-52.9-52.9c4.9-8.1,7.8-17.7,7.8-27.9C741.3,457.5,738.5,448,733.6,439.9
				z M860.3,313.2l52.9-52.9c8.1,4.9,17.7,7.8,27.9,7.8s19.7-2.8,27.9-7.8l52.9,52.9c-4.9,8.1-7.8,17.7-7.8,27.9
				c0,10.2,2.8,19.7,7.8,27.9l-52.9,52.9c-8.1-4.9-17.7-7.8-27.9-7.8c-10.2,0-19.7,2.8-27.9,7.8l-52.9-52.9
				c4.9-8.1,7.8-17.7,7.8-27.9C868,330.8,865.2,321.3,860.3,313.2z M1148.5,495.6l-52.9,52.9c-8.1-4.9-17.7-7.8-27.9-7.8
				c-10.2,0-19.7,2.8-27.9,7.8L987,495.6c4.9-8.1,7.8-17.7,7.8-27.9c0-10.2-2.8-19.7-7.8-27.9l52.9-52.9c8.1,4.9,17.7,7.8,27.9,7.8
				c10.2,0,19.7-2.8,27.9-7.8l52.9,52.9c-4.9,8.1-7.8,17.7-7.8,27.9C1140.7,478,1143.5,487.5,1148.5,495.6z M860.3,566.6l52.9-52.9
				c8.1,4.9,17.7,7.8,27.9,7.8s19.7-2.8,27.9-7.8l52.9,52.9c-4.9,8.1-7.8,17.7-7.8,27.9c0,10.2,2.8,19.7,7.8,27.9l-52.9,52.9
				c-8.1-4.9-17.7-7.8-27.9-7.8c-10.2,0-19.7,2.8-27.9,7.8l-52.9-52.9c4.9-8.1,7.8-17.7,7.8-27.9C868,584.3,865.2,574.7,860.3,566.6
				z M733.6,693.3l52.9-52.9c8.1,4.9,17.7,7.8,27.9,7.8c10.2,0,19.7-2.8,27.9-7.8l52.9,52.9c-4.9,8.1-7.8,17.7-7.8,27.9
				c0,10.2,2.8,19.7,7.8,27.9l-52.9,52.9c-8.1-4.9-17.7-7.8-27.9-7.8c-10.2,0-19.7,2.8-27.9,7.8L733.6,749
				c4.9-8.1,7.8-17.7,7.8-27.9C741.3,711,738.5,701.4,733.6,693.3z M860.3,820l52.9-52.9c8.1,4.9,17.7,7.8,27.9,7.8
				s19.7-2.8,27.9-7.8l52.9,52.9c-4.9,8.1-7.8,17.7-7.8,27.9c0,10.2,2.8,19.7,7.8,27.9l-52.9,52.9c-8.1-4.9-17.7-7.8-27.9-7.8
				c-10.2,0-19.7,2.8-27.9,7.8l-52.9-52.9c4.9-8.1,7.8-17.7,7.8-27.9C868,837.7,865.2,828.1,860.3,820z M987,749
				c4.9-8.1,7.8-17.7,7.8-27.9c0-10.2-2.8-19.7-7.8-27.9l52.9-52.9c8.1,4.9,17.7,7.8,27.9,7.8c10.2,0,19.7-2.8,27.9-7.8l52.9,52.9
				c-4.9,8.1-7.8,17.7-7.8,27.9c0,10.2,2.8,19.7,7.8,27.9l-52.9,52.9c-8.1-4.9-17.7-7.8-27.9-7.8c-10.2,0-19.7,2.8-27.9,7.8L987,749
				z M1113.7,622.3c4.9-8.1,7.8-17.7,7.8-27.9c0-10.2-2.8-19.7-7.8-27.9l52.9-52.9c8.1,4.9,17.7,7.8,27.9,7.8
				c10.2,0,19.7-2.8,27.9-7.8l52.9,52.9c-4.9,8.1-7.8,17.7-7.8,27.9c0,10.2,2.8,19.7,7.8,27.9l-52.9,52.9
				c-8.1-4.9-17.7-7.8-27.9-7.8c-10.2,0-19.7,2.8-27.9,7.8L1113.7,622.3z M480.1,693.3l52.9-52.9c8.1,4.9,17.7,7.8,27.9,7.8
				c10.2,0,19.7-2.8,27.9-7.8l52.9,52.9c-4.9,8.1-7.8,17.7-7.8,27.9c0,10.2,2.8,19.7,7.8,27.9l-52.9,52.9
				c-8.1-4.9-17.7-7.8-27.9-7.8c-10.2,0-19.7,2.8-27.9,7.8L480.1,749c4.9-8.1,7.8-17.7,7.8-27.9C487.9,711,485.1,701.4,480.1,693.3z
				 M606.8,820l52.9-52.9c8.1,4.9,17.7,7.8,27.9,7.8c10.2,0,19.7-2.8,27.9-7.8l52.9,52.9c-4.9,8.1-7.8,17.7-7.8,27.9
				c0,10.2,2.8,19.7,7.8,27.9l-52.9,52.9c-8.1-4.9-17.7-7.8-27.9-7.8c-10.2,0-19.7,2.8-27.9,7.8l-52.9-52.9
				c4.9-8.1,7.8-17.7,7.8-27.9C614.6,837.7,611.8,828.1,606.8,820z M733.6,946.7l52.9-52.9c8.1,4.9,17.7,7.8,27.9,7.8
				c10.2,0,19.7-2.8,27.9-7.8l52.9,52.9c-4.9,8.1-7.8,17.7-7.8,27.9c0,10.2,2.8,19.7,7.8,27.9l-52.9,52.9
				c-8.1-4.9-17.7-7.8-27.9-7.8c-10.2,0-19.7,2.8-27.9,7.8l-52.9-52.9c4.9-8.1,7.8-17.7,7.8-27.9
				C741.3,964.4,738.5,954.8,733.6,946.7z M1447.8,268.1c10.2,0,19.7-2.8,27.9-7.8l52.9,52.9c-4.9,8.1-7.8,17.7-7.8,27.9
				c0,10.2,2.8,19.7,7.8,27.9l-52.9,52.9c-8.1-4.9-17.7-7.8-27.9-7.8c-10.2,0-19.7,2.8-27.9,7.8l-52.9-52.9
				c4.9-8.1,7.8-17.7,7.8-27.9c0-10.2-2.8-19.7-7.8-27.9l52.9-52.9C1428.1,265.2,1437.6,268.1,1447.8,268.1z M1293.3,133.6
				c8.1,4.9,17.7,7.8,27.9,7.8c10.2,0,19.7-2.8,27.9-7.8l52.9,52.9c-4.9,8.1-7.8,17.7-7.8,27.9c0,10.2,2.8,19.7,7.8,27.9l-52.9,52.9
				c-8.1-4.9-17.7-7.8-27.9-7.8c-10.2,0-19.7,2.8-27.9,7.8l-52.9-52.9c4.9-8.1,7.8-17.7,7.8-27.9c0-10.2-2.8-19.7-7.8-27.9
				L1293.3,133.6z M1275.2,59.7c-4.9,8.1-7.8,17.7-7.8,27.9c0,10.2,2.8,19.7,7.8,27.9l-52.9,52.9c-8.1-4.9-17.7-7.8-27.9-7.8
				c-10.2,0-19.7,2.8-27.9,7.8l-52.9-52.9c4.9-8.1,7.8-17.7,7.8-27.9c0-10.2-2.8-19.7-7.8-27.9l80.7-80.7L1275.2,59.7z M1176.3-39.1
				l-80.7,80.7c-8.1-4.9-17.7-7.8-27.9-7.8c-10.2,0-19.7,2.8-27.9,7.8l-53.6-53.6c4.9-8.1,7.8-17.7,7.8-27.9s-2.8-19.7-7.8-27.9
				l52.9-52.9c8.1,4.9,17.7,7.8,27.9,7.8s19.7-2.8,27.9-7.8L1176.3-39.1z M732.8-67.7l52.9-52.9c8.1,4.9,17.7,7.8,27.9,7.8
				s19.7-2.8,27.9-7.8l52.9,52.9c-4.9,8.1-7.8,17.7-7.8,27.9s2.8,19.7,7.8,27.9l-52.9,52.9c-8.1-4.9-17.7-7.8-27.9-7.8
				s-19.7,2.8-27.9,7.8l-52.9-52.9c4.9-8.1,7.8-17.7,7.8-27.9S737.8-59.6,732.8-67.7z M606.1,59L659,6.2c8.1,4.9,17.7,7.8,27.9,7.8
				s19.7-2.8,27.9-7.8L767.6,59c-4.9,8.1-7.8,17.7-7.8,27.9s2.8,19.7,7.8,27.9l-52.9,52.9c-8.1-4.9-17.7-7.8-27.9-7.8
				s-19.7,2.8-27.9,7.8l-52.9-52.9c4.9-8.1,7.8-17.7,7.8-27.9S611.1,67.2,606.1,59z M479.4,185.7l52.9-52.9
				c8.1,4.9,17.7,7.8,27.9,7.8s19.7-2.8,27.9-7.8l52.9,52.9c-4.9,8.1-7.8,17.7-7.8,27.9c0,10.2,2.8,19.7,7.8,27.9L588,294.3
				c-8.1-4.9-17.7-7.8-27.9-7.8s-19.7,2.8-27.9,7.8l-52.9-52.9c4.9-8.1,7.8-17.7,7.8-27.9C487.2,203.4,484.4,193.9,479.4,185.7z
				 M352.7,312.4l52.9-52.9c8.1,4.9,17.7,7.8,27.9,7.8s19.7-2.8,27.9-7.8l52.9,52.9c-4.9,8.1-7.8,17.7-7.8,27.9s2.8,19.7,7.8,27.9
				l-52.9,52.9c-8.1-4.9-17.7-7.8-27.9-7.8s-19.7,2.8-27.9,7.8l-52.9-52.9c4.9-8.1,7.8-17.7,7.8-27.9S357.6,320.6,352.7,312.4z
				 M226,439.2l52.9-52.9c8.1,4.9,17.7,7.8,27.9,7.8s19.7-2.8,27.9-7.8l52.9,52.9c-4.9,8.1-7.8,17.7-7.8,27.9s2.8,19.7,7.8,27.9
				l-52.9,52.9c-8.1-4.9-17.7-7.8-27.9-7.8s-19.7,2.8-27.9,7.8L226,494.9c4.9-8.1,7.8-17.7,7.8-27.9S230.9,447.3,226,439.2z
				 M180,666.7c-10.2,0-19.7,2.8-27.9,7.8l-52.9-52.9c4.9-8.1,7.8-17.7,7.8-27.9c0-10.2-2.8-19.7-7.8-27.9l52.9-52.9
				c8.1,4.9,17.7,7.8,27.9,7.8c10.2,0,19.7-2.8,27.9-7.8l52.9,52.9c-4.9,8.1-7.8,17.7-7.8,27.9c0,10.2,2.8,19.7,7.8,27.9l-52.9,52.9
				C199.8,669.5,190.2,666.7,180,666.7z M307.5,794.1c-10.2,0-19.7,2.8-27.9,7.8L226,748.3c4.9-8.1,7.8-17.7,7.8-27.9
				s-2.8-19.7-7.8-27.9l52.9-52.9c8.1,4.9,17.7,7.8,27.9,7.8s19.7-2.8,27.9-7.8l53.6,53.6c-4.9,8.1-7.8,17.7-7.8,27.9
				c0,10.2,2.8,19.7,7.8,27.9l-52.9,52.9C327.2,797,317.7,794.1,307.5,794.1z M434.2,920.8c-10.2,0-19.7,2.8-27.9,7.8l-52.9-52.9
				c4.9-8.1,7.8-17.7,7.8-27.9c0-10.2-2.8-19.7-7.8-27.9l52.9-52.9c8.1,4.9,17.7,7.8,27.9,7.8c10.2,0,19.7-2.8,27.9-7.8l52.9,52.9
				c-4.9,8.1-7.8,17.7-7.8,27.9c0,10.2,2.8,19.7,7.8,27.9L462,928.6C453.9,923.7,444.4,920.8,434.2,920.8z M560.9,1047.5
				c-10.2,0-19.7,2.8-27.9,7.8l-52.9-52.9c4.9-8.1,7.8-17.7,7.8-27.9c0-10.2-2.8-19.7-7.8-27.9l52.9-52.9c8.1,4.9,17.7,7.8,27.9,7.8
				c10.2,0,19.7-2.8,27.9-7.8l52.9,52.9c-4.9,8.1-7.8,17.7-7.8,27.9c0,10.2,2.8,19.7,7.8,27.9l-52.9,52.9
				C580.6,1050.4,571.1,1047.5,560.9,1047.5z M687.6,1174.3c-10.2,0-19.7,2.8-27.9,7.8l-52.9-52.9c4.9-8.1,7.8-17.7,7.8-27.9
				c0-10.2-2.8-19.7-7.8-27.9l52.9-52.9c8.1,4.9,17.7,7.8,27.9,7.8c10.2,0,19.7-2.8,27.9-7.8l52.9,52.9c-4.9,8.1-7.8,17.7-7.8,27.9
				s2.8,19.7,7.8,27.9l-52.9,52.9C707.3,1177.1,697.8,1174.3,687.6,1174.3z M842.9,1309.5c-8.1-4.9-17.7-7.8-27.9-7.8
				c-10.2,0-19.7,2.8-27.9,7.8l-53.6-53.6c4.9-8.1,7.8-17.7,7.8-27.9c0-10.2-2.8-19.7-7.8-27.9l52.9-52.9c8.1,4.9,17.7,7.8,27.9,7.8
				c10.2,0,19.7-2.8,27.9-7.8l53.6,53.6c-4.9,8.1-7.8,17.7-7.8,27.9c0,10.2,2.8,19.7,7.8,27.9L842.9,1309.5z M1022.5,1383.3
				l-52.9,52.9c-8.1-4.9-17.7-7.8-27.9-7.8c-10.2,0-19.7,2.8-27.9,7.8l-52.9-52.9c4.9-8.1,7.8-17.7,7.8-27.9
				c0-10.2-2.8-19.7-7.8-27.9l52.9-52.9c8.1,4.9,17.7,7.8,27.9,7.8c10.2,0,19.7-2.8,27.9-7.8l52.9,52.9c-4.9,8.1-7.8,17.7-7.8,27.9
				C1014.7,1365.7,1017.5,1375.2,1022.5,1383.3z M1149.2,1256.6l-52.9,52.9c-8.1-4.9-17.7-7.8-27.9-7.8c-10.2,0-19.7,2.8-27.9,7.8
				l-52.9-52.9c4.9-8.1,7.8-17.7,7.8-27.9c0-10.2-2.8-19.7-7.8-27.9l52.9-52.9c8.1,4.9,17.7,7.8,27.9,7.8s19.7-2.8,27.9-7.8
				l52.9,52.9c-4.9,8.1-7.8,17.7-7.8,27.9C1141.4,1238.9,1144.2,1248.5,1149.2,1256.6z M1275.9,1129.9l-52.9,52.9
				c-8.1-4.9-17.7-7.8-27.9-7.8c-10.2,0-19.7,2.8-27.9,7.8l-52.9-52.9c4.9-8.1,7.8-17.7,7.8-27.9s-2.8-19.7-7.8-27.9l52.9-52.9
				c8.1,4.9,17.7,7.8,27.9,7.8c10.2,0,19.7-2.8,27.9-7.8l52.9,52.9c-4.9,8.1-7.8,17.7-7.8,27.9S1270.9,1121.8,1275.9,1129.9z
				 M1402.6,1003.2l-52.9,52.9c-8.1-4.9-17.7-7.8-27.9-7.8c-10.2,0-19.7,2.8-27.9,7.8l-52.9-52.9c4.9-8.1,7.8-17.7,7.8-27.9
				c0-10.2-2.8-19.7-7.8-27.9l52.9-52.9c8.1,4.9,17.7,7.8,27.9,7.8c10.2,0,19.7-2.8,27.9-7.8l52.9,52.9c-4.9,8.1-7.8,17.7-7.8,27.9
				C1394.8,985.5,1397.7,995.1,1402.6,1003.2z M1529.3,876.5l-52.9,52.9c-8.1-4.9-17.7-7.8-27.9-7.8s-19.7,2.8-27.9,7.8l-52.9-52.9
				c4.9-8.1,7.8-17.7,7.8-27.9s-2.8-19.7-7.8-27.9l52.9-52.9c8.1,4.9,17.7,7.8,27.9,7.8c10.2,0,19.7-2.8,27.9-7.8l52.9,52.9
				c-4.9,8.1-7.8,17.7-7.8,27.9C1521.5,858.8,1524.4,868.3,1529.3,876.5z M1656,749.8l-52.9,52.9c-8.1-4.9-17.7-7.8-27.9-7.8
				c-10.2,0-19.7,2.8-27.9,7.8l-52.9-52.9c4.9-8.1,7.8-17.7,7.8-27.9s-2.8-19.7-7.8-27.9l52.9-52.9c8.1,4.9,17.7,7.8,27.9,7.8
				s19.7-2.8,27.9-7.8L1656,694c-4.9,8.1-7.8,17.7-7.8,27.9C1648.2,732.1,1651.1,741.6,1656,749.8z M1782.7,623.1l-52.9,52.9
				c-8.1-4.9-17.7-7.8-27.9-7.8s-19.7,2.8-27.9,7.8l-52.9-52.9c4.9-8.1,7.8-17.7,7.8-27.9c0-10.2-2.8-19.7-7.8-27.9l80.7-80.7
				l80.7,80.7c-4.9,8.1-7.8,17.7-7.8,27.9C1774.9,605.4,1777.8,614.9,1782.7,623.1z"/>
		</g>
	</g>
</g>
<rect id="XMLID_2_" class="st4" width="1900" height="1200"/>
<g id="XMLID_43_" class="st5">
	<g id="XMLID_89_">
		<path class="st6" d="M1300.2,595.5c-22.2,0-42.8,7.3-59.4,19.6l-45.4-45.4c21.6-26.3,34.6-60,34.6-96.7
			c0-84.1-68.4-152.5-152.5-152.5S925,388.9,925,473c0,36.7,13,70.3,34.6,96.7l-58.5,58.5c-26.3-21.6-60-34.6-96.7-34.6
			c-36.7,0-70.3,13-96.7,34.6l-45.4-45.4c12.3-16.6,19.6-37.2,19.6-59.4C682,468,637,423,581.8,423s-100.2,45-100.2,100.2
			s45,100.2,100.2,100.2c22.2,0,42.8-7.3,59.4-19.6l45.4,45.4C665,675.6,652,709.3,652,746c0,84.1,68.4,152.5,152.5,152.5
			S957,830,957,746c0-36.7-13-70.3-34.6-96.7l58.5-58.5c26.3,21.6,60,34.6,96.7,34.6c36.7,0,70.3-13,96.7-34.6l45.4,45.4
			c-12.3,16.6-19.6,37.2-19.6,59.4c0,55.3,45,100.2,100.2,100.2s100.2-45,100.2-100.2S1355.5,595.5,1300.2,595.5z M511.5,523.2
			c0-38.7,31.5-70.2,70.2-70.2s70.2,31.5,70.2,70.2s-31.5,70.2-70.2,70.2S511.5,562,511.5,523.2z M804.5,868.5
			C737,868.5,682,813.5,682,746s55-122.5,122.5-122.5S927,678.4,927,746S872.1,868.5,804.5,868.5z M1077.5,595.5
			c-67.5,0-122.5-55-122.5-122.5s55-122.5,122.5-122.5S1200,405.4,1200,473S1145,595.5,1077.5,595.5z M1300.2,765.9
			c-38.7,0-70.2-31.5-70.2-70.2s31.5-70.2,70.2-70.2s70.2,31.5,70.2,70.2S1339,765.9,1300.2,765.9z"/>
	</g>
	<g id="XMLID_84_">
		<g id="XMLID_87_">
			<g id="XMLID_88_">
				<path class="st6" d="M1118,397.8c0-4-2-7.8-5.3-10c-5.3-3.5-15.6-7.5-35.2-7.5c-19.6,0-29.9,3.9-35.2,7.5c-3.4,2.2-5.3,6-5.3,10
					v43.9c0,22.3,18.2,40.5,40.5,40.5h0c22.3,0,40.5-18.2,40.5-40.5V397.8z"/>
			</g>
		</g>
		<g id="XMLID_85_">
			<g id="XMLID_86_">
				<path class="st6" d="M1124.4,559.6c9.3-2.7,15.6-11.3,15.3-20.9c-0.7-24.6-8.3-40.2-8.3-40.2c-2.3-5-5.3-9.6-8.8-13.8
					c-2.6-3-7-3.2-10.1-0.7c-9.5,7.8-21.7,12.6-34.9,12.6c-13.3,0-25.4-4.7-34.9-12.6c-3-2.5-7.5-2.2-10.1,0.7
					c-3.5,4.1-6.5,8.8-8.8,13.8c0,0-7.6,15.7-8.3,40.2c-0.3,9.6,6,18.2,15.3,20.9c10.3,3,25.8,6,46.9,6
					C1098.5,565.6,1114.1,562.6,1124.4,559.6z"/>
			</g>
		</g>
	</g>
	<g id="XMLID_58_">
		<g id="XMLID_82_">
			<g id="XMLID_83_">
				<path class="st6" d="M845.1,670.8c0-4-2-7.8-5.3-10c-5.3-3.5-15.6-7.5-35.2-7.5c-19.6,0-29.9,3.9-35.2,7.5
					c-3.4,2.2-5.3,6-5.3,10v43.9c0,22.3,18.2,40.5,40.5,40.5h0c22.3,0,40.5-18.2,40.5-40.5V670.8z"/>
			</g>
		</g>
		<g id="XMLID_80_">
			<g id="XMLID_81_">
				<path class="st6" d="M851.4,832.6c9.3-2.7,15.6-11.3,15.3-20.9c-0.7-24.6-8.3-40.2-8.3-40.2c-2.3-5-5.3-9.6-8.8-13.8
					c-2.6-3-7-3.2-10.1-0.7c-9.5,7.8-21.7,12.6-34.9,12.6s-25.4-4.7-34.9-12.6c-3-2.5-7.5-2.2-10.1,0.7c-3.5,4.1-6.5,8.8-8.8,13.8
					c0,0-7.6,15.7-8.3,40.2c-0.3,9.6,6,18.2,15.3,20.9c10.3,3,25.8,6,46.9,6S841.1,835.6,851.4,832.6z"/>
			</g>
		</g>
	</g>
	<g id="XMLID_52_">
		<g id="XMLID_56_">
			<g id="XMLID_57_">
				<path class="st6" d="M603.5,482.9c0-2.2-1.1-4.2-2.8-5.4c-2.9-1.9-8.4-4-18.9-4c-10.5,0-16.1,2.1-18.9,4
					c-1.8,1.2-2.8,3.2-2.8,5.4v23.5c0,12,9.8,21.8,21.8,21.8h0c12,0,21.8-9.8,21.8-21.8V482.9z"/>
			</g>
		</g>
		<g id="XMLID_53_">
			<g id="XMLID_54_">
				<path class="st6" d="M606.9,569.7c5-1.4,8.4-6.1,8.2-11.2c-0.4-13.2-4.5-21.6-4.5-21.6c-1.2-2.7-2.8-5.2-4.7-7.4
					c-1.4-1.6-3.8-1.7-5.4-0.4c-5.1,4.2-11.6,6.7-18.7,6.7c-7.1,0-13.6-2.5-18.7-6.7c-1.6-1.3-4-1.2-5.4,0.4
					c-1.9,2.2-3.5,4.7-4.7,7.4c0,0-4.1,8.4-4.5,21.6c-0.2,5.2,3.2,9.8,8.2,11.2c5.5,1.6,13.9,3.2,25.1,3.2
					C593.1,572.9,601.4,571.3,606.9,569.7z"/>
			</g>
		</g>
	</g>
	<g id="XMLID_46_">
		<g id="XMLID_49_">
			<g id="XMLID_50_">
				<path class="st6" d="M1322,655.4c0-2.2-1.1-4.2-2.8-5.4c-2.9-1.9-8.4-4-18.9-4s-16.1,2.1-18.9,4c-1.8,1.2-2.8,3.2-2.8,5.4v23.5
					c0,12,9.8,21.8,21.8,21.8l0,0c12,0,21.8-9.8,21.8-21.8V655.4z"/>
			</g>
		</g>
		<g id="XMLID_47_">
			<g id="XMLID_48_">
				<path class="st6" d="M1325.4,742.2c5-1.4,8.4-6.1,8.2-11.2c-0.4-13.2-4.5-21.6-4.5-21.6c-1.2-2.7-2.8-5.2-4.7-7.4
					c-1.4-1.6-3.8-1.7-5.4-0.4c-5.1,4.2-11.6,6.7-18.7,6.7s-13.6-2.5-18.7-6.7c-1.6-1.3-4-1.2-5.4,0.4c-1.9,2.2-3.5,4.7-4.7,7.4
					c0,0-4.1,8.4-4.5,21.6c-0.2,5.2,3.2,9.8,8.2,11.2c5.5,1.6,13.9,3.2,25.1,3.2C1311.5,745.4,1319.9,743.8,1325.4,742.2z"/>
			</g>
		</g>
	</g>
</g>
<g id="XMLID_1_">
	<g id="XMLID_55_">
		<g id="XMLID_303_">
			<defs>
				<path id="XMLID_361_" d="M1300.2,580.5c-22.2,0-42.8,7.3-59.4,19.6l-45.4-45.4c21.6-26.3,34.6-60,34.6-96.7
					c0-84.1-68.4-152.5-152.5-152.5S925,373.9,925,458c0,36.7,13,70.3,34.6,96.7l-58.5,58.5c-26.3-21.6-60-34.6-96.7-34.6
					c-36.7,0-70.3,13-96.7,34.6l-45.4-45.4c12.3-16.6,19.6-37.2,19.6-59.4C682,453,637,408,581.8,408s-100.2,45-100.2,100.2
					s45,100.2,100.2,100.2c22.2,0,42.8-7.3,59.4-19.6l45.4,45.4C665,660.6,652,694.3,652,731c0,84.1,68.4,152.5,152.5,152.5
					S957,815,957,731c0-36.7-13-70.3-34.6-96.7l58.5-58.5c26.3,21.6,60,34.6,96.7,34.6c36.7,0,70.3-13,96.7-34.6l45.4,45.4
					c-12.3,16.6-19.6,37.2-19.6,59.4c0,55.3,45,100.2,100.2,100.2s100.2-45,100.2-100.2S1355.5,580.5,1300.2,580.5z M511.5,508.2
					c0-38.7,31.5-70.2,70.2-70.2s70.2,31.5,70.2,70.2s-31.5,70.2-70.2,70.2S511.5,547,511.5,508.2z M804.5,853.5
					C737,853.5,682,798.5,682,731s55-122.5,122.5-122.5S927,663.4,927,731S872.1,853.5,804.5,853.5z M1077.5,580.5
					c-67.5,0-122.5-55-122.5-122.5s55-122.5,122.5-122.5S1200,390.4,1200,458S1145,580.5,1077.5,580.5z M1300.2,750.9
					c-38.7,0-70.2-31.5-70.2-70.2s31.5-70.2,70.2-70.2s70.2,31.5,70.2,70.2S1339,750.9,1300.2,750.9z"/>
			</defs>
			<clipPath id="XMLID_363_">
				<use xlink:href="#XMLID_361_"  style="overflow:visible;"/>
			</clipPath>
			<rect id="XMLID_304_" x="1230" y="730.5" class="st7" width="140.5" height="20.5"/>
			<rect id="XMLID_305_" x="1230" y="704.3" class="st8" width="140.5" height="26.1"/>
			<rect id="XMLID_306_" x="1230" y="678.2" class="st9" width="140.5" height="26.1"/>
			<rect id="XMLID_307_" x="1230" y="652.1" class="st10" width="140.5" height="26.1"/>
			<rect id="XMLID_308_" x="1230" y="626" class="st11" width="140.5" height="26.1"/>
			<rect id="XMLID_309_" x="1230" y="610.5" class="st12" width="140.5" height="15.6"/>
			<rect id="XMLID_310_" x="955" y="573.8" class="st13" width="245" height="6.7"/>
			<rect id="XMLID_311_" x="955" y="547.7" class="st14" width="245" height="26.1"/>
			<rect id="XMLID_312_" x="955" y="521.6" class="st15" width="245" height="26.1"/>
			<rect id="XMLID_313_" x="955" y="495.5" class="st16" width="245" height="26.1"/>
			<rect id="XMLID_314_" x="955" y="469.4" class="st17" width="245" height="26.1"/>
			<rect id="XMLID_315_" x="955" y="443.3" class="st18" width="245" height="26.1"/>
			<rect id="XMLID_316_" x="955" y="417.1" class="st19" width="245" height="26.1"/>
			<rect id="XMLID_317_" x="955" y="391" class="st20" width="245" height="26.1"/>
			<rect id="XMLID_318_" x="955" y="364.9" class="st21" width="245" height="26.1"/>
			<rect id="XMLID_319_" x="955" y="338.8" class="st22" width="245" height="26.1"/>
			<rect id="XMLID_320_" x="955" y="335.5" class="st23" width="245" height="3.3"/>
			<rect id="XMLID_321_" x="682" y="834.9" class="st24" width="245" height="18.6"/>
			<rect id="XMLID_322_" x="682" y="808.8" class="st25" width="245" height="26.1"/>
			<rect id="XMLID_323_" x="682" y="782.7" class="st26" width="245" height="26.1"/>
			<rect id="XMLID_324_" x="682" y="756.6" class="st27" width="245" height="26.1"/>
			<rect id="XMLID_325_" x="682" y="730.5" class="st7" width="245" height="26.1"/>
			<rect id="XMLID_326_" x="682" y="704.3" class="st8" width="245" height="26.1"/>
			<rect id="XMLID_327_" x="682" y="678.2" class="st9" width="245" height="26.1"/>
			<rect id="XMLID_328_" x="682" y="652.1" class="st10" width="245" height="26.1"/>
			<rect id="XMLID_329_" x="682" y="626" class="st11" width="245" height="26.1"/>
			<rect id="XMLID_330_" x="682" y="608.5" class="st12" width="245" height="17.6"/>
			<rect id="XMLID_331_" x="511.5" y="573.8" class="st13" width="140.5" height="4.7"/>
			<rect id="XMLID_332_" x="511.5" y="547.7" class="st14" width="140.5" height="26.1"/>
			<rect id="XMLID_333_" x="511.5" y="521.6" class="st15" width="140.5" height="26.1"/>
			<rect id="XMLID_334_" x="511.5" y="495.5" class="st16" width="140.5" height="26.1"/>
			<rect id="XMLID_335_" x="511.5" y="469.4" class="st17" width="140.5" height="26.1"/>
			<rect id="XMLID_336_" x="511.5" y="443.3" class="st18" width="140.5" height="26.1"/>
			<rect id="XMLID_337_" x="511.5" y="438" class="st19" width="140.5" height="5.3"/>
			<rect id="XMLID_338_" x="481.5" y="861" class="st24" width="918.9" height="22.5"/>
			<rect id="XMLID_339_" x="481.5" y="834.9" class="st24" width="918.9" height="26.1"/>
			<rect id="XMLID_340_" x="481.5" y="808.8" class="st25" width="918.9" height="26.1"/>
			<rect id="XMLID_341_" x="481.5" y="782.7" class="st26" width="918.9" height="26.1"/>
			<rect id="XMLID_342_" x="481.5" y="756.6" class="st27" width="918.9" height="26.1"/>
			<rect id="XMLID_343_" x="481.5" y="730.5" class="st7" width="918.9" height="26.1"/>
			<rect id="XMLID_344_" x="481.5" y="704.3" class="st8" width="918.9" height="26.1"/>
			<rect id="XMLID_345_" x="481.5" y="678.2" class="st9" width="918.9" height="26.1"/>
			<rect id="XMLID_346_" x="481.5" y="652.1" class="st10" width="918.9" height="26.1"/>
			<rect id="XMLID_347_" x="481.5" y="626" class="st11" width="918.9" height="26.1"/>
			<rect id="XMLID_348_" x="481.5" y="599.9" class="st12" width="918.9" height="26.1"/>
			<rect id="XMLID_349_" x="481.5" y="573.8" class="st13" width="918.9" height="26.1"/>
			<rect id="XMLID_350_" x="481.5" y="547.7" class="st14" width="918.9" height="26.1"/>
			<rect id="XMLID_351_" x="481.5" y="521.6" class="st15" width="918.9" height="26.1"/>
			<rect id="XMLID_352_" x="481.5" y="495.5" class="st16" width="918.9" height="26.1"/>
			<rect id="XMLID_353_" x="481.5" y="469.4" class="st17" width="918.9" height="26.1"/>
			<rect id="XMLID_354_" x="481.5" y="443.3" class="st18" width="918.9" height="26.1"/>
			<rect id="XMLID_355_" x="481.5" y="417.1" class="st19" width="918.9" height="26.1"/>
			<rect id="XMLID_356_" x="481.5" y="391" class="st20" width="918.9" height="26.1"/>
			<rect id="XMLID_357_" x="481.5" y="364.9" class="st21" width="918.9" height="26.1"/>
			<rect id="XMLID_358_" x="481.5" y="338.8" class="st22" width="918.9" height="26.1"/>
			<rect id="XMLID_359_" x="481.5" y="312.7" class="st23" width="918.9" height="26.1"/>
			<rect id="XMLID_360_" x="481.5" y="305.5" class="st23" width="918.9" height="7.2"/>
		</g>
	</g>
	<g id="XMLID_3_">
		<g id="XMLID_32_">
			<g id="XMLID_20_">
				<g id="XMLID_297_">
					<defs>
						<path id="XMLID_298_" d="M1118,382.8c0-4-2-7.8-5.3-10c-5.3-3.5-15.6-7.5-35.2-7.5c-19.6,0-29.9,3.9-35.2,7.5
							c-3.4,2.2-5.3,6-5.3,10v43.9c0,22.3,18.2,40.5,40.5,40.5h0c22.3,0,40.5-18.2,40.5-40.5V382.8z"/>
					</defs>
					<clipPath id="XMLID_364_">
						<use xlink:href="#XMLID_298_"  style="overflow:visible;"/>
					</clipPath>
					<rect id="XMLID_299_" x="1037" y="443.3" class="st28" width="81.1" height="23.9"/>
					<rect id="XMLID_300_" x="1037" y="417.1" class="st29" width="81.1" height="26.1"/>
					<rect id="XMLID_301_" x="1037" y="391" class="st30" width="81.1" height="26.1"/>
					<rect id="XMLID_302_" x="1037" y="365.3" class="st31" width="81.1" height="25.7"/>
				</g>
			</g>
		</g>
		<g id="XMLID_30_">
			<g id="XMLID_19_">
				<g id="XMLID_290_">
					<defs>
						<path id="XMLID_291_" d="M1124.4,544.6c9.3-2.7,15.6-11.3,15.3-20.9c-0.7-24.6-8.3-40.2-8.3-40.2c-2.3-5-5.3-9.6-8.8-13.8
							c-2.6-3-7-3.2-10.1-0.7c-9.5,7.8-21.7,12.6-34.9,12.6c-13.3,0-25.4-4.7-34.9-12.6c-3-2.5-7.5-2.2-10.1,0.7
							c-3.5,4.1-6.5,8.8-8.8,13.8c0,0-7.6,15.7-8.3,40.2c-0.3,9.6,6,18.2,15.3,20.9c10.3,3,25.8,6,46.9,6
							C1098.5,550.6,1114.1,547.6,1124.4,544.6z"/>
					</defs>
					<clipPath id="XMLID_365_">
						<use xlink:href="#XMLID_291_"  style="overflow:visible;"/>
					</clipPath>
					<rect id="XMLID_292_" x="1015.1" y="547.7" class="st32" width="124.9" height="3"/>
					<rect id="XMLID_293_" x="1015.1" y="521.6" class="st33" width="124.9" height="26.1"/>
					<rect id="XMLID_294_" x="1015.1" y="495.5" class="st34" width="124.9" height="26.1"/>
					<rect id="XMLID_295_" x="1015.1" y="469.4" class="st35" width="124.9" height="26.1"/>
					<rect id="XMLID_296_" x="1015.1" y="466.5" class="st36" width="124.9" height="2.9"/>
				</g>
			</g>
		</g>
	</g>
	<g id="XMLID_11_">
		<g id="XMLID_13_">
			<g id="XMLID_9_">
				<g id="XMLID_283_">
					<defs>
						<path id="XMLID_284_" d="M845.1,655.8c0-4-2-7.8-5.3-10c-5.3-3.5-15.6-7.5-35.2-7.5c-19.6,0-29.9,3.9-35.2,7.5
							c-3.4,2.2-5.3,6-5.3,10v43.9c0,22.3,18.2,40.5,40.5,40.5h0c22.3,0,40.5-18.2,40.5-40.5V655.8z"/>
					</defs>
					<clipPath id="XMLID_366_">
						<use xlink:href="#XMLID_284_"  style="overflow:visible;"/>
					</clipPath>
					<rect id="XMLID_285_" x="764" y="730.5" class="st37" width="81.1" height="9.7"/>
					<rect id="XMLID_286_" x="764" y="704.3" class="st38" width="81.1" height="26.1"/>
					<rect id="XMLID_287_" x="764" y="678.2" class="st39" width="81.1" height="26.1"/>
					<rect id="XMLID_288_" x="764" y="652.1" class="st40" width="81.1" height="26.1"/>
					<rect id="XMLID_289_" x="764" y="638.3" class="st41" width="81.1" height="13.8"/>
				</g>
			</g>
		</g>
		<g id="XMLID_12_">
			<g id="XMLID_8_">
				<g id="XMLID_277_">
					<defs>
						<path id="XMLID_278_" d="M851.4,817.6c9.3-2.7,15.6-11.3,15.3-20.9c-0.7-24.6-8.3-40.2-8.3-40.2c-2.3-5-5.3-9.6-8.8-13.8
							c-2.6-3-7-3.2-10.1-0.7c-9.5,7.8-21.7,12.6-34.9,12.6s-25.4-4.7-34.9-12.6c-3-2.5-7.5-2.2-10.1,0.7c-3.5,4.1-6.5,8.8-8.8,13.8
							c0,0-7.6,15.7-8.3,40.2c-0.3,9.6,6,18.2,15.3,20.9c10.3,3,25.8,6,46.9,6S841.1,820.6,851.4,817.6z"/>
					</defs>
					<clipPath id="XMLID_367_">
						<use xlink:href="#XMLID_278_"  style="overflow:visible;"/>
					</clipPath>
					<rect id="XMLID_279_" x="742.1" y="808.8" class="st42" width="124.9" height="14.9"/>
					<rect id="XMLID_280_" x="742.1" y="782.7" class="st43" width="124.9" height="26.1"/>
					<rect id="XMLID_281_" x="742.1" y="756.6" class="st44" width="124.9" height="26.1"/>
					<rect id="XMLID_282_" x="742.1" y="739.5" class="st45" width="124.9" height="17.1"/>
				</g>
			</g>
		</g>
	</g>
	<g id="XMLID_14_">
		<g id="XMLID_16_">
			<g id="XMLID_7_">
				<g id="XMLID_272_">
					<defs>
						<path id="XMLID_273_" d="M603.5,467.9c0-2.2-1.1-4.2-2.8-5.4c-2.9-1.9-8.4-4-18.9-4c-10.5,0-16.1,2.1-18.9,4
							c-1.8,1.2-2.8,3.2-2.8,5.4v23.5c0,12,9.8,21.8,21.8,21.8h0c12,0,21.8-9.8,21.8-21.8V467.9z"/>
					</defs>
					<clipPath id="XMLID_368_">
						<use xlink:href="#XMLID_273_"  style="overflow:visible;"/>
					</clipPath>
					<rect id="XMLID_274_" x="560" y="495.5" class="st46" width="43.5" height="17.7"/>
					<rect id="XMLID_275_" x="560" y="469.4" class="st47" width="43.5" height="26.1"/>
					<rect id="XMLID_276_" x="560" y="458.5" class="st48" width="43.5" height="10.9"/>
				</g>
			</g>
		</g>
		<g id="XMLID_15_">
			<g id="XMLID_6_">
				<g id="XMLID_267_">
					<defs>
						<path id="XMLID_268_" d="M606.9,554.7c5-1.4,8.4-6.1,8.2-11.2c-0.4-13.2-4.5-21.6-4.5-21.6c-1.2-2.7-2.8-5.2-4.7-7.4
							c-1.4-1.6-3.8-1.7-5.4-0.4c-5.1,4.2-11.6,6.7-18.7,6.7c-7.1,0-13.6-2.5-18.7-6.7c-1.6-1.3-4-1.2-5.4,0.4
							c-1.9,2.2-3.5,4.7-4.7,7.4c0,0-4.1,8.4-4.5,21.6c-0.2,5.2,3.2,9.8,8.2,11.2c5.5,1.6,13.9,3.2,25.1,3.2
							C593.1,557.9,601.4,556.3,606.9,554.7z"/>
					</defs>
					<clipPath id="XMLID_369_">
						<use xlink:href="#XMLID_268_"  style="overflow:visible;"/>
					</clipPath>
					<rect id="XMLID_269_" x="548.3" y="547.7" class="st49" width="67" height="10.3"/>
					<rect id="XMLID_270_" x="548.3" y="521.6" class="st50" width="67" height="26.1"/>
					<rect id="XMLID_271_" x="548.3" y="512.8" class="st51" width="67" height="8.8"/>
				</g>
			</g>
		</g>
	</g>
	<g id="XMLID_4_">
		<g id="XMLID_18_">
			<g id="XMLID_10_">
				<g id="XMLID_262_">
					<defs>
						<path id="XMLID_263_" d="M1322,640.4c0-2.2-1.1-4.2-2.8-5.4c-2.9-1.9-8.4-4-18.9-4s-16.1,2.1-18.9,4c-1.8,1.2-2.8,3.2-2.8,5.4
							v23.5c0,12,9.8,21.8,21.8,21.8l0,0c12,0,21.8-9.8,21.8-21.8V640.4z"/>
					</defs>
					<clipPath id="XMLID_370_">
						<use xlink:href="#XMLID_263_"  style="overflow:visible;"/>
					</clipPath>
					<rect id="XMLID_264_" x="1278.5" y="678.2" class="st52" width="43.5" height="7.4"/>
					<rect id="XMLID_265_" x="1278.5" y="652.1" class="st53" width="43.5" height="26.1"/>
					<rect id="XMLID_266_" x="1278.5" y="631" class="st54" width="43.5" height="21.1"/>
				</g>
			</g>
		</g>
		<g id="XMLID_5_">
			<g id="XMLID_17_">
				<g id="XMLID_258_">
					<defs>
						<path id="XMLID_259_" d="M1325.4,727.2c5-1.4,8.4-6.1,8.2-11.2c-0.4-13.2-4.5-21.6-4.5-21.6c-1.2-2.7-2.8-5.2-4.7-7.4
							c-1.4-1.6-3.8-1.7-5.4-0.4c-5.1,4.2-11.6,6.7-18.7,6.7s-13.6-2.5-18.7-6.7c-1.6-1.3-4-1.2-5.4,0.4c-1.9,2.2-3.5,4.7-4.7,7.4
							c0,0-4.1,8.4-4.5,21.6c-0.2,5.2,3.2,9.8,8.2,11.2c5.5,1.6,13.9,3.2,25.1,3.2C1311.5,730.4,1319.9,728.8,1325.4,727.2z"/>
					</defs>
					<clipPath id="XMLID_371_">
						<use xlink:href="#XMLID_259_"  style="overflow:visible;"/>
					</clipPath>
					<rect id="XMLID_260_" x="1266.7" y="704.3" class="st55" width="67" height="26.1"/>
					<rect id="XMLID_261_" x="1266.7" y="685.3" class="st56" width="67" height="19.1"/>
				</g>
			</g>
		</g>
	</g>
</g>
<g id="XMLID_133_" class="st5">
	<g id="XMLID_154_">
		<circle class="st6" cx="736.3" cy="255.9" r="70.8"/>
	</g>
	<g id="XMLID_153_">
		<circle class="st6" cx="603.3" cy="954.7" r="45"/>
	</g>
	<g id="XMLID_152_">
		<circle class="st6" cx="1311" cy="255.9" r="45"/>
	</g>
	<g id="XMLID_135_">
		<circle class="st6" cx="1134.8" cy="944.8" r="74.2"/>
	</g>
</g>
<g id="XMLID_96_">
	<g id="XMLID_98_">
		<g id="XMLID_233_">
			<defs>
				<circle id="XMLID_234_" cx="736.3" cy="239.4" r="70.8"/>
			</defs>
			<clipPath id="XMLID_372_">
				<use xlink:href="#XMLID_234_"  style="overflow:visible;"/>
			</clipPath>
			<polygon id="XMLID_235_" class="st57" points="665.6,310.2 736.3,310.2 665.6,310.2 			"/>
			<polygon id="XMLID_236_" class="st57" points="665.6,303.4 807.1,303.4 807.1,310.2 736.3,310.2 665.6,310.2 			"/>
			<rect id="XMLID_237_" x="665.6" y="296.7" class="st58" width="141.5" height="6.7"/>
			<rect id="XMLID_238_" x="665.6" y="289.9" class="st59" width="141.5" height="6.7"/>
			<rect id="XMLID_239_" x="665.6" y="283.2" class="st60" width="141.5" height="6.7"/>
			<rect id="XMLID_240_" x="665.6" y="276.5" class="st61" width="141.5" height="6.7"/>
			<rect id="XMLID_241_" x="665.6" y="269.7" class="st62" width="141.5" height="6.7"/>
			<rect id="XMLID_242_" x="665.6" y="263" class="st63" width="141.5" height="6.7"/>
			<rect id="XMLID_243_" x="665.6" y="256.2" class="st64" width="141.5" height="6.7"/>
			<rect id="XMLID_244_" x="665.6" y="249.5" class="st65" width="141.5" height="6.7"/>
			<rect id="XMLID_245_" x="665.6" y="242.8" class="st66" width="141.5" height="6.7"/>
			<rect id="XMLID_246_" x="665.6" y="236" class="st67" width="141.5" height="6.7"/>
			<rect id="XMLID_247_" x="665.6" y="229.3" class="st68" width="141.5" height="6.7"/>
			<rect id="XMLID_248_" x="665.6" y="222.5" class="st69" width="141.5" height="6.7"/>
			<rect id="XMLID_249_" x="665.6" y="215.8" class="st70" width="141.5" height="6.7"/>
			<rect id="XMLID_250_" x="665.6" y="209.1" class="st71" width="141.5" height="6.7"/>
			<rect id="XMLID_251_" x="665.6" y="202.3" class="st72" width="141.5" height="6.7"/>
			<rect id="XMLID_252_" x="665.6" y="195.6" class="st73" width="141.5" height="6.7"/>
			<rect id="XMLID_253_" x="665.6" y="188.8" class="st74" width="141.5" height="6.7"/>
			<rect id="XMLID_254_" x="665.6" y="182.1" class="st75" width="141.5" height="6.7"/>
			<rect id="XMLID_255_" x="665.6" y="175.4" class="st76" width="141.5" height="6.7"/>
			<polygon id="XMLID_256_" class="st77" points="736.3,168.6 807.1,168.6 807.1,175.4 665.6,175.4 665.6,168.6 			"/>
			<polygon id="XMLID_257_" class="st77" points="807.1,168.6 736.3,168.6 807.1,168.6 			"/>
		</g>
	</g>
	<g id="XMLID_130_">
		<g id="XMLID_208_">
			<defs>
				<circle id="XMLID_209_" cx="603.3" cy="938.3" r="45"/>
			</defs>
			<clipPath id="XMLID_373_">
				<use xlink:href="#XMLID_209_"  style="overflow:visible;"/>
			</clipPath>
			<polygon id="XMLID_210_" class="st78" points="558.3,983.3 603.3,983.3 558.3,983.3 			"/>
			<polygon id="XMLID_211_" class="st78" points="558.3,979 648.4,979 648.4,983.3 603.3,983.3 558.3,983.3 			"/>
			<rect id="XMLID_212_" x="558.3" y="974.7" class="st79" width="90.1" height="4.3"/>
			<rect id="XMLID_213_" x="558.3" y="970.4" class="st80" width="90.1" height="4.3"/>
			<rect id="XMLID_214_" x="558.3" y="966.2" class="st81" width="90.1" height="4.3"/>
			<rect id="XMLID_215_" x="558.3" y="961.9" class="st82" width="90.1" height="4.3"/>
			<rect id="XMLID_216_" x="558.3" y="957.6" class="st83" width="90.1" height="4.3"/>
			<rect id="XMLID_217_" x="558.3" y="953.3" class="st84" width="90.1" height="4.3"/>
			<rect id="XMLID_218_" x="558.3" y="949" class="st85" width="90.1" height="4.3"/>
			<rect id="XMLID_219_" x="558.3" y="944.7" class="st86" width="90.1" height="4.3"/>
			<rect id="XMLID_220_" x="558.3" y="940.4" class="st87" width="90.1" height="4.3"/>
			<rect id="XMLID_221_" x="558.3" y="936.1" class="st88" width="90.1" height="4.3"/>
			<rect id="XMLID_222_" x="558.3" y="931.8" class="st89" width="90.1" height="4.3"/>
			<rect id="XMLID_223_" x="558.3" y="927.6" class="st90" width="90.1" height="4.3"/>
			<rect id="XMLID_224_" x="558.3" y="923.3" class="st91" width="90.1" height="4.3"/>
			<rect id="XMLID_225_" x="558.3" y="919" class="st92" width="90.1" height="4.3"/>
			<rect id="XMLID_226_" x="558.3" y="914.7" class="st93" width="90.1" height="4.3"/>
			<rect id="XMLID_227_" x="558.3" y="910.4" class="st94" width="90.1" height="4.3"/>
			<rect id="XMLID_228_" x="558.3" y="906.1" class="st95" width="90.1" height="4.3"/>
			<rect id="XMLID_229_" x="558.3" y="901.8" class="st96" width="90.1" height="4.3"/>
			<rect id="XMLID_230_" x="558.3" y="897.5" class="st97" width="90.1" height="4.3"/>
			<polygon id="XMLID_231_" class="st98" points="603.3,893.2 648.4,893.2 648.4,897.5 558.3,897.5 558.3,893.2 			"/>
			<polygon id="XMLID_232_" class="st98" points="648.4,893.2 603.3,893.2 648.4,893.2 			"/>
		</g>
	</g>
	<g id="XMLID_99_">
		<g id="XMLID_180_">
			<defs>
				<circle id="XMLID_181_" cx="1311" cy="239.4" r="45"/>
			</defs>
			<clipPath id="XMLID_374_">
				<use xlink:href="#XMLID_181_"  style="overflow:visible;"/>
			</clipPath>
			<polygon id="XMLID_182_" class="st99" points="1265.9,284.4 1310.9,284.4 1265.9,284.4 			"/>
			<polygon id="XMLID_183_" class="st99" points="1265.9,280.1 1356,280.1 1356,284.4 1311,284.4 1265.9,284.4 			"/>
			<rect id="XMLID_184_" x="1265.9" y="275.9" class="st100" width="90.1" height="4.3"/>
			<rect id="XMLID_185_" x="1265.9" y="271.6" class="st101" width="90.1" height="4.3"/>
			<rect id="XMLID_186_" x="1265.9" y="267.3" class="st102" width="90.1" height="4.3"/>
			<rect id="XMLID_187_" x="1265.9" y="263" class="st103" width="90.1" height="4.3"/>
			<rect id="XMLID_188_" x="1265.9" y="258.7" class="st104" width="90.1" height="4.3"/>
			<rect id="XMLID_189_" x="1265.9" y="254.4" class="st105" width="90.1" height="4.3"/>
			<rect id="XMLID_190_" x="1265.9" y="250.1" class="st106" width="90.1" height="4.3"/>
			<rect id="XMLID_191_" x="1265.9" y="245.8" class="st107" width="90.1" height="4.3"/>
			<rect id="XMLID_192_" x="1265.9" y="241.5" class="st108" width="90.1" height="4.3"/>
			<rect id="XMLID_193_" x="1265.9" y="237.3" class="st109" width="90.1" height="4.3"/>
			<rect id="XMLID_194_" x="1265.9" y="233" class="st110" width="90.1" height="4.3"/>
			<rect id="XMLID_195_" x="1265.9" y="228.7" class="st111" width="90.1" height="4.3"/>
			<rect id="XMLID_196_" x="1265.9" y="224.4" class="st112" width="90.1" height="4.3"/>
			<rect id="XMLID_197_" x="1265.9" y="220.1" class="st113" width="90.1" height="4.3"/>
			<rect id="XMLID_198_" x="1265.9" y="215.8" class="st114" width="90.1" height="4.3"/>
			<rect id="XMLID_199_" x="1265.9" y="211.5" class="st115" width="90.1" height="4.3"/>
			<rect id="XMLID_200_" x="1265.9" y="207.2" class="st116" width="90.1" height="4.3"/>
			<rect id="XMLID_201_" x="1265.9" y="202.9" class="st117" width="90.1" height="4.3"/>
			<rect id="XMLID_205_" x="1265.9" y="198.7" class="st118" width="90.1" height="4.3"/>
			<polygon id="XMLID_206_" class="st119" points="1311,194.4 1356,194.4 1356,198.7 1265.9,198.7 1265.9,194.4 			"/>
			<polygon id="XMLID_207_" class="st119" points="1356,194.4 1311,194.4 1356,194.4 			"/>
		</g>
	</g>
	<g id="XMLID_129_">
		<g id="XMLID_155_">
			<defs>
				<circle id="XMLID_156_" cx="1134.8" cy="928.3" r="74.2"/>
			</defs>
			<clipPath id="XMLID_375_">
				<use xlink:href="#XMLID_156_"  style="overflow:visible;"/>
			</clipPath>
			<polygon id="XMLID_157_" class="st120" points="1060.6,1002.5 1134.8,1002.5 1060.6,1002.5 			"/>
			<polygon id="XMLID_158_" class="st120" points="1060.6,995.5 1209.1,995.5 1209.1,1002.5 1134.8,1002.5 1060.6,1002.5 			"/>
			<rect id="XMLID_159_" x="1060.6" y="988.4" class="st121" width="148.5" height="7.1"/>
			<rect id="XMLID_160_" x="1060.6" y="981.3" class="st122" width="148.5" height="7.1"/>
			<rect id="XMLID_161_" x="1060.6" y="974.3" class="st123" width="148.5" height="7.1"/>
			<rect id="XMLID_162_" x="1060.6" y="967.2" class="st124" width="148.5" height="7.1"/>
			<rect id="XMLID_163_" x="1060.6" y="960.1" class="st125" width="148.5" height="7.1"/>
			<rect id="XMLID_164_" x="1060.6" y="953" class="st126" width="148.5" height="7.1"/>
			<rect id="XMLID_165_" x="1060.6" y="946" class="st127" width="148.5" height="7.1"/>
			<rect id="XMLID_166_" x="1060.6" y="938.9" class="st128" width="148.5" height="7.1"/>
			<rect id="XMLID_167_" x="1060.6" y="931.8" class="st129" width="148.5" height="7.1"/>
			<rect id="XMLID_168_" x="1060.6" y="924.8" class="st130" width="148.5" height="7.1"/>
			<rect id="XMLID_169_" x="1060.6" y="917.7" class="st131" width="148.5" height="7.1"/>
			<rect id="XMLID_170_" x="1060.6" y="910.6" class="st132" width="148.5" height="7.1"/>
			<rect id="XMLID_171_" x="1060.6" y="903.5" class="st133" width="148.5" height="7.1"/>
			<rect id="XMLID_172_" x="1060.6" y="896.5" class="st134" width="148.5" height="7.1"/>
			<rect id="XMLID_173_" x="1060.6" y="889.4" class="st135" width="148.5" height="7.1"/>
			<rect id="XMLID_174_" x="1060.6" y="882.3" class="st136" width="148.5" height="7.1"/>
			<rect id="XMLID_175_" x="1060.6" y="875.3" class="st137" width="148.5" height="7.1"/>
			<rect id="XMLID_176_" x="1060.6" y="868.2" class="st138" width="148.5" height="7.1"/>
			<rect id="XMLID_177_" x="1060.6" y="861.1" class="st139" width="148.5" height="7.1"/>
			<polygon id="XMLID_178_" class="st140" points="1134.8,854.1 1209.1,854.1 1209.1,861.1 1060.6,861.1 1060.6,854.1 			"/>
			<polygon id="XMLID_179_" class="st140" points="1209.1,854.1 1134.8,854.1 1209.1,854.1 			"/>
		</g>
	</g>
</g>
</svg>
