<?xml version="1.0" encoding="utf-8"?>
<!-- Generator: Adobe Illustrator 19.0.0, SVG Export Plug-In . SVG Version: 6.00 Build 0)  -->
<svg version="1.1" id="Layer_1" xmlns="http://www.w3.org/2000/svg" xmlns:xlink="http://www.w3.org/1999/xlink" x="0px" y="0px"
	 viewBox="0 0 1900 1200" style="enable-background:new 0 0 1900 1200;" xml:space="preserve">
<style type="text/css">
	.st0{fill:#FFFFFF;}
	.st1{fill:none;}
	.st2{fill:#B9C6D6;}
	.st3{opacity:0.5;clip-path:url(#XMLID_20_);}
	.st4{fill:#D6DEEA;}
	.st5{clip-path:url(#XMLID_27_);}
	.st6{clip-path:url(#XMLID_28_);}
	.st7{clip-path:url(#XMLID_29_);}
	.st8{fill:#97A4B7;}
	.st9{fill:#FF895A;}
	.st10{opacity:0.35;fill:#7C2323;}
	.st11{opacity:0.25;fill:#7C2323;}
	.st12{fill:#FFE36E;}
	.st13{fill:#2BBA7C;}
	.st14{opacity:0.15;fill:#7C2323;}
	.st15{opacity:0.25;fill:#931B0A;}
	.st16{opacity:0.15;fill:#00407F;}
	.st17{fill:#E47A54;}
</style>
<path id="XMLID_22_" class="st0" d="M1229,1105.9H671c-128.7,0-233-104.3-233-233v-558c0-128.7,104.3-233,233-233h558
	c128.7,0,233,104.3,233,233v558C1462,1001.6,1357.7,1105.9,1229,1105.9z"/>
<path id="XMLID_35_" class="st1" d="M1229,1110.5H671c-128.7,0-233-104.3-233-233v-558c0-128.7,104.3-233,233-233h558
	c128.7,0,233,104.3,233,233v558C1462,1006.1,1357.7,1110.5,1229,1110.5z"/>
<path id="XMLID_100_" class="st1" d="M1229,1110.5H671c-128.7,0-233-104.3-233-233v-558c0-128.7,104.3-233,233-233h558
	c128.7,0,233,104.3,233,233v558C1462,1006.1,1357.7,1110.5,1229,1110.5z"/>
<path id="XMLID_102_" class="st1" d="M1229,1110.5H671c-128.7,0-233-104.3-233-233v-558c0-128.7,104.3-233,233-233h558
	c128.7,0,233,104.3,233,233v558C1462,1006.1,1357.7,1110.5,1229,1110.5z"/>
<path id="XMLID_99_" class="st1" d="M1229,1110.5H671c-128.7,0-233-104.3-233-233v-558c0-128.7,104.3-233,233-233h558
	c128.7,0,233,104.3,233,233v558C1462,1006.1,1357.7,1110.5,1229,1110.5z"/>
<path id="XMLID_150_" class="st2" d="M164.1,878.7"/>
<path id="XMLID_149_" class="st2" d="M478.3,878.7"/>
<g id="XMLID_152_">
	<defs>
		<path id="XMLID_147_" d="M1229,1105.9H671c-128.7,0-233-104.3-233-233v-558c0-128.7,104.3-233,233-233h558
			c128.7,0,233,104.3,233,233v558C1462,1001.6,1357.7,1105.9,1229,1105.9z"/>
	</defs>
	<clipPath id="XMLID_20_">
		<use xlink:href="#XMLID_147_"  style="overflow:visible;"/>
	</clipPath>
	<g id="XMLID_125_" class="st3">
		<g id="XMLID_104_">
			<g id="XMLID_116_">
				<g id="XMLID_122_">
					<path id="XMLID_124_" class="st4" d="M313.5,185.2v40c0,25.2,20.6,45.8,45.8,45.8h0c25.2,0,45.8-20.6,45.8-45.8v-40
						c0-7.6-4.4-14.5-11.4-17.7c-7.7-3.6-19.3-7.2-34.4-7.2s-26.7,3.6-34.4,7.2C317.9,170.6,313.5,177.6,313.5,185.2z"/>
					<path id="XMLID_123_" class="st4" d="M453.6,380.8H268.8l18.1-77.3c2.4-10,11.3-17.1,21.6-17.1h101.3c9.9,0,18.6,6.6,21.3,16.1
						L453.6,380.8z"/>
				</g>
				<g id="XMLID_119_">
					<path id="XMLID_121_" class="st4" d="M461,184.8v40c0,25.2,20.6,45.8,45.8,45.8h0c25.2,0,45.8-20.6,45.8-45.8v-40
						c0-7.6-4.4-14.5-11.4-17.7c-7.7-3.6-19.3-7.2-34.4-7.2c-15.1,0-26.7,3.6-34.4,7.2C465.4,170.2,461,177.2,461,184.8z"/>
					<path id="XMLID_120_" class="st4" d="M601,380.4H416.3l18.1-77.3c2.4-10,11.3-17.1,21.6-17.1h101.3c9.9,0,18.6,6.6,21.3,16.1
						L601,380.4z"/>
				</g>
				<path id="XMLID_118_" class="st4" d="M166.1,184.8v40c0,25.2,20.6,45.8,45.8,45.8h0c25.2,0,45.8-20.6,45.8-45.8v-40
					c0-7.6-4.4-14.5-11.4-17.7c-7.7-3.6-19.3-7.2-34.4-7.2c-15.1,0-26.7,3.6-34.4,7.2C170.5,170.2,166.1,177.2,166.1,184.8z"/>
				<path id="XMLID_117_" class="st4" d="M303.8,380.4H119.1l18.1-77.3c2.4-10,11.3-17.1,21.6-17.1h101.3c9.9,0,18.6,6.6,21.3,16.1
					L303.8,380.4z"/>
			</g>
			<g id="XMLID_109_">
				<g id="XMLID_113_">
					<path id="XMLID_115_" class="st4" d="M608.2,185.2v40c0,25.2,20.6,45.8,45.8,45.8h0c25.2,0,45.8-20.6,45.8-45.8v-40
						c0-7.6-4.4-14.5-11.4-17.7c-7.7-3.6-19.3-7.2-34.4-7.2c-15.1,0-26.7,3.6-34.4,7.2C612.6,170.6,608.2,177.6,608.2,185.2z"/>
					<path id="XMLID_114_" class="st4" d="M748.2,380.8H563.5l18.1-77.3c2.4-10,11.3-17.1,21.6-17.1h101.3c9.9,0,18.6,6.6,21.3,16.1
						L748.2,380.8z"/>
				</g>
				<g id="XMLID_110_">
					<path id="XMLID_112_" class="st4" d="M755.6,184.8v40c0,25.2,20.6,45.8,45.8,45.8h0c25.2,0,45.8-20.6,45.8-45.8v-40
						c0-7.6-4.4-14.5-11.4-17.7c-7.7-3.6-19.3-7.2-34.4-7.2s-26.7,3.6-34.4,7.2C760.1,170.2,755.6,177.2,755.6,184.8z"/>
					<path id="XMLID_111_" class="st4" d="M895.7,380.4H711l18.1-77.3c2.4-10,11.3-17.1,21.6-17.1h101.3c9.9,0,18.6,6.6,21.3,16.1
						L895.7,380.4z"/>
				</g>
			</g>
			<g id="XMLID_105_">
				<g id="XMLID_106_">
					<path id="XMLID_108_" class="st4" d="M903.1,184.8v40c0,25.2,20.6,45.8,45.8,45.8h0c25.2,0,45.8-20.6,45.8-45.8v-40
						c0-7.6-4.4-14.5-11.4-17.7c-7.7-3.6-19.3-7.2-34.4-7.2s-26.7,3.6-34.4,7.2C907.5,170.2,903.1,177.2,903.1,184.8z"/>
					<path id="XMLID_107_" class="st4" d="M1043.1,380.4H858.4l18.1-77.3c2.4-10,11.3-17.1,21.6-17.1h101.3
						c9.9,0,18.6,6.6,21.3,16.1L1043.1,380.4z"/>
				</g>
			</g>
		</g>
		<g id="XMLID_126_">
			<g id="XMLID_138_">
				<g id="XMLID_144_">
					<path id="XMLID_146_" class="st4" d="M1051.3,185.2v40c0,25.2,20.6,45.8,45.8,45.8h0c25.2,0,45.8-20.6,45.8-45.8v-40
						c0-7.6-4.4-14.5-11.4-17.7c-7.7-3.6-19.3-7.2-34.4-7.2c-15.1,0-26.7,3.6-34.4,7.2C1055.7,170.6,1051.3,177.6,1051.3,185.2z"/>
					<path id="XMLID_145_" class="st4" d="M1191.3,380.8h-184.7l18.1-77.3c2.4-10,11.3-17.1,21.6-17.1h101.3
						c9.9,0,18.6,6.6,21.3,16.1L1191.3,380.8z"/>
				</g>
				<g id="XMLID_141_">
					<path id="XMLID_143_" class="st4" d="M1198.7,184.8v40c0,25.2,20.6,45.8,45.8,45.8h0c25.2,0,45.8-20.6,45.8-45.8v-40
						c0-7.6-4.4-14.5-11.4-17.7c-7.7-3.6-19.3-7.2-34.4-7.2s-26.7,3.6-34.4,7.2C1203.2,170.2,1198.7,177.2,1198.7,184.8z"/>
					<path id="XMLID_142_" class="st4" d="M1338.8,380.4h-184.7l18.1-77.3c2.4-10,11.3-17.1,21.6-17.1H1295
						c9.9,0,18.6,6.6,21.3,16.1L1338.8,380.4z"/>
				</g>
				<path id="XMLID_140_" class="st4" d="M903.8,184.8v40c0,25.2,20.6,45.8,45.8,45.8h0c25.2,0,45.8-20.6,45.8-45.8v-40
					c0-7.6-4.4-14.5-11.4-17.7c-7.7-3.6-19.3-7.2-34.4-7.2s-26.7,3.6-34.4,7.2C908.3,170.2,903.8,177.2,903.8,184.8z"/>
				<path id="XMLID_139_" class="st4" d="M1041.6,380.4H856.9l18.1-77.3c2.4-10,11.3-17.1,21.6-17.1h101.3c9.9,0,18.6,6.6,21.3,16.1
					L1041.6,380.4z"/>
			</g>
			<g id="XMLID_131_">
				<g id="XMLID_135_">
					<path id="XMLID_137_" class="st4" d="M1345.9,185.2v40c0,25.2,20.6,45.8,45.8,45.8h0c25.2,0,45.8-20.6,45.8-45.8v-40
						c0-7.6-4.4-14.5-11.4-17.7c-7.7-3.6-19.3-7.2-34.4-7.2c-15.1,0-26.7,3.6-34.4,7.2C1350.4,170.6,1345.9,177.6,1345.9,185.2z"/>
					<path id="XMLID_136_" class="st4" d="M1486,380.8h-184.7l18.1-77.3c2.4-10,11.3-17.1,21.6-17.1h101.3c9.9,0,18.6,6.6,21.3,16.1
						L1486,380.8z"/>
				</g>
				<g id="XMLID_132_">
					<path id="XMLID_134_" class="st4" d="M1493.4,184.8v40c0,25.2,20.6,45.8,45.8,45.8h0c25.2,0,45.8-20.6,45.8-45.8v-40
						c0-7.6-4.4-14.5-11.4-17.7c-7.7-3.6-19.3-7.2-34.4-7.2s-26.7,3.6-34.4,7.2C1497.8,170.2,1493.4,177.2,1493.4,184.8z"/>
					<path id="XMLID_133_" class="st4" d="M1633.5,380.4h-184.7l18.1-77.3c2.4-10,11.3-17.1,21.6-17.1h101.3
						c9.9,0,18.6,6.6,21.3,16.1L1633.5,380.4z"/>
				</g>
			</g>
			<g id="XMLID_127_">
				<g id="XMLID_128_">
					<path id="XMLID_130_" class="st4" d="M1640.8,184.8v40c0,25.2,20.6,45.8,45.8,45.8h0c25.2,0,45.8-20.6,45.8-45.8v-40
						c0-7.6-4.4-14.5-11.4-17.7c-7.7-3.6-19.3-7.2-34.4-7.2s-26.7,3.6-34.4,7.2C1645.3,170.2,1640.8,177.2,1640.8,184.8z"/>
					<path id="XMLID_129_" class="st4" d="M1780.9,380.4h-184.7l18.1-77.3c2.4-10,11.3-17.1,21.6-17.1h101.3
						c9.9,0,18.6,6.6,21.3,16.1L1780.9,380.4z"/>
				</g>
			</g>
		</g>
		<rect id="XMLID_153_" x="119.1" y="380.4" class="st4" width="1661.8" height="190"/>
	</g>
</g>
<g id="XMLID_155_">
	<defs>
		<path id="XMLID_154_" d="M1229,1105.9H671c-128.7,0-233-104.3-233-233v-558c0-128.7,104.3-233,233-233h558
			c128.7,0,233,104.3,233,233v558C1462,1001.6,1357.7,1105.9,1229,1105.9z"/>
	</defs>
	<clipPath id="XMLID_27_">
		<use xlink:href="#XMLID_154_"  style="overflow:visible;"/>
	</clipPath>
	<g id="XMLID_151_" class="st5">
		<g id="XMLID_78_">
			<g id="XMLID_90_">
				<g id="XMLID_96_">
					<path id="XMLID_98_" class="st4" d="M602.1,349.9v52c0,32.8,26.8,59.6,59.6,59.6h0c32.8,0,59.6-26.8,59.6-59.6v-52
						c0-9.9-5.8-18.9-14.8-23c-10.1-4.6-25.1-9.3-44.8-9.3c-19.6,0-34.7,4.7-44.8,9.3C607.8,331,602.1,340,602.1,349.9z"/>
					<path id="XMLID_97_" class="st4" d="M784.2,604.2H544l23.6-100.5c3.1-13,14.7-22.3,28.1-22.3h131.6c12.9,0,24.2,8.5,27.7,20.9
						L784.2,604.2z"/>
				</g>
				<g id="XMLID_93_">
					<path id="XMLID_95_" class="st4" d="M793.8,349.3v52c0,32.8,26.8,59.6,59.6,59.6h0c32.8,0,59.6-26.8,59.6-59.6v-52
						c0-9.9-5.8-18.9-14.8-23c-10.1-4.6-25.1-9.3-44.8-9.3s-34.7,4.7-44.8,9.3C799.6,330.4,793.8,339.4,793.8,349.3z"/>
					<path id="XMLID_94_" class="st4" d="M975.9,603.7H735.7l23.6-100.5c3.1-13,14.7-22.3,28.1-22.3H919c12.9,0,24.2,8.5,27.7,20.9
						L975.9,603.7z"/>
				</g>
				<path id="XMLID_92_" class="st4" d="M410.4,349.3v52c0,32.8,26.8,59.6,59.6,59.6h0c32.8,0,59.6-26.8,59.6-59.6v-52
					c0-9.9-5.8-18.9-14.8-23c-10.1-4.6-25.1-9.3-44.8-9.3c-19.6,0-34.7,4.7-44.8,9.3C416.1,330.4,410.4,339.4,410.4,349.3z"/>
				<path id="XMLID_91_" class="st4" d="M589.5,603.7H349.3l23.6-100.5c3.1-13,14.7-22.3,28.1-22.3h131.6c12.9,0,24.2,8.5,27.7,20.9
					L589.5,603.7z"/>
			</g>
			<g id="XMLID_83_">
				<g id="XMLID_87_">
					<path id="XMLID_89_" class="st4" d="M985.2,349.9v52c0,32.8,26.8,59.6,59.6,59.6h0c32.8,0,59.6-26.8,59.6-59.6v-52
						c0-9.9-5.8-18.9-14.8-23c-10.1-4.6-25.1-9.3-44.8-9.3c-19.6,0-34.7,4.7-44.8,9.3C990.9,331,985.2,340,985.2,349.9z"/>
					<path id="XMLID_88_" class="st4" d="M1167.3,604.2H927.1l23.6-100.5c3.1-13,14.7-22.3,28.1-22.3h131.6
						c12.9,0,24.2,8.5,27.7,20.9L1167.3,604.2z"/>
				</g>
				<g id="XMLID_84_">
					<path id="XMLID_86_" class="st4" d="M1176.9,349.3v52c0,32.8,26.8,59.6,59.6,59.6h0c32.8,0,59.6-26.8,59.6-59.6v-52
						c0-9.9-5.8-18.9-14.8-23c-10.1-4.6-25.1-9.3-44.8-9.3s-34.7,4.7-44.8,9.3C1182.7,330.4,1176.9,339.4,1176.9,349.3z"/>
					<path id="XMLID_85_" class="st4" d="M1359,603.7h-240.2l23.6-100.5c3.1-13,14.7-22.3,28.1-22.3h131.6
						c12.9,0,24.2,8.5,27.7,20.9L1359,603.7z"/>
				</g>
			</g>
			<g id="XMLID_79_">
				<g id="XMLID_80_">
					<path id="XMLID_82_" class="st4" d="M1368.6,349.3v52c0,32.8,26.8,59.6,59.6,59.6h0c32.8,0,59.6-26.8,59.6-59.6v-52
						c0-9.9-5.8-18.9-14.8-23c-10.1-4.6-25.1-9.3-44.8-9.3s-34.7,4.7-44.8,9.3C1374.4,330.4,1368.6,339.4,1368.6,349.3z"/>
					<path id="XMLID_81_" class="st4" d="M1550.7,603.7h-240.2l23.6-100.5c3.1-13,14.7-22.3,28.1-22.3h131.6
						c12.9,0,24.2,8.5,27.7,20.9L1550.7,603.7z"/>
				</g>
			</g>
		</g>
		<rect id="XMLID_103_" x="349.3" y="603.7" class="st4" width="1189.9" height="170"/>
	</g>
</g>
<g id="XMLID_157_">
	<defs>
		<path id="XMLID_156_" d="M1229,1102.5H671c-128.7,0-233-104.3-233-233v-558c0-128.7,104.3-233,233-233h558
			c128.7,0,233,104.3,233,233v558C1462,998.2,1357.7,1102.5,1229,1102.5z"/>
	</defs>
	<clipPath id="XMLID_28_">
		<use xlink:href="#XMLID_156_"  style="overflow:visible;"/>
	</clipPath>
	<g id="XMLID_148_" class="st6">
		<g id="XMLID_77_">
			<g id="XMLID_31_">
				<g id="XMLID_63_">
					<path id="XMLID_65_" class="st2" d="M494.8,543.2v68c0,42.9,35.1,77.9,77.9,77.9h0c42.9,0,77.9-35.1,77.9-77.9v-68
						c0-13-7.6-24.7-19.3-30.1c-13.2-6-32.9-12.2-58.6-12.2c-25.7,0-45.4,6.2-58.6,12.2C502.3,518.5,494.8,530.3,494.8,543.2z"/>
					<path id="XMLID_64_" class="st2" d="M733,876H418.8l30.8-131.5c4-17.1,19.2-29.1,36.7-29.1h172.2c16.8,0,31.7,11.2,36.3,27.4
						L733,876z"/>
				</g>
				<g id="XMLID_60_">
					<path id="XMLID_62_" class="st2" d="M745.6,542.5v68c0,42.9,35.1,77.9,77.9,77.9h0c42.9,0,77.9-35.1,77.9-77.9v-68
						c0-13-7.6-24.7-19.3-30.1c-13.2-6-32.9-12.2-58.6-12.2c-25.7,0-45.4,6.2-58.6,12.2C753.2,517.8,745.6,529.6,745.6,542.5z"/>
					<path id="XMLID_61_" class="st2" d="M983.9,875.3H669.6l30.8-131.5c4-17.1,19.2-29.1,36.7-29.1h172.2
						c16.8,0,31.7,11.2,36.3,27.4L983.9,875.3z"/>
				</g>
				<path id="XMLID_59_" class="st2" d="M244,542.5v68c0,42.9,35.1,77.9,77.9,77.9h0c42.9,0,77.9-35.1,77.9-77.9v-68
					c0-13-7.6-24.7-19.3-30.1c-13.2-6-32.9-12.2-58.6-12.2c-25.7,0-45.4,6.2-58.6,12.2C251.5,517.8,244,529.6,244,542.5z"/>
				<path id="XMLID_58_" class="st2" d="M478.3,875.3H164.1l30.8-131.5c4-17.1,19.2-29.1,36.7-29.1h172.2
					c16.8,0,31.7,11.2,36.3,27.4L478.3,875.3z"/>
			</g>
			<g id="XMLID_67_">
				<g id="XMLID_73_">
					<path id="XMLID_75_" class="st2" d="M996,543.2v68c0,42.9,35.1,77.9,77.9,77.9h0c42.9,0,77.9-35.1,77.9-77.9v-68
						c0-13-7.6-24.7-19.3-30.1c-13.2-6-32.9-12.2-58.6-12.2s-45.4,6.2-58.6,12.2C1003.6,518.5,996,530.3,996,543.2z"/>
					<path id="XMLID_74_" class="st2" d="M1234.3,876H920l30.8-131.5c4-17.1,19.2-29.1,36.7-29.1h172.2c16.8,0,31.7,11.2,36.3,27.4
						L1234.3,876z"/>
				</g>
				<g id="XMLID_70_">
					<path id="XMLID_72_" class="st2" d="M1247.7,543.3v68c0,42.9,35.1,77.9,77.9,77.9h0c42.9,0,77.9-35.1,77.9-77.9v-68
						c0-13-7.6-24.7-19.3-30.1c-13.2-6-32.9-12.2-58.6-12.2c-25.7,0-45.4,6.2-58.6,12.2C1255.2,518.6,1247.7,530.3,1247.7,543.3z"/>
					<path id="XMLID_71_" class="st2" d="M1485.1,875.3h-314.2l30.8-131.5c4-17.1,19.2-29.1,36.7-29.1h172.2
						c16.8,0,31.7,11.2,36.3,27.4L1485.1,875.3z"/>
				</g>
			</g>
			<g id="XMLID_66_">
				<g id="XMLID_68_">
					<path id="XMLID_76_" class="st2" d="M1497.7,542.5v68c0,42.9,35.1,77.9,77.9,77.9h0c42.9,0,77.9-35.1,77.9-77.9v-68
						c0-13-7.6-24.7-19.3-30.1c-13.2-6-32.9-12.2-58.6-12.2s-45.4,6.2-58.6,12.2C1505.2,517.8,1497.7,529.6,1497.7,542.5z"/>
					<path id="XMLID_69_" class="st2" d="M1735.9,875.3h-314.2l30.8-131.5c4-17.1,19.2-29.1,36.7-29.1h172.2
						c16.8,0,31.7,11.2,36.3,27.4L1735.9,875.3z"/>
				</g>
			</g>
		</g>
		<rect id="XMLID_101_" x="164.1" y="875" class="st2" width="1571.8" height="109.3"/>
	</g>
</g>
<path id="XMLID_36_" class="st1" d="M1229,1110.5H671c-128.7,0-233-104.3-233-233v-558c0-128.7,104.3-233,233-233h558
	c128.7,0,233,104.3,233,233v558C1462,1006.1,1357.7,1110.5,1229,1110.5z"/>
<g id="XMLID_25_">
	<defs>
		<path id="XMLID_11_" d="M1229,1105.9H671c-128.7,0-233-104.3-233-233v-558c0-128.7,104.3-233,233-233h558
			c128.7,0,233,104.3,233,233v558C1462,1001.6,1357.7,1105.9,1229,1105.9z"/>
	</defs>
	<clipPath id="XMLID_29_">
		<use xlink:href="#XMLID_11_"  style="overflow:visible;"/>
	</clipPath>
	<g id="XMLID_24_" class="st7">
		<g id="XMLID_26_">
			<g id="XMLID_203_">
				<g id="XMLID_242_">
					<path id="XMLID_244_" class="st8" d="M499.4,681.9v92.3c0,58.2,47.6,105.8,105.8,105.8h0c58.2,0,105.8-47.6,105.8-105.8v-92.3
						c0-17.6-10.3-33.6-26.3-40.9c-17.9-8.2-44.7-16.6-79.6-16.6c-34.9,0-61.7,8.4-79.6,16.6C509.7,648.3,499.4,664.3,499.4,681.9z"
						/>
					<path id="XMLID_243_" class="st8" d="M823,1133.9H396.2l41.9-178.7c5.4-23.2,26.1-39.6,49.9-39.6H722c22.9,0,43,15.2,49.3,37.2
						L823,1133.9z"/>
				</g>
				<g id="XMLID_239_">
					<path id="XMLID_241_" class="st8" d="M840.1,681v92.3c0,58.2,47.6,105.8,105.8,105.8h0c58.2,0,105.8-47.6,105.8-105.8V681
						c0-17.6-10.3-33.6-26.3-40.9c-17.9-8.2-44.7-16.6-79.6-16.6c-34.9,0-61.7,8.4-79.6,16.6C850.3,647.4,840.1,663.4,840.1,681z"/>
					<path id="XMLID_240_" class="st8" d="M1163.7,1133H736.9l41.9-178.7c5.4-23.2,26.1-39.6,49.9-39.6h233.9
						c22.9,0,43,15.2,49.3,37.2L1163.7,1133z"/>
				</g>
			</g>
			<g id="XMLID_32_">
				<g id="XMLID_38_">
					<path id="XMLID_189_" class="st8" d="M1180.2,681.9v92.3c0,58.2,47.6,105.8,105.8,105.8h0c58.2,0,105.8-47.6,105.8-105.8v-92.3
						c0-17.6-10.3-33.6-26.3-40.9c-17.9-8.2-44.7-16.6-79.6-16.6c-34.9,0-61.7,8.4-79.6,16.6
						C1190.4,648.3,1180.2,664.3,1180.2,681.9z"/>
					<path id="XMLID_57_" class="st8" d="M1503.8,1133.9H1077l41.9-178.7c5.4-23.2,26.1-39.6,49.9-39.6h233.9
						c22.9,0,43,15.2,49.3,37.2L1503.8,1133.9z"/>
				</g>
			</g>
		</g>
	</g>
</g>
<g id="XMLID_2_">
	<path id="XMLID_160_" class="st9" d="M1248.4,839.4H679.3c-18.8,0-34-15.2-34-34V429.8c0-18.8,15.2-34,34-34h569.1
		c18.8,0,34,15.2,34,34v375.6C1282.3,824.2,1267.1,839.4,1248.4,839.4z"/>
	<path id="XMLID_172_" class="st10" d="M1248.4,839.4H679.3c-18.8,0-34-15.2-34-34V429.8c0-18.8,15.2-34,34-34h569.1
		c18.8,0,34,15.2,34,34v375.6C1282.3,824.2,1267.1,839.4,1248.4,839.4z"/>
	<path id="XMLID_163_" class="st11" d="M1176.4,395.8h-44.6c31,0,56.1,25.1,56.1,56.1v331.3c0,31-25.1,56.1-56.1,56.1h44.6
		c31,0,56.1-25.1,56.1-56.1V451.9C1232.5,420.9,1207.4,395.8,1176.4,395.8z"/>
	<path id="XMLID_162_" class="st9" d="M1391.5,688.9h-109.2V546.2h109.2c10.7,0,19.5,8.7,19.5,19.5v103.8
		C1411,680.2,1402.3,688.9,1391.5,688.9z"/>
	<circle id="XMLID_164_" class="st12" cx="1346.7" cy="617.6" r="27.2"/>
	<g id="XMLID_181_">
		
			<rect id="XMLID_187_" x="643.8" y="275.2" transform="matrix(0.9971 -7.557349e-02 7.557349e-02 0.9971 -31.0525 69.2297)" class="st13" width="510.9" height="339.4"/>
		<path id="XMLID_186_" class="st0" d="M1063.5,262.3c3.2,42.8,40.6,74.9,83.5,71.7l-5.9-77.6L1063.5,262.3z"/>
		<path id="XMLID_185_" class="st0" d="M637.6,372.6c42.8-3.2,74.9-40.6,71.7-83.5l-77.6,5.9L637.6,372.6z"/>
		<path id="XMLID_184_" class="st0" d="M651.5,555.9l5.9,77.6l77.6-5.9C731.7,584.7,694.3,552.6,651.5,555.9z"/>
		<path id="XMLID_183_" class="st0" d="M1160.9,517.3c-42.8,3.2-74.9,40.6-71.7,83.5l77.6-5.9L1160.9,517.3z"/>
		
			<ellipse id="XMLID_182_" transform="matrix(0.9971 -7.557349e-02 7.557349e-02 0.9971 -31.0525 69.2297)" class="st0" cx="899.2" cy="444.9" rx="168.6" ry="110.3"/>
	</g>
	<g id="XMLID_166_">
		<rect id="XMLID_159_" x="619.5" y="319.5" class="st13" width="510.9" height="339.4"/>
		<path id="XMLID_171_" class="st0" d="M1052.6,319.5c0,43,34.8,77.8,77.8,77.8v-77.8H1052.6z"/>
		<path id="XMLID_170_" class="st0" d="M619.5,397.3c43,0,77.8-34.8,77.8-77.8h-77.8V397.3z"/>
		<path id="XMLID_169_" class="st0" d="M619.5,581.1v77.8h77.8C697.3,615.9,662.5,581.1,619.5,581.1z"/>
		<path id="XMLID_168_" class="st0" d="M1130.4,581.1c-43,0-77.8,34.8-77.8,77.8h77.8V581.1z"/>
		<ellipse id="XMLID_165_" class="st0" cx="875" cy="489.2" rx="168.6" ry="110.3"/>
	</g>
	<path id="XMLID_158_" class="st9" d="M1169.1,839.4H600c-18.8,0-34-15.2-34-34V429.8c0-18.8,15.2-34,34-34h569.1
		c18.8,0,34,15.2,34,34v375.6C1203,824.2,1187.8,839.4,1169.1,839.4z"/>
	<circle id="XMLID_161_" class="st14" cx="1115.3" cy="625.8" r="37.4"/>
	<g id="XMLID_175_">
		<rect id="XMLID_167_" x="1203" y="476.2" class="st15" width="41.3" height="18.2"/>
		<polygon id="XMLID_174_" class="st15" points="1244.4,560.2 1203,560.8 1203,542.6 1244.4,542.1 		"/>
		<rect id="XMLID_177_" x="1203" y="674.7" class="st15" width="41.3" height="18.2"/>
		<rect id="XMLID_176_" x="1203" y="740.8" class="st15" width="41.3" height="18.2"/>
		<rect id="XMLID_173_" x="1203" y="608.7" class="st15" width="41.3" height="18.2"/>
	</g>
	<rect id="XMLID_179_" x="620.9" y="371" class="st16" width="510.9" height="24.8"/>
	<polygon id="XMLID_190_" class="st16" points="633.6,320.1 1145.9,320.1 1144.7,303.7 632.4,304.9 	"/>
	<path id="XMLID_180_" class="st10" d="M1391.5,688.9h-109.2V546.2h109.2c10.7,0,19.5,8.7,19.5,19.5v103.8
		C1411,680.2,1402.3,688.9,1391.5,688.9z"/>
	<rect id="XMLID_188_" x="1282.3" y="546.2" class="st11" width="15.3" height="142.7"/>
	<path id="XMLID_194_" class="st14" d="M1146.9,822.9H622.1c-31,0-56.1-25.1-56.1-56.1v16.5c0,31,25.1,56.1,56.1,56.1h524.8
		c31,0,56.1-25.1,56.1-56.1v-16.5C1203,797.7,1177.9,822.9,1146.9,822.9z"/>
	<path id="XMLID_193_" class="st14" d="M1226.2,822.9h-39.5c-10.2,10.2-24.2,16.5-39.8,16.5h79.3c31,0,56.1-25.1,56.1-56.1v-16.5
		C1282.3,797.7,1257.2,822.9,1226.2,822.9z"/>
	<circle id="XMLID_178_" class="st12" cx="1115.3" cy="617.6" r="37.4"/>
	<path id="XMLID_195_" class="st14" d="M1115.3,595.4c14.2,0,25.8,10.8,27,24.7c0.1-0.8,0.1-1.6,0.1-2.5c0-15-12.2-27.2-27.2-27.2
		s-27.2,12.2-27.2,27.2c0,0.8,0.1,1.7,0.1,2.5C1089.5,606.2,1101.1,595.4,1115.3,595.4z"/>
	<g id="XMLID_191_">
		<g id="XMLID_202_">
			<path id="XMLID_196_" class="st17" d="M566,461h8.3c2.7,0,5,2.2,5,5c0,2.7-2.2,5-5,5H566V461z"/>
		</g>
		<g id="XMLID_201_">
			<path id="XMLID_221_" class="st17" d="M1168.7,470.9h-16.3c-2.7,0-5-2.2-5-5c0-2.7,2.2-5,5-5h16.3c2.7,0,5,2.2,5,5
				C1173.6,468.7,1171.4,470.9,1168.7,470.9z M1126.2,470.9h-16.3c-2.7,0-5-2.2-5-5c0-2.7,2.2-5,5-5h16.3c2.7,0,5,2.2,5,5
				C1131.2,468.7,1128.9,470.9,1126.2,470.9z M1083.7,470.9h-16.3c-2.7,0-5-2.2-5-5c0-2.7,2.2-5,5-5h16.3c2.7,0,5,2.2,5,5
				C1088.7,468.7,1086.5,470.9,1083.7,470.9z M1041.3,470.9H1025c-2.7,0-5-2.2-5-5c0-2.7,2.2-5,5-5h16.3c2.7,0,5,2.2,5,5
				C1046.2,468.7,1044,470.9,1041.3,470.9z M998.8,470.9h-16.3c-2.7,0-5-2.2-5-5c0-2.7,2.2-5,5-5h16.3c2.7,0,5,2.2,5,5
				C1003.8,468.7,1001.6,470.9,998.8,470.9z M956.4,470.9H940c-2.7,0-5-2.2-5-5c0-2.7,2.2-5,5-5h16.3c2.7,0,5,2.2,5,5
				C961.3,468.7,959.1,470.9,956.4,470.9z M913.9,470.9h-16.3c-2.7,0-5-2.2-5-5c0-2.7,2.2-5,5-5h16.3c2.7,0,5,2.2,5,5
				C918.9,468.7,916.7,470.9,913.9,470.9z M871.5,470.9h-16.3c-2.7,0-5-2.2-5-5c0-2.7,2.2-5,5-5h16.3c2.7,0,5,2.2,5,5
				C876.4,468.7,874.2,470.9,871.5,470.9z M829,470.9h-16.3c-2.7,0-5-2.2-5-5c0-2.7,2.2-5,5-5H829c2.7,0,5,2.2,5,5
				C834,468.7,831.7,470.9,829,470.9z M786.5,470.9h-16.3c-2.7,0-5-2.2-5-5c0-2.7,2.2-5,5-5h16.3c2.7,0,5,2.2,5,5
				C791.5,468.7,789.3,470.9,786.5,470.9z M744.1,470.9h-16.3c-2.7,0-5-2.2-5-5c0-2.7,2.2-5,5-5h16.3c2.7,0,5,2.2,5,5
				C749,468.7,746.8,470.9,744.1,470.9z M701.6,470.9h-16.3c-2.7,0-5-2.2-5-5c0-2.7,2.2-5,5-5h16.3c2.7,0,5,2.2,5,5
				C706.6,468.7,704.4,470.9,701.6,470.9z M659.2,470.9h-16.3c-2.7,0-5-2.2-5-5c0-2.7,2.2-5,5-5h16.3c2.7,0,5,2.2,5,5
				C664.1,468.7,661.9,470.9,659.2,470.9z M616.7,470.9h-16.3c-2.7,0-5-2.2-5-5c0-2.7,2.2-5,5-5h16.3c2.7,0,5,2.2,5,5
				C621.7,468.7,619.4,470.9,616.7,470.9z"/>
		</g>
		<g id="XMLID_200_">
			<path id="XMLID_219_" class="st17" d="M1203.1,470.9h-8.3c-2.7,0-5-2.2-5-5c0-2.7,2.2-5,5-5h8.3V470.9z"/>
		</g>
	</g>
	<g id="XMLID_192_">
		<g id="XMLID_199_">
			<path id="XMLID_236_" class="st17" d="M566,764.2h8.3c2.7,0,5,2.2,5,5s-2.2,5-5,5H566V764.2z"/>
		</g>
		<g id="XMLID_198_">
			<path id="XMLID_204_" class="st17" d="M1168.7,774.1h-16.3c-2.7,0-5-2.2-5-5s2.2-5,5-5h16.3c2.7,0,5,2.2,5,5
				S1171.4,774.1,1168.7,774.1z M1126.2,774.1h-16.3c-2.7,0-5-2.2-5-5s2.2-5,5-5h16.3c2.7,0,5,2.2,5,5S1128.9,774.1,1126.2,774.1z
				 M1083.7,774.1h-16.3c-2.7,0-5-2.2-5-5s2.2-5,5-5h16.3c2.7,0,5,2.2,5,5S1086.5,774.1,1083.7,774.1z M1041.3,774.1H1025
				c-2.7,0-5-2.2-5-5s2.2-5,5-5h16.3c2.7,0,5,2.2,5,5S1044,774.1,1041.3,774.1z M998.8,774.1h-16.3c-2.7,0-5-2.2-5-5s2.2-5,5-5h16.3
				c2.7,0,5,2.2,5,5S1001.6,774.1,998.8,774.1z M956.4,774.1H940c-2.7,0-5-2.2-5-5s2.2-5,5-5h16.3c2.7,0,5,2.2,5,5
				S959.1,774.1,956.4,774.1z M913.9,774.1h-16.3c-2.7,0-5-2.2-5-5s2.2-5,5-5h16.3c2.7,0,5,2.2,5,5S916.7,774.1,913.9,774.1z
				 M871.5,774.1h-16.3c-2.7,0-5-2.2-5-5s2.2-5,5-5h16.3c2.7,0,5,2.2,5,5S874.2,774.1,871.5,774.1z M829,774.1h-16.3
				c-2.7,0-5-2.2-5-5s2.2-5,5-5H829c2.7,0,5,2.2,5,5S831.7,774.1,829,774.1z M786.5,774.1h-16.3c-2.7,0-5-2.2-5-5s2.2-5,5-5h16.3
				c2.7,0,5,2.2,5,5S789.3,774.1,786.5,774.1z M744.1,774.1h-16.3c-2.7,0-5-2.2-5-5s2.2-5,5-5h16.3c2.7,0,5,2.2,5,5
				S746.8,774.1,744.1,774.1z M701.6,774.1h-16.3c-2.7,0-5-2.2-5-5s2.2-5,5-5h16.3c2.7,0,5,2.2,5,5S704.4,774.1,701.6,774.1z
				 M659.2,774.1h-16.3c-2.7,0-5-2.2-5-5s2.2-5,5-5h16.3c2.7,0,5,2.2,5,5S661.9,774.1,659.2,774.1z M616.7,774.1h-16.3
				c-2.7,0-5-2.2-5-5s2.2-5,5-5h16.3c2.7,0,5,2.2,5,5S619.4,774.1,616.7,774.1z"/>
		</g>
		<g id="XMLID_197_">
			<path id="XMLID_220_" class="st17" d="M1203.1,774.1h-8.3c-2.7,0-5-2.2-5-5s2.2-5,5-5h8.3V774.1z"/>
		</g>
	</g>
</g>
</svg>
