<?xml version="1.0" encoding="utf-8"?>
<!-- Generator: Adobe Illustrator 19.0.0, SVG Export Plug-In . SVG Version: 6.00 Build 0)  -->
<svg version="1.1" id="Layer_1" xmlns="http://www.w3.org/2000/svg" xmlns:xlink="http://www.w3.org/1999/xlink" x="0px" y="0px"
	 viewBox="0 0 1900 1200" style="enable-background:new 0 0 1900 1200;" xml:space="preserve">
<style type="text/css">
	.st0{fill:#F15E65;}
	.st1{fill:none;}
	.st2{opacity:0.75;}
	.st3{clip-path:url(#XMLID_5_);}
	.st4{fill:#D64C59;}
	.st5{clip-path:url(#XMLID_7_);fill:url(#XMLID_8_);}
	.st6{clip-path:url(#XMLID_7_);}
	.st7{opacity:0.5;fill:url(#XMLID_10_);}
	.st8{opacity:0.5;fill:url(#XMLID_11_);}
	.st9{fill:url(#XMLID_14_);}
	.st10{opacity:0.5;fill:url(#XMLID_15_);}
	.st11{opacity:0.5;fill:url(#XMLID_17_);}
	.st12{fill:url(#XMLID_18_);}
	.st13{fill:#C6C7CE;}
</style>
<g id="XMLID_6_">
	<path id="XMLID_9_" class="st0" d="M1227.3,1110h-558c-128.7,0-233-104.3-233-233V319c0-128.7,104.3-233,233-233h558
		c128.7,0,233,104.3,233,233v558C1460.2,1005.6,1355.9,1110,1227.3,1110z"/>
</g>
<path id="XMLID_3_" class="st1" d="M1229,1110.5H671c-128.7,0-233-104.3-233-233v-558c0-128.7,104.3-233,233-233h558
	c128.7,0,233,104.3,233,233v558C1462,1006.1,1357.7,1110.5,1229,1110.5z"/>
<g id="XMLID_560_" class="st2">
	<defs>
		<path id="XMLID_561_" class="st2" d="M1227.3,1110h-558c-128.7,0-233-104.3-233-233V319c0-128.7,104.3-233,233-233h558
			c128.7,0,233,104.3,233,233v558C1460.2,1005.6,1355.9,1110,1227.3,1110z"/>
	</defs>
	<clipPath id="XMLID_5_">
		<use xlink:href="#XMLID_561_"  style="overflow:visible;"/>
	</clipPath>
	<g id="XMLID_58_" class="st3">
		<g id="XMLID_52_">
			<rect id="XMLID_16_" x="394.9" y="17.8" class="st4" width="149.2" height="190.9"/>
			<g id="XMLID_40_">
				<rect id="XMLID_27_" x="413.7" y="33.6" class="st0" width="114.6" height="12.9"/>
				<rect id="XMLID_53_" x="413.7" y="86.7" class="st0" width="114.6" height="12.9"/>
				<rect id="XMLID_55_" x="413.7" y="108.6" class="st0" width="114.6" height="12.9"/>
				<rect id="XMLID_57_" x="413.7" y="130.9" class="st0" width="114.6" height="12.9"/>
				<rect id="XMLID_30_" x="413.7" y="152.8" class="st0" width="114.6" height="12.9"/>
				<rect id="XMLID_73_" x="413.7" y="174.7" class="st0" width="114.6" height="12.9"/>
				<rect id="XMLID_47_" x="429.1" y="55.5" class="st0" width="83.9" height="12.9"/>
			</g>
		</g>
		<g id="XMLID_72_">
			<rect id="XMLID_83_" x="586.4" y="17.8" class="st4" width="149.2" height="190.9"/>
			<g id="XMLID_74_">
				<rect id="XMLID_82_" x="605.3" y="33.6" class="st0" width="114.6" height="12.9"/>
				<rect id="XMLID_81_" x="605.3" y="86.7" class="st0" width="114.6" height="12.9"/>
				<rect id="XMLID_80_" x="605.3" y="108.6" class="st0" width="114.6" height="12.9"/>
				<rect id="XMLID_79_" x="605.3" y="130.9" class="st0" width="114.6" height="12.9"/>
				<rect id="XMLID_78_" x="605.3" y="152.8" class="st0" width="114.6" height="12.9"/>
				<rect id="XMLID_77_" x="605.3" y="174.7" class="st0" width="114.6" height="12.9"/>
				<rect id="XMLID_76_" x="620.6" y="55.5" class="st0" width="83.9" height="12.9"/>
			</g>
		</g>
		<g id="XMLID_94_">
			<rect id="XMLID_103_" x="394.9" y="260.2" class="st4" width="149.2" height="190.9"/>
			<g id="XMLID_95_">
				<rect id="XMLID_102_" x="413.7" y="275.9" class="st0" width="114.6" height="12.9"/>
				<rect id="XMLID_101_" x="413.7" y="329" class="st0" width="114.6" height="12.9"/>
				<rect id="XMLID_100_" x="413.7" y="350.9" class="st0" width="114.6" height="12.9"/>
				<rect id="XMLID_99_" x="413.7" y="373.3" class="st0" width="114.6" height="12.9"/>
				<rect id="XMLID_98_" x="413.7" y="395.2" class="st0" width="114.6" height="12.9"/>
				<rect id="XMLID_97_" x="413.7" y="417.1" class="st0" width="114.6" height="12.9"/>
				<rect id="XMLID_96_" x="429.1" y="297.8" class="st0" width="83.9" height="12.9"/>
			</g>
		</g>
		<g id="XMLID_84_">
			<rect id="XMLID_93_" x="586.4" y="260.2" class="st4" width="149.2" height="190.9"/>
			<g id="XMLID_85_">
				<rect id="XMLID_92_" x="605.3" y="275.9" class="st0" width="114.6" height="12.9"/>
				<rect id="XMLID_91_" x="605.3" y="329" class="st0" width="114.6" height="12.9"/>
				<rect id="XMLID_90_" x="605.3" y="350.9" class="st0" width="114.6" height="12.9"/>
				<rect id="XMLID_89_" x="605.3" y="373.3" class="st0" width="114.6" height="12.9"/>
				<rect id="XMLID_88_" x="605.3" y="395.2" class="st0" width="114.6" height="12.9"/>
				<rect id="XMLID_87_" x="605.3" y="417.1" class="st0" width="114.6" height="12.9"/>
				<rect id="XMLID_86_" x="620.6" y="297.8" class="st0" width="83.9" height="12.9"/>
			</g>
		</g>
		<g id="XMLID_114_">
			<rect id="XMLID_123_" x="394.9" y="502.5" class="st4" width="149.2" height="190.9"/>
			<g id="XMLID_115_">
				<rect id="XMLID_122_" x="413.7" y="518.3" class="st0" width="114.6" height="12.9"/>
				<rect id="XMLID_121_" x="413.7" y="571.4" class="st0" width="114.6" height="12.9"/>
				<rect id="XMLID_120_" x="413.7" y="593.3" class="st0" width="114.6" height="12.9"/>
				<rect id="XMLID_119_" x="413.7" y="615.7" class="st0" width="114.6" height="12.9"/>
				<rect id="XMLID_118_" x="413.7" y="637.5" class="st0" width="114.6" height="12.9"/>
				<rect id="XMLID_117_" x="413.7" y="659.4" class="st0" width="114.6" height="12.9"/>
				<rect id="XMLID_116_" x="429.1" y="540.2" class="st0" width="83.9" height="12.9"/>
			</g>
		</g>
		<g id="XMLID_104_">
			<rect id="XMLID_113_" x="586.4" y="502.5" class="st4" width="149.2" height="190.9"/>
			<g id="XMLID_105_">
				<rect id="XMLID_112_" x="605.3" y="518.3" class="st0" width="114.6" height="12.9"/>
				<rect id="XMLID_111_" x="605.3" y="571.4" class="st0" width="114.6" height="12.9"/>
				<rect id="XMLID_110_" x="605.3" y="593.3" class="st0" width="114.6" height="12.9"/>
				<rect id="XMLID_109_" x="605.3" y="615.7" class="st0" width="114.6" height="12.9"/>
				<rect id="XMLID_108_" x="605.3" y="637.5" class="st0" width="114.6" height="12.9"/>
				<rect id="XMLID_107_" x="605.3" y="659.4" class="st0" width="114.6" height="12.9"/>
				<rect id="XMLID_106_" x="620.6" y="540.2" class="st0" width="83.9" height="12.9"/>
			</g>
		</g>
		<g id="XMLID_124_">
			<rect id="XMLID_133_" x="586.4" y="744.9" class="st4" width="149.2" height="190.9"/>
			<g id="XMLID_125_">
				<rect id="XMLID_132_" x="605.3" y="760.7" class="st0" width="114.6" height="12.9"/>
				<rect id="XMLID_131_" x="605.3" y="813.8" class="st0" width="114.6" height="12.9"/>
				<rect id="XMLID_130_" x="605.3" y="835.7" class="st0" width="114.6" height="12.9"/>
				<rect id="XMLID_129_" x="605.3" y="858" class="st0" width="114.6" height="12.9"/>
				<rect id="XMLID_128_" x="605.3" y="879.9" class="st0" width="114.6" height="12.9"/>
				<rect id="XMLID_127_" x="605.3" y="901.8" class="st0" width="114.6" height="12.9"/>
				<rect id="XMLID_126_" x="620.6" y="782.6" class="st0" width="83.9" height="12.9"/>
			</g>
		</g>
		<g id="XMLID_216_">
			<rect id="XMLID_225_" x="586.4" y="17.8" class="st4" width="149.2" height="190.9"/>
			<g id="XMLID_217_">
				<rect id="XMLID_224_" x="605.3" y="33.6" class="st0" width="114.6" height="12.9"/>
				<rect id="XMLID_223_" x="605.3" y="86.7" class="st0" width="114.6" height="12.9"/>
				<rect id="XMLID_222_" x="605.3" y="108.6" class="st0" width="114.6" height="12.9"/>
				<rect id="XMLID_221_" x="605.3" y="130.9" class="st0" width="114.6" height="12.9"/>
				<rect id="XMLID_220_" x="605.3" y="152.8" class="st0" width="114.6" height="12.9"/>
				<rect id="XMLID_219_" x="605.3" y="174.7" class="st0" width="114.6" height="12.9"/>
				<rect id="XMLID_218_" x="620.6" y="55.5" class="st0" width="83.9" height="12.9"/>
			</g>
		</g>
		<g id="XMLID_206_">
			<rect id="XMLID_215_" x="777.9" y="17.8" class="st4" width="149.2" height="190.9"/>
			<g id="XMLID_207_">
				<rect id="XMLID_214_" x="796.8" y="33.6" class="st0" width="114.6" height="12.9"/>
				<rect id="XMLID_213_" x="796.8" y="86.7" class="st0" width="114.6" height="12.9"/>
				<rect id="XMLID_212_" x="796.8" y="108.6" class="st0" width="114.6" height="12.9"/>
				<rect id="XMLID_211_" x="796.8" y="130.9" class="st0" width="114.6" height="12.9"/>
				<rect id="XMLID_210_" x="796.8" y="152.8" class="st0" width="114.6" height="12.9"/>
				<rect id="XMLID_209_" x="796.8" y="174.7" class="st0" width="114.6" height="12.9"/>
				<rect id="XMLID_208_" x="812.1" y="55.5" class="st0" width="83.9" height="12.9"/>
			</g>
		</g>
		<g id="XMLID_196_">
			<rect id="XMLID_205_" x="586.4" y="260.2" class="st4" width="149.2" height="190.9"/>
			<g id="XMLID_197_">
				<rect id="XMLID_204_" x="605.3" y="275.9" class="st0" width="114.6" height="12.9"/>
				<rect id="XMLID_203_" x="605.3" y="329" class="st0" width="114.6" height="12.9"/>
				<rect id="XMLID_202_" x="605.3" y="350.9" class="st0" width="114.6" height="12.9"/>
				<rect id="XMLID_201_" x="605.3" y="373.3" class="st0" width="114.6" height="12.9"/>
				<rect id="XMLID_200_" x="605.3" y="395.2" class="st0" width="114.6" height="12.9"/>
				<rect id="XMLID_199_" x="605.3" y="417.1" class="st0" width="114.6" height="12.9"/>
				<rect id="XMLID_198_" x="620.6" y="297.8" class="st0" width="83.9" height="12.9"/>
			</g>
		</g>
		<g id="XMLID_186_">
			<rect id="XMLID_195_" x="777.9" y="260.2" class="st4" width="149.2" height="190.9"/>
			<g id="XMLID_187_">
				<rect id="XMLID_194_" x="796.8" y="275.9" class="st0" width="114.6" height="12.9"/>
				<rect id="XMLID_193_" x="796.8" y="329" class="st0" width="114.6" height="12.9"/>
				<rect id="XMLID_192_" x="796.8" y="350.9" class="st0" width="114.6" height="12.9"/>
				<rect id="XMLID_191_" x="796.8" y="373.3" class="st0" width="114.6" height="12.9"/>
				<rect id="XMLID_190_" x="796.8" y="395.2" class="st0" width="114.6" height="12.9"/>
				<rect id="XMLID_189_" x="796.8" y="417.1" class="st0" width="114.6" height="12.9"/>
				<rect id="XMLID_188_" x="812.1" y="297.8" class="st0" width="83.9" height="12.9"/>
			</g>
		</g>
		<g id="XMLID_176_">
			<rect id="XMLID_185_" x="586.4" y="502.5" class="st4" width="149.2" height="190.9"/>
			<g id="XMLID_177_">
				<rect id="XMLID_184_" x="605.3" y="518.3" class="st0" width="114.6" height="12.9"/>
				<rect id="XMLID_183_" x="605.3" y="571.4" class="st0" width="114.6" height="12.9"/>
				<rect id="XMLID_182_" x="605.3" y="593.3" class="st0" width="114.6" height="12.9"/>
				<rect id="XMLID_181_" x="605.3" y="615.7" class="st0" width="114.6" height="12.9"/>
				<rect id="XMLID_180_" x="605.3" y="637.5" class="st0" width="114.6" height="12.9"/>
				<rect id="XMLID_179_" x="605.3" y="659.4" class="st0" width="114.6" height="12.9"/>
				<rect id="XMLID_178_" x="620.6" y="540.2" class="st0" width="83.9" height="12.9"/>
			</g>
		</g>
		<g id="XMLID_166_">
			<rect id="XMLID_175_" x="777.9" y="502.5" class="st4" width="149.2" height="190.9"/>
			<g id="XMLID_167_">
				<rect id="XMLID_174_" x="796.8" y="518.3" class="st0" width="114.6" height="12.9"/>
				<rect id="XMLID_173_" x="796.8" y="571.4" class="st0" width="114.6" height="12.9"/>
				<rect id="XMLID_172_" x="796.8" y="593.3" class="st0" width="114.6" height="12.9"/>
				<rect id="XMLID_171_" x="796.8" y="615.7" class="st0" width="114.6" height="12.9"/>
				<rect id="XMLID_170_" x="796.8" y="637.5" class="st0" width="114.6" height="12.9"/>
				<rect id="XMLID_169_" x="796.8" y="659.4" class="st0" width="114.6" height="12.9"/>
				<rect id="XMLID_168_" x="812.1" y="540.2" class="st0" width="83.9" height="12.9"/>
			</g>
		</g>
		<g id="XMLID_144_">
			<rect id="XMLID_155_" x="777.9" y="744.9" class="st4" width="149.2" height="190.9"/>
			<g id="XMLID_145_">
				<rect id="XMLID_153_" x="796.8" y="760.7" class="st0" width="114.6" height="12.9"/>
				<rect id="XMLID_152_" x="796.8" y="813.8" class="st0" width="114.6" height="12.9"/>
				<rect id="XMLID_151_" x="796.8" y="835.7" class="st0" width="114.6" height="12.9"/>
				<rect id="XMLID_150_" x="796.8" y="858" class="st0" width="114.6" height="12.9"/>
				<rect id="XMLID_149_" x="796.8" y="879.9" class="st0" width="114.6" height="12.9"/>
				<rect id="XMLID_148_" x="796.8" y="901.8" class="st0" width="114.6" height="12.9"/>
				<rect id="XMLID_146_" x="812.1" y="782.6" class="st0" width="83.9" height="12.9"/>
			</g>
		</g>
		<g id="XMLID_378_">
			<rect id="XMLID_387_" x="777.9" y="17.8" class="st4" width="149.2" height="190.9"/>
			<g id="XMLID_379_">
				<rect id="XMLID_386_" x="796.8" y="33.6" class="st0" width="114.6" height="12.9"/>
				<rect id="XMLID_385_" x="796.8" y="86.7" class="st0" width="114.6" height="12.9"/>
				<rect id="XMLID_384_" x="796.8" y="108.6" class="st0" width="114.6" height="12.9"/>
				<rect id="XMLID_383_" x="796.8" y="130.9" class="st0" width="114.6" height="12.9"/>
				<rect id="XMLID_382_" x="796.8" y="152.8" class="st0" width="114.6" height="12.9"/>
				<rect id="XMLID_381_" x="796.8" y="174.7" class="st0" width="114.6" height="12.9"/>
				<rect id="XMLID_380_" x="812.1" y="55.5" class="st0" width="83.9" height="12.9"/>
			</g>
		</g>
		<g id="XMLID_368_">
			<rect id="XMLID_377_" x="969.4" y="17.8" class="st4" width="149.2" height="190.9"/>
			<g id="XMLID_369_">
				<rect id="XMLID_376_" x="988.3" y="33.6" class="st0" width="114.6" height="12.9"/>
				<rect id="XMLID_375_" x="988.3" y="86.7" class="st0" width="114.6" height="12.9"/>
				<rect id="XMLID_374_" x="988.3" y="108.6" class="st0" width="114.6" height="12.9"/>
				<rect id="XMLID_373_" x="988.3" y="130.9" class="st0" width="114.6" height="12.9"/>
				<rect id="XMLID_372_" x="988.3" y="152.8" class="st0" width="114.6" height="12.9"/>
				<rect id="XMLID_371_" x="988.3" y="174.7" class="st0" width="114.6" height="12.9"/>
				<rect id="XMLID_370_" x="1003.6" y="55.5" class="st0" width="83.9" height="12.9"/>
			</g>
		</g>
		<g id="XMLID_358_">
			<rect id="XMLID_367_" x="777.9" y="260.2" class="st4" width="149.2" height="190.9"/>
			<g id="XMLID_359_">
				<rect id="XMLID_366_" x="796.8" y="275.9" class="st0" width="114.6" height="12.9"/>
				<rect id="XMLID_365_" x="796.8" y="329" class="st0" width="114.6" height="12.9"/>
				<rect id="XMLID_364_" x="796.8" y="350.9" class="st0" width="114.6" height="12.9"/>
				<rect id="XMLID_363_" x="796.8" y="373.3" class="st0" width="114.6" height="12.9"/>
				<rect id="XMLID_362_" x="796.8" y="395.2" class="st0" width="114.6" height="12.9"/>
				<rect id="XMLID_361_" x="796.8" y="417.1" class="st0" width="114.6" height="12.9"/>
				<rect id="XMLID_360_" x="812.1" y="297.8" class="st0" width="83.9" height="12.9"/>
			</g>
		</g>
		<g id="XMLID_348_">
			<rect id="XMLID_357_" x="969.4" y="260.2" class="st4" width="149.2" height="190.9"/>
			<g id="XMLID_349_">
				<rect id="XMLID_356_" x="988.3" y="275.9" class="st0" width="114.6" height="12.9"/>
				<rect id="XMLID_355_" x="988.3" y="329" class="st0" width="114.6" height="12.9"/>
				<rect id="XMLID_354_" x="988.3" y="350.9" class="st0" width="114.6" height="12.9"/>
				<rect id="XMLID_353_" x="988.3" y="373.3" class="st0" width="114.6" height="12.9"/>
				<rect id="XMLID_352_" x="988.3" y="395.2" class="st0" width="114.6" height="12.9"/>
				<rect id="XMLID_351_" x="988.3" y="417.1" class="st0" width="114.6" height="12.9"/>
				<rect id="XMLID_350_" x="1003.6" y="297.8" class="st0" width="83.9" height="12.9"/>
			</g>
		</g>
		<g id="XMLID_338_">
			<rect id="XMLID_347_" x="777.9" y="502.5" class="st4" width="149.2" height="190.9"/>
			<g id="XMLID_339_">
				<rect id="XMLID_346_" x="796.8" y="518.3" class="st0" width="114.6" height="12.9"/>
				<rect id="XMLID_345_" x="796.8" y="571.4" class="st0" width="114.6" height="12.9"/>
				<rect id="XMLID_344_" x="796.8" y="593.3" class="st0" width="114.6" height="12.9"/>
				<rect id="XMLID_343_" x="796.8" y="615.7" class="st0" width="114.6" height="12.9"/>
				<rect id="XMLID_342_" x="796.8" y="637.5" class="st0" width="114.6" height="12.9"/>
				<rect id="XMLID_341_" x="796.8" y="659.4" class="st0" width="114.6" height="12.9"/>
				<rect id="XMLID_340_" x="812.1" y="540.2" class="st0" width="83.9" height="12.9"/>
			</g>
		</g>
		<g id="XMLID_328_">
			<rect id="XMLID_337_" x="969.4" y="502.5" class="st4" width="149.2" height="190.9"/>
			<g id="XMLID_329_">
				<rect id="XMLID_336_" x="988.3" y="518.3" class="st0" width="114.6" height="12.9"/>
				<rect id="XMLID_335_" x="988.3" y="571.4" class="st0" width="114.6" height="12.9"/>
				<rect id="XMLID_334_" x="988.3" y="593.3" class="st0" width="114.6" height="12.9"/>
				<rect id="XMLID_333_" x="988.3" y="615.7" class="st0" width="114.6" height="12.9"/>
				<rect id="XMLID_332_" x="988.3" y="637.5" class="st0" width="114.6" height="12.9"/>
				<rect id="XMLID_331_" x="988.3" y="659.4" class="st0" width="114.6" height="12.9"/>
				<rect id="XMLID_330_" x="1003.6" y="540.2" class="st0" width="83.9" height="12.9"/>
			</g>
		</g>
		<g id="XMLID_308_">
			<rect id="XMLID_317_" x="969.4" y="744.9" class="st4" width="149.2" height="190.9"/>
			<g id="XMLID_309_">
				<rect id="XMLID_316_" x="988.3" y="760.7" class="st0" width="114.6" height="12.9"/>
				<rect id="XMLID_315_" x="988.3" y="813.8" class="st0" width="114.6" height="12.9"/>
				<rect id="XMLID_314_" x="988.3" y="835.7" class="st0" width="114.6" height="12.9"/>
				<rect id="XMLID_313_" x="988.3" y="858" class="st0" width="114.6" height="12.9"/>
				<rect id="XMLID_312_" x="988.3" y="879.9" class="st0" width="114.6" height="12.9"/>
				<rect id="XMLID_311_" x="988.3" y="901.8" class="st0" width="114.6" height="12.9"/>
				<rect id="XMLID_310_" x="1003.6" y="782.6" class="st0" width="83.9" height="12.9"/>
			</g>
		</g>
		<g id="XMLID_297_">
			<rect id="XMLID_306_" x="969.4" y="17.8" class="st4" width="149.2" height="190.9"/>
			<g id="XMLID_298_">
				<rect id="XMLID_305_" x="988.3" y="33.6" class="st0" width="114.6" height="12.9"/>
				<rect id="XMLID_304_" x="988.3" y="86.7" class="st0" width="114.6" height="12.9"/>
				<rect id="XMLID_303_" x="988.3" y="108.6" class="st0" width="114.6" height="12.9"/>
				<rect id="XMLID_302_" x="988.3" y="130.9" class="st0" width="114.6" height="12.9"/>
				<rect id="XMLID_301_" x="988.3" y="152.8" class="st0" width="114.6" height="12.9"/>
				<rect id="XMLID_300_" x="988.3" y="174.7" class="st0" width="114.6" height="12.9"/>
				<rect id="XMLID_299_" x="1003.6" y="55.5" class="st0" width="83.9" height="12.9"/>
			</g>
		</g>
		<g id="XMLID_287_">
			<rect id="XMLID_296_" x="1160.9" y="17.8" class="st4" width="149.2" height="190.9"/>
			<g id="XMLID_288_">
				<rect id="XMLID_295_" x="1179.8" y="33.6" class="st0" width="114.6" height="12.9"/>
				<rect id="XMLID_294_" x="1179.8" y="86.7" class="st0" width="114.6" height="12.9"/>
				<rect id="XMLID_293_" x="1179.8" y="108.6" class="st0" width="114.6" height="12.9"/>
				<rect id="XMLID_292_" x="1179.8" y="130.9" class="st0" width="114.6" height="12.9"/>
				<rect id="XMLID_291_" x="1179.8" y="152.8" class="st0" width="114.6" height="12.9"/>
				<rect id="XMLID_290_" x="1179.8" y="174.7" class="st0" width="114.6" height="12.9"/>
				<rect id="XMLID_289_" x="1195.1" y="55.5" class="st0" width="83.9" height="12.9"/>
			</g>
		</g>
		<g id="XMLID_277_">
			<rect id="XMLID_286_" x="969.4" y="260.2" class="st4" width="149.2" height="190.9"/>
			<g id="XMLID_278_">
				<rect id="XMLID_285_" x="988.3" y="275.9" class="st0" width="114.6" height="12.9"/>
				<rect id="XMLID_284_" x="988.3" y="329" class="st0" width="114.6" height="12.9"/>
				<rect id="XMLID_283_" x="988.3" y="350.9" class="st0" width="114.6" height="12.9"/>
				<rect id="XMLID_282_" x="988.3" y="373.3" class="st0" width="114.6" height="12.9"/>
				<rect id="XMLID_281_" x="988.3" y="395.2" class="st0" width="114.6" height="12.9"/>
				<rect id="XMLID_280_" x="988.3" y="417.1" class="st0" width="114.6" height="12.9"/>
				<rect id="XMLID_279_" x="1003.6" y="297.8" class="st0" width="83.9" height="12.9"/>
			</g>
		</g>
		<g id="XMLID_267_">
			<rect id="XMLID_276_" x="1160.9" y="260.2" class="st4" width="149.2" height="190.9"/>
			<g id="XMLID_268_">
				<rect id="XMLID_275_" x="1179.8" y="275.9" class="st0" width="114.6" height="12.9"/>
				<rect id="XMLID_274_" x="1179.8" y="329" class="st0" width="114.6" height="12.9"/>
				<rect id="XMLID_273_" x="1179.8" y="350.9" class="st0" width="114.6" height="12.9"/>
				<rect id="XMLID_272_" x="1179.8" y="373.3" class="st0" width="114.6" height="12.9"/>
				<rect id="XMLID_271_" x="1179.8" y="395.2" class="st0" width="114.6" height="12.9"/>
				<rect id="XMLID_270_" x="1179.8" y="417.1" class="st0" width="114.6" height="12.9"/>
				<rect id="XMLID_269_" x="1195.1" y="297.8" class="st0" width="83.9" height="12.9"/>
			</g>
		</g>
		<g id="XMLID_257_">
			<rect id="XMLID_266_" x="969.4" y="502.5" class="st4" width="149.2" height="190.9"/>
			<g id="XMLID_258_">
				<rect id="XMLID_265_" x="988.3" y="518.3" class="st0" width="114.6" height="12.9"/>
				<rect id="XMLID_264_" x="988.3" y="571.4" class="st0" width="114.6" height="12.9"/>
				<rect id="XMLID_263_" x="988.3" y="593.3" class="st0" width="114.6" height="12.9"/>
				<rect id="XMLID_262_" x="988.3" y="615.7" class="st0" width="114.6" height="12.9"/>
				<rect id="XMLID_261_" x="988.3" y="637.5" class="st0" width="114.6" height="12.9"/>
				<rect id="XMLID_260_" x="988.3" y="659.4" class="st0" width="114.6" height="12.9"/>
				<rect id="XMLID_259_" x="1003.6" y="540.2" class="st0" width="83.9" height="12.9"/>
			</g>
		</g>
		<g id="XMLID_247_">
			<rect id="XMLID_256_" x="1160.9" y="502.5" class="st4" width="149.2" height="190.9"/>
			<g id="XMLID_248_">
				<rect id="XMLID_255_" x="1179.8" y="518.3" class="st0" width="114.6" height="12.9"/>
				<rect id="XMLID_254_" x="1179.8" y="571.4" class="st0" width="114.6" height="12.9"/>
				<rect id="XMLID_253_" x="1179.8" y="593.3" class="st0" width="114.6" height="12.9"/>
				<rect id="XMLID_252_" x="1179.8" y="615.7" class="st0" width="114.6" height="12.9"/>
				<rect id="XMLID_251_" x="1179.8" y="637.5" class="st0" width="114.6" height="12.9"/>
				<rect id="XMLID_250_" x="1179.8" y="659.4" class="st0" width="114.6" height="12.9"/>
				<rect id="XMLID_249_" x="1195.1" y="540.2" class="st0" width="83.9" height="12.9"/>
			</g>
		</g>
		<g id="XMLID_227_">
			<rect id="XMLID_236_" x="1160.9" y="744.9" class="st4" width="149.2" height="190.9"/>
			<g id="XMLID_228_">
				<rect id="XMLID_235_" x="1179.8" y="760.7" class="st0" width="114.6" height="12.9"/>
				<rect id="XMLID_234_" x="1179.8" y="813.8" class="st0" width="114.6" height="12.9"/>
				<rect id="XMLID_233_" x="1179.8" y="835.7" class="st0" width="114.6" height="12.9"/>
				<rect id="XMLID_232_" x="1179.8" y="858" class="st0" width="114.6" height="12.9"/>
				<rect id="XMLID_231_" x="1179.8" y="879.9" class="st0" width="114.6" height="12.9"/>
				<rect id="XMLID_230_" x="1179.8" y="901.8" class="st0" width="114.6" height="12.9"/>
				<rect id="XMLID_229_" x="1195.1" y="782.6" class="st0" width="83.9" height="12.9"/>
			</g>
		</g>
		<g id="XMLID_540_">
			<rect id="XMLID_549_" x="1160.9" y="17.8" class="st4" width="149.2" height="190.9"/>
			<g id="XMLID_541_">
				<rect id="XMLID_548_" x="1179.8" y="33.6" class="st0" width="114.6" height="12.9"/>
				<rect id="XMLID_547_" x="1179.8" y="86.7" class="st0" width="114.6" height="12.9"/>
				<rect id="XMLID_546_" x="1179.8" y="108.6" class="st0" width="114.6" height="12.9"/>
				<rect id="XMLID_545_" x="1179.8" y="130.9" class="st0" width="114.6" height="12.9"/>
				<rect id="XMLID_544_" x="1179.8" y="152.8" class="st0" width="114.6" height="12.9"/>
				<rect id="XMLID_543_" x="1179.8" y="174.7" class="st0" width="114.6" height="12.9"/>
				<rect id="XMLID_542_" x="1195.1" y="55.5" class="st0" width="83.9" height="12.9"/>
			</g>
		</g>
		<g id="XMLID_530_">
			<rect id="XMLID_539_" x="1352.4" y="17.8" class="st4" width="149.2" height="190.9"/>
			<g id="XMLID_531_">
				<rect id="XMLID_538_" x="1371.3" y="33.6" class="st0" width="114.6" height="12.9"/>
				<rect id="XMLID_537_" x="1371.3" y="86.7" class="st0" width="114.6" height="12.9"/>
				<rect id="XMLID_536_" x="1371.3" y="108.6" class="st0" width="114.6" height="12.9"/>
				<rect id="XMLID_535_" x="1371.3" y="130.9" class="st0" width="114.6" height="12.9"/>
				<rect id="XMLID_534_" x="1371.3" y="152.8" class="st0" width="114.6" height="12.9"/>
				<rect id="XMLID_533_" x="1371.3" y="174.7" class="st0" width="114.6" height="12.9"/>
				<rect id="XMLID_532_" x="1386.6" y="55.5" class="st0" width="83.9" height="12.9"/>
			</g>
		</g>
		<g id="XMLID_520_">
			<rect id="XMLID_529_" x="1160.9" y="260.2" class="st4" width="149.2" height="190.9"/>
			<g id="XMLID_521_">
				<rect id="XMLID_528_" x="1179.8" y="275.9" class="st0" width="114.6" height="12.9"/>
				<rect id="XMLID_527_" x="1179.8" y="329" class="st0" width="114.6" height="12.9"/>
				<rect id="XMLID_526_" x="1179.8" y="350.9" class="st0" width="114.6" height="12.9"/>
				<rect id="XMLID_525_" x="1179.8" y="373.3" class="st0" width="114.6" height="12.9"/>
				<rect id="XMLID_524_" x="1179.8" y="395.2" class="st0" width="114.6" height="12.9"/>
				<rect id="XMLID_523_" x="1179.8" y="417.1" class="st0" width="114.6" height="12.9"/>
				<rect id="XMLID_522_" x="1195.1" y="297.8" class="st0" width="83.9" height="12.9"/>
			</g>
		</g>
		<g id="XMLID_510_">
			<rect id="XMLID_519_" x="1352.4" y="260.2" class="st4" width="149.2" height="190.9"/>
			<g id="XMLID_511_">
				<rect id="XMLID_518_" x="1371.3" y="275.9" class="st0" width="114.6" height="12.9"/>
				<rect id="XMLID_517_" x="1371.3" y="329" class="st0" width="114.6" height="12.9"/>
				<rect id="XMLID_516_" x="1371.3" y="350.9" class="st0" width="114.6" height="12.9"/>
				<rect id="XMLID_515_" x="1371.3" y="373.3" class="st0" width="114.6" height="12.9"/>
				<rect id="XMLID_514_" x="1371.3" y="395.2" class="st0" width="114.6" height="12.9"/>
				<rect id="XMLID_513_" x="1371.3" y="417.1" class="st0" width="114.6" height="12.9"/>
				<rect id="XMLID_512_" x="1386.6" y="297.8" class="st0" width="83.9" height="12.9"/>
			</g>
		</g>
		<g id="XMLID_500_">
			<rect id="XMLID_509_" x="1160.9" y="502.5" class="st4" width="149.2" height="190.9"/>
			<g id="XMLID_501_">
				<rect id="XMLID_508_" x="1179.8" y="518.3" class="st0" width="114.6" height="12.9"/>
				<rect id="XMLID_507_" x="1179.8" y="571.4" class="st0" width="114.6" height="12.9"/>
				<rect id="XMLID_506_" x="1179.8" y="593.3" class="st0" width="114.6" height="12.9"/>
				<rect id="XMLID_505_" x="1179.8" y="615.7" class="st0" width="114.6" height="12.9"/>
				<rect id="XMLID_504_" x="1179.8" y="637.5" class="st0" width="114.6" height="12.9"/>
				<rect id="XMLID_503_" x="1179.8" y="659.4" class="st0" width="114.6" height="12.9"/>
				<rect id="XMLID_502_" x="1195.1" y="540.2" class="st0" width="83.9" height="12.9"/>
			</g>
		</g>
		<g id="XMLID_490_">
			<rect id="XMLID_499_" x="1352.4" y="502.5" class="st4" width="149.2" height="190.9"/>
			<g id="XMLID_491_">
				<rect id="XMLID_498_" x="1371.3" y="518.3" class="st0" width="114.6" height="12.9"/>
				<rect id="XMLID_497_" x="1371.3" y="571.4" class="st0" width="114.6" height="12.9"/>
				<rect id="XMLID_496_" x="1371.3" y="593.3" class="st0" width="114.6" height="12.9"/>
				<rect id="XMLID_495_" x="1371.3" y="615.7" class="st0" width="114.6" height="12.9"/>
				<rect id="XMLID_494_" x="1371.3" y="637.5" class="st0" width="114.6" height="12.9"/>
				<rect id="XMLID_493_" x="1371.3" y="659.4" class="st0" width="114.6" height="12.9"/>
				<rect id="XMLID_492_" x="1386.6" y="540.2" class="st0" width="83.9" height="12.9"/>
			</g>
		</g>
		<g id="XMLID_470_">
			<rect id="XMLID_479_" x="1352.4" y="744.9" class="st4" width="149.2" height="190.9"/>
			<g id="XMLID_471_">
				<rect id="XMLID_478_" x="1371.3" y="760.7" class="st0" width="114.6" height="12.9"/>
				<rect id="XMLID_477_" x="1371.3" y="813.8" class="st0" width="114.6" height="12.9"/>
				<rect id="XMLID_476_" x="1371.3" y="835.7" class="st0" width="114.6" height="12.9"/>
				<rect id="XMLID_475_" x="1371.3" y="858" class="st0" width="114.6" height="12.9"/>
				<rect id="XMLID_474_" x="1371.3" y="879.9" class="st0" width="114.6" height="12.9"/>
				<rect id="XMLID_473_" x="1371.3" y="901.8" class="st0" width="114.6" height="12.9"/>
				<rect id="XMLID_472_" x="1386.6" y="782.6" class="st0" width="83.9" height="12.9"/>
			</g>
		</g>
		<g id="XMLID_459_">
			<rect id="XMLID_468_" x="1352.4" y="17.8" class="st4" width="149.2" height="190.9"/>
			<g id="XMLID_460_">
				<rect id="XMLID_467_" x="1371.3" y="33.6" class="st0" width="114.6" height="12.9"/>
				<rect id="XMLID_466_" x="1371.3" y="86.7" class="st0" width="114.6" height="12.9"/>
				<rect id="XMLID_465_" x="1371.3" y="108.6" class="st0" width="114.6" height="12.9"/>
				<rect id="XMLID_464_" x="1371.3" y="130.9" class="st0" width="114.6" height="12.9"/>
				<rect id="XMLID_463_" x="1371.3" y="152.8" class="st0" width="114.6" height="12.9"/>
				<rect id="XMLID_462_" x="1371.3" y="174.7" class="st0" width="114.6" height="12.9"/>
				<rect id="XMLID_461_" x="1386.6" y="55.5" class="st0" width="83.9" height="12.9"/>
			</g>
		</g>
		<g id="XMLID_439_">
			<rect id="XMLID_448_" x="1352.4" y="260.2" class="st4" width="149.2" height="190.9"/>
			<g id="XMLID_440_">
				<rect id="XMLID_447_" x="1371.3" y="275.9" class="st0" width="114.6" height="12.9"/>
				<rect id="XMLID_446_" x="1371.3" y="329" class="st0" width="114.6" height="12.9"/>
				<rect id="XMLID_445_" x="1371.3" y="350.9" class="st0" width="114.6" height="12.9"/>
				<rect id="XMLID_444_" x="1371.3" y="373.3" class="st0" width="114.6" height="12.9"/>
				<rect id="XMLID_443_" x="1371.3" y="395.2" class="st0" width="114.6" height="12.9"/>
				<rect id="XMLID_442_" x="1371.3" y="417.1" class="st0" width="114.6" height="12.9"/>
				<rect id="XMLID_441_" x="1386.6" y="297.8" class="st0" width="83.9" height="12.9"/>
			</g>
		</g>
		<g id="XMLID_419_">
			<rect id="XMLID_428_" x="1352.4" y="502.5" class="st4" width="149.2" height="190.9"/>
			<g id="XMLID_420_">
				<rect id="XMLID_427_" x="1371.3" y="518.3" class="st0" width="114.6" height="12.9"/>
				<rect id="XMLID_426_" x="1371.3" y="571.4" class="st0" width="114.6" height="12.9"/>
				<rect id="XMLID_425_" x="1371.3" y="593.3" class="st0" width="114.6" height="12.9"/>
				<rect id="XMLID_424_" x="1371.3" y="615.7" class="st0" width="114.6" height="12.9"/>
				<rect id="XMLID_423_" x="1371.3" y="637.5" class="st0" width="114.6" height="12.9"/>
				<rect id="XMLID_422_" x="1371.3" y="659.4" class="st0" width="114.6" height="12.9"/>
				<rect id="XMLID_421_" x="1386.6" y="540.2" class="st0" width="83.9" height="12.9"/>
			</g>
		</g>
		<g id="XMLID_56_">
			<rect id="XMLID_143_" x="394.9" y="744.9" class="st4" width="149.2" height="190.9"/>
			<g id="XMLID_135_">
				<rect id="XMLID_142_" x="413.7" y="760.7" class="st0" width="114.6" height="12.9"/>
				<rect id="XMLID_141_" x="413.7" y="813.8" class="st0" width="114.6" height="12.9"/>
				<rect id="XMLID_140_" x="413.7" y="835.7" class="st0" width="114.6" height="12.9"/>
				<rect id="XMLID_139_" x="413.7" y="858" class="st0" width="114.6" height="12.9"/>
				<rect id="XMLID_138_" x="413.7" y="879.9" class="st0" width="114.6" height="12.9"/>
				<rect id="XMLID_137_" x="413.7" y="901.8" class="st0" width="114.6" height="12.9"/>
				<rect id="XMLID_136_" x="429.1" y="782.6" class="st0" width="83.9" height="12.9"/>
			</g>
			<rect id="XMLID_165_" x="586.4" y="744.9" class="st4" width="149.2" height="190.9"/>
			<g id="XMLID_157_">
				<rect id="XMLID_164_" x="605.3" y="760.7" class="st0" width="114.6" height="12.9"/>
				<rect id="XMLID_163_" x="605.3" y="813.8" class="st0" width="114.6" height="12.9"/>
				<rect id="XMLID_162_" x="605.3" y="835.7" class="st0" width="114.6" height="12.9"/>
				<rect id="XMLID_161_" x="605.3" y="858" class="st0" width="114.6" height="12.9"/>
				<rect id="XMLID_160_" x="605.3" y="879.9" class="st0" width="114.6" height="12.9"/>
				<rect id="XMLID_159_" x="605.3" y="901.8" class="st0" width="114.6" height="12.9"/>
				<rect id="XMLID_158_" x="620.6" y="782.6" class="st0" width="83.9" height="12.9"/>
			</g>
			<g id="XMLID_318_">
				<rect id="XMLID_327_" x="777.9" y="744.9" class="st4" width="149.2" height="190.9"/>
				<g id="XMLID_319_">
					<rect id="XMLID_326_" x="796.8" y="760.7" class="st0" width="114.6" height="12.9"/>
					<rect id="XMLID_325_" x="796.8" y="813.8" class="st0" width="114.6" height="12.9"/>
					<rect id="XMLID_324_" x="796.8" y="835.7" class="st0" width="114.6" height="12.9"/>
					<rect id="XMLID_323_" x="796.8" y="858" class="st0" width="114.6" height="12.9"/>
					<rect id="XMLID_322_" x="796.8" y="879.9" class="st0" width="114.6" height="12.9"/>
					<rect id="XMLID_321_" x="796.8" y="901.8" class="st0" width="114.6" height="12.9"/>
					<rect id="XMLID_320_" x="812.1" y="782.6" class="st0" width="83.9" height="12.9"/>
				</g>
			</g>
			<rect id="XMLID_246_" x="969.4" y="744.9" class="st4" width="149.2" height="190.9"/>
			<g id="XMLID_238_">
				<rect id="XMLID_245_" x="988.3" y="760.7" class="st0" width="114.6" height="12.9"/>
				<rect id="XMLID_244_" x="988.3" y="813.8" class="st0" width="114.6" height="12.9"/>
				<rect id="XMLID_243_" x="988.3" y="835.7" class="st0" width="114.6" height="12.9"/>
				<rect id="XMLID_242_" x="988.3" y="858" class="st0" width="114.6" height="12.9"/>
				<rect id="XMLID_241_" x="988.3" y="879.9" class="st0" width="114.6" height="12.9"/>
				<rect id="XMLID_240_" x="988.3" y="901.8" class="st0" width="114.6" height="12.9"/>
				<rect id="XMLID_239_" x="1003.6" y="782.6" class="st0" width="83.9" height="12.9"/>
			</g>
			<g id="XMLID_480_">
				<rect id="XMLID_489_" x="1160.9" y="744.9" class="st4" width="149.2" height="190.9"/>
				<g id="XMLID_481_">
					<rect id="XMLID_488_" x="1179.8" y="760.7" class="st0" width="114.6" height="12.9"/>
					<rect id="XMLID_487_" x="1179.8" y="813.8" class="st0" width="114.6" height="12.9"/>
					<rect id="XMLID_486_" x="1179.8" y="835.7" class="st0" width="114.6" height="12.9"/>
					<rect id="XMLID_485_" x="1179.8" y="858" class="st0" width="114.6" height="12.9"/>
					<rect id="XMLID_484_" x="1179.8" y="879.9" class="st0" width="114.6" height="12.9"/>
					<rect id="XMLID_483_" x="1179.8" y="901.8" class="st0" width="114.6" height="12.9"/>
					<rect id="XMLID_482_" x="1195.1" y="782.6" class="st0" width="83.9" height="12.9"/>
				</g>
			</g>
			<g id="XMLID_399_">
				<rect id="XMLID_408_" x="1352.4" y="744.9" class="st4" width="149.2" height="190.9"/>
				<g id="XMLID_400_">
					<rect id="XMLID_407_" x="1371.3" y="760.7" class="st0" width="114.6" height="12.9"/>
					<rect id="XMLID_406_" x="1371.3" y="813.8" class="st0" width="114.6" height="12.9"/>
					<rect id="XMLID_405_" x="1371.3" y="835.7" class="st0" width="114.6" height="12.9"/>
					<rect id="XMLID_404_" x="1371.3" y="858" class="st0" width="114.6" height="12.9"/>
					<rect id="XMLID_403_" x="1371.3" y="879.9" class="st0" width="114.6" height="12.9"/>
					<rect id="XMLID_402_" x="1371.3" y="901.8" class="st0" width="114.6" height="12.9"/>
					<rect id="XMLID_401_" x="1386.6" y="782.6" class="st0" width="83.9" height="12.9"/>
				</g>
			</g>
		</g>
		<g id="XMLID_75_">
			<rect id="XMLID_559_" x="394.9" y="987.3" class="st4" width="149.2" height="190.9"/>
			<g id="XMLID_551_">
				<rect id="XMLID_558_" x="413.7" y="1003" class="st0" width="114.6" height="12.9"/>
				<rect id="XMLID_557_" x="413.7" y="1056.1" class="st0" width="114.6" height="12.9"/>
				<rect id="XMLID_556_" x="413.7" y="1078" class="st0" width="114.6" height="12.9"/>
				<rect id="XMLID_555_" x="413.7" y="1100.4" class="st0" width="114.6" height="12.9"/>
				<rect id="XMLID_554_" x="413.7" y="1122.3" class="st0" width="114.6" height="12.9"/>
				<rect id="XMLID_553_" x="413.7" y="1144.2" class="st0" width="114.6" height="12.9"/>
				<rect id="XMLID_552_" x="429.1" y="1024.9" class="st0" width="83.9" height="12.9"/>
			</g>
			<rect id="XMLID_550_" x="586.4" y="987.3" class="st4" width="149.2" height="190.9"/>
			<g id="XMLID_452_">
				<rect id="XMLID_469_" x="605.3" y="1003" class="st0" width="114.6" height="12.9"/>
				<rect id="XMLID_458_" x="605.3" y="1056.1" class="st0" width="114.6" height="12.9"/>
				<rect id="XMLID_457_" x="605.3" y="1078" class="st0" width="114.6" height="12.9"/>
				<rect id="XMLID_456_" x="605.3" y="1100.4" class="st0" width="114.6" height="12.9"/>
				<rect id="XMLID_455_" x="605.3" y="1122.3" class="st0" width="114.6" height="12.9"/>
				<rect id="XMLID_454_" x="605.3" y="1144.2" class="st0" width="114.6" height="12.9"/>
				<rect id="XMLID_453_" x="620.6" y="1024.9" class="st0" width="83.9" height="12.9"/>
			</g>
			<g id="XMLID_432_">
				<rect id="XMLID_451_" x="777.9" y="987.3" class="st4" width="149.2" height="190.9"/>
				<g id="XMLID_433_">
					<rect id="XMLID_450_" x="796.8" y="1003" class="st0" width="114.6" height="12.9"/>
					<rect id="XMLID_449_" x="796.8" y="1056.1" class="st0" width="114.6" height="12.9"/>
					<rect id="XMLID_438_" x="796.8" y="1078" class="st0" width="114.6" height="12.9"/>
					<rect id="XMLID_437_" x="796.8" y="1100.4" class="st0" width="114.6" height="12.9"/>
					<rect id="XMLID_436_" x="796.8" y="1122.3" class="st0" width="114.6" height="12.9"/>
					<rect id="XMLID_435_" x="796.8" y="1144.2" class="st0" width="114.6" height="12.9"/>
					<rect id="XMLID_434_" x="812.1" y="1024.9" class="st0" width="83.9" height="12.9"/>
				</g>
			</g>
			<rect id="XMLID_431_" x="969.4" y="987.3" class="st4" width="149.2" height="190.9"/>
			<g id="XMLID_413_">
				<rect id="XMLID_430_" x="988.3" y="1003" class="st0" width="114.6" height="12.9"/>
				<rect id="XMLID_429_" x="988.3" y="1056.1" class="st0" width="114.6" height="12.9"/>
				<rect id="XMLID_418_" x="988.3" y="1078" class="st0" width="114.6" height="12.9"/>
				<rect id="XMLID_417_" x="988.3" y="1100.4" class="st0" width="114.6" height="12.9"/>
				<rect id="XMLID_416_" x="988.3" y="1122.3" class="st0" width="114.6" height="12.9"/>
				<rect id="XMLID_415_" x="988.3" y="1144.2" class="st0" width="114.6" height="12.9"/>
				<rect id="XMLID_414_" x="1003.6" y="1024.9" class="st0" width="83.9" height="12.9"/>
			</g>
			<g id="XMLID_393_">
				<rect id="XMLID_412_" x="1160.9" y="987.3" class="st4" width="149.2" height="190.9"/>
				<g id="XMLID_394_">
					<rect id="XMLID_411_" x="1179.8" y="1003" class="st0" width="114.6" height="12.9"/>
					<rect id="XMLID_410_" x="1179.8" y="1056.1" class="st0" width="114.6" height="12.9"/>
					<rect id="XMLID_409_" x="1179.8" y="1078" class="st0" width="114.6" height="12.9"/>
					<rect id="XMLID_398_" x="1179.8" y="1100.4" class="st0" width="114.6" height="12.9"/>
					<rect id="XMLID_397_" x="1179.8" y="1122.3" class="st0" width="114.6" height="12.9"/>
					<rect id="XMLID_396_" x="1179.8" y="1144.2" class="st0" width="114.6" height="12.9"/>
					<rect id="XMLID_395_" x="1195.1" y="1024.9" class="st0" width="83.9" height="12.9"/>
				</g>
			</g>
			<g id="XMLID_134_">
				<rect id="XMLID_392_" x="1352.4" y="987.3" class="st4" width="149.2" height="190.9"/>
				<g id="XMLID_156_">
					<rect id="XMLID_391_" x="1371.3" y="1003" class="st0" width="114.6" height="12.9"/>
					<rect id="XMLID_390_" x="1371.3" y="1056.1" class="st0" width="114.6" height="12.9"/>
					<rect id="XMLID_389_" x="1371.3" y="1078" class="st0" width="114.6" height="12.9"/>
					<rect id="XMLID_388_" x="1371.3" y="1100.4" class="st0" width="114.6" height="12.9"/>
					<rect id="XMLID_307_" x="1371.3" y="1122.3" class="st0" width="114.6" height="12.9"/>
					<rect id="XMLID_237_" x="1371.3" y="1144.2" class="st0" width="114.6" height="12.9"/>
					<rect id="XMLID_226_" x="1386.6" y="1024.9" class="st0" width="83.9" height="12.9"/>
				</g>
			</g>
		</g>
	</g>
</g>
<g id="XMLID_2_">
	<defs>
		<path id="XMLID_154_" d="M1229,1110.5H671c-128.7,0-233-104.3-233-233v-558c0-128.7,104.3-233,233-233h558
			c128.7,0,233,104.3,233,233v558C1462,1006.1,1357.7,1110.5,1229,1110.5z"/>
	</defs>
	<clipPath id="XMLID_7_">
		<use xlink:href="#XMLID_154_"  style="overflow:visible;"/>
	</clipPath>
	<linearGradient id="XMLID_8_" gradientUnits="userSpaceOnUse" x1="765.9037" y1="598.4631" x2="1276.0349" y2="598.4631">
		<stop  offset="0" style="stop-color:#EAEBEE"/>
		<stop  offset="1" style="stop-color:#FFFFFF"/>
	</linearGradient>
	<path id="XMLID_33_" class="st5" d="M1276,377.6v677.6c0,0-91.9-171.4-510.1-171.4V146.2c0,0,332.6-42.2,479.4,132.1
		C1264.7,301.3,1276,347.5,1276,377.6z"/>
	<g id="XMLID_12_" class="st6">
		<linearGradient id="XMLID_10_" gradientUnits="userSpaceOnUse" x1="850.6398" y1="640.8312" x2="1276.0349" y2="640.8312">
			<stop  offset="0" style="stop-color:#EAEBEE"/>
			<stop  offset="1" style="stop-color:#FFFFFF"/>
		</linearGradient>
		<path id="XMLID_37_" class="st7" d="M1276,462.3v592.9c0,0-49.5-65.5-425.4-65.5V231c0,0,247.9-42.2,394.7,132.1
			C1264.7,386,1276,432.2,1276,462.3z"/>
		<linearGradient id="XMLID_11_" gradientUnits="userSpaceOnUse" x1="787.0878" y1="619.6472" x2="1276.0349" y2="619.6472">
			<stop  offset="0" style="stop-color:#EAEBEE"/>
			<stop  offset="1" style="stop-color:#FFFFFF"/>
		</linearGradient>
		<path id="XMLID_13_" class="st8" d="M1276,419.9v635.3c0,0-91.9-107.9-488.9-107.9V188.6c0,0,311.5-42.2,458.2,132.1
			C1264.7,343.6,1276,389.9,1276,419.9z"/>
		<linearGradient id="XMLID_14_" gradientUnits="userSpaceOnUse" x1="765.9037" y1="598.4631" x2="1276.0349" y2="598.4631">
			<stop  offset="0" style="stop-color:#FFFFFF"/>
			<stop  offset="1" style="stop-color:#EAEBEE"/>
		</linearGradient>
		<path id="XMLID_26_" class="st9" d="M1276,377.6v677.6c0,0-91.9-171.4-510.1-171.4V146.2c0,0,332.6-42.2,479.4,132.1
			C1264.7,301.3,1276,347.5,1276,377.6z"/>
		<linearGradient id="XMLID_15_" gradientUnits="userSpaceOnUse" x1="1276.0349" y1="640.8312" x2="1701.4299" y2="640.8312">
			<stop  offset="0" style="stop-color:#EAEBEE"/>
			<stop  offset="1" style="stop-color:#FFFFFF"/>
		</linearGradient>
		<path id="XMLID_31_" class="st10" d="M1276,462.3v592.9c0,0,49.5-65.5,425.4-65.5V231c0,0-247.9-42.2-394.7,132.1
			C1287.4,386,1276,432.2,1276,462.3z"/>
		<linearGradient id="XMLID_17_" gradientUnits="userSpaceOnUse" x1="1276.0349" y1="619.6472" x2="1764.9819" y2="619.6472">
			<stop  offset="0" style="stop-color:#EAEBEE"/>
			<stop  offset="1" style="stop-color:#FFFFFF"/>
		</linearGradient>
		<path id="XMLID_34_" class="st11" d="M1276,419.9v635.3c0,0,91.9-107.9,488.9-107.9V188.6c0,0-311.5-42.2-458.2,132.1
			C1287.4,343.6,1276,389.9,1276,419.9z"/>
		
			<linearGradient id="XMLID_18_" gradientUnits="userSpaceOnUse" x1="504.1631" y1="598.4631" x2="1014.2943" y2="598.4631" gradientTransform="matrix(-1 0 0 1 2290.3291 0)">
			<stop  offset="0" style="stop-color:#FFFFFF"/>
			<stop  offset="1" style="stop-color:#EAEBEE"/>
		</linearGradient>
		<path id="XMLID_36_" class="st12" d="M1276,377.6v677.6c0,0,91.9-171.4,510.1-171.4V146.2c0,0-332.6-42.2-479.4,132.1
			C1287.4,301.3,1276,347.5,1276,377.6z"/>
		<g id="XMLID_147_">
			<rect id="XMLID_4_" x="1275.5" y="373.6" class="st13" width="1" height="681.6"/>
		</g>
	</g>
</g>
</svg>
