<?xml version="1.0" encoding="utf-8"?>
<!-- Generator: Adobe Illustrator 19.0.0, SVG Export Plug-In . SVG Version: 6.00 Build 0)  -->
<svg version="1.1" id="Layer_1" xmlns="http://www.w3.org/2000/svg" xmlns:xlink="http://www.w3.org/1999/xlink" x="0px" y="0px"
	 viewBox="0 0 1900 1200" style="enable-background:new 0 0 1900 1200;" xml:space="preserve">
<style type="text/css">
	.st0{fill:#EA4C89;}
	.st1{fill-rule:evenodd;clip-rule:evenodd;fill:#FFFFFF;}
</style>
<g id="XMLID_3_">
	<path id="XMLID_11_" class="st0" d="M1229,1110.5H671c-128.7,0-233-104.3-233-233v-558c0-128.7,104.3-233,233-233h558
		c128.7,0,233,104.3,233,233v558C1462,1006.1,1357.7,1110.5,1229,1110.5z"/>
</g>
<path id="XMLID_1_" class="st1" d="M950,975.7c-208,0-377.3-169.2-377.3-377.3S742,221.2,950,221.2s377.3,169.2,377.3,377.3
	S1158,975.7,950,975.7z M1268.2,650.1c-11-3.5-99.7-29.9-200.7-13.8c42.1,115.8,59.3,210.1,62.6,229.8
	C1202.3,817.2,1253.8,739.8,1268.2,650.1z M1075.9,895.6c-4.8-28.3-23.5-126.8-68.7-244.4c-0.7,0.2-1.4,0.5-2.1,0.7
	c-181.8,63.3-247,189.4-252.8,201.2c54.6,42.6,123.3,68,197.8,68C994.6,921.2,1037.2,912.1,1075.9,895.6z M710.6,814.4
	c7.3-12.5,95.7-158.9,261.9-212.6c4.2-1.4,8.4-2.6,12.7-3.8c-8.1-18.3-16.9-36.6-26.1-54.7c-160.9,48.2-317.1,46.1-331.2,45.9
	c-0.1,3.3-0.2,6.6-0.2,9.8C627.8,681.7,659.1,757.3,710.6,814.4z M634.6,533c14.4,0.2,147.2,0.8,297.9-39.3
	C879.1,398.8,821.5,319,813,307.3C722.9,349.9,655.5,433,634.6,533z M874.5,285.7c8.9,11.9,67.4,91.6,120.2,188.6
	c114.6-42.9,163.1-108.1,168.9-116.4c-56.9-50.5-131.7-81.2-213.6-81.2C924,276.7,898.7,279.8,874.5,285.7z M1199.4,395.2
	c-6.8,9.2-60.8,78.4-179.9,127.1c7.5,15.3,14.7,31,21.4,46.7c2.4,5.6,4.7,11.1,6.9,16.6c107.2-13.5,213.8,8.1,224.4,10.4
	C1271.5,519.9,1244.3,450,1199.4,395.2z"/>
</svg>
