<?xml version="1.0" encoding="utf-8"?>
<!-- Generator: Adobe Illustrator 19.0.0, SVG Export Plug-In . SVG Version: 6.00 Build 0)  -->
<svg version="1.1" id="Layer_1" xmlns="http://www.w3.org/2000/svg" xmlns:xlink="http://www.w3.org/1999/xlink" x="0px" y="0px"
	 viewBox="0 0 1900 1200" style="enable-background:new 0 0 1900 1200;" xml:space="preserve">
<style type="text/css">
	.st0{display:none;}
	.st1{fill:#FFFFFF;}
	.st2{fill:#E6EAEE;}
	.st3{fill:#D3D9E2;}
	.st4{fill:#518FCC;}
	.st5{fill:#3879AF;}
	.st6{fill:#6698D0;}
	.st7{fill:#72A9DB;}
</style>
<rect id="XMLID_2_" x="1.2" class="st0" width="1900" height="1200"/>
<g id="XMLID_23_">
	<path id="XMLID_7_" class="st1" d="M1232.3,1110.5h-558c-128.7,0-233-104.3-233-233v-558c0-128.7,104.3-233,233-233h558
		c128.7,0,233,104.3,233,233v558C1465.3,1006.1,1361,1110.5,1232.3,1110.5z"/>
</g>
<g id="XMLID_1_">
	<g id="XMLID_26_">
		<g id="XMLID_4_">
			<path id="XMLID_9_" class="st2" d="M1125.7,620.6l-33.2,19.2c-66.5-19.4-104.9-30-115.3-31.7c-10.3-1.7-20.2-1.4-29.6,0.9
				c-9.4,2.3-32,13.7-67.7,34.3l-34.6,20l333.1,192.3c41.4,23.9,67.8,37.5,79.2,40.8c5.9,1.8,13.1,1.9,21.3,0.2
				c8.3-1.6,34.4-11.3,78.4-29l26.4,15.2c-75.5,40.5-123.6,66.7-144.3,78.7c-28.2,16.3-69.9,41.9-125.2,76.9l-26.4-15.2
				c31.7-26,49.2-42.1,52.5-48.5c2.2-4.3,1.1-8.7-3.1-13.2c-4.3-4.5-28.3-19.4-72-44.7L735.6,726.6l-60.4,34.9
				c-20.4,11.8-32.2,20.5-35.5,26.2c-3.3,5.7-2.7,12.4,1.8,19.9c6.8,11.4,24.4,32.1,52.8,62l-32.7,18.9
				c-30.7-22.5-52.2-37.9-64.5-46.1s-37-23.8-74.2-46.7c97.3-53.1,190.8-105.8,280.6-158.2c75.7-44.5,129.5-76.9,161.5-97
				C1011,566.7,1064.6,593.4,1125.7,620.6z"/>
		</g>
		<path id="XMLID_14_" class="st3" d="M977.2,608c10.3,1.7,48.8,12.3,115.3,31.7l33.2-19.2c-61.1-27.1-114.7-53.8-160.7-80.1V607
			C969,607,973.1,607.4,977.2,608z"/>
		<path id="XMLID_15_" class="st3" d="M694.4,869.6c-28.4-29.9-46-50.6-52.8-62c-1.9-3.2-3.1-6.3-3.6-9.2v72.9
			c7.2,5.2,15.1,10.9,23.7,17.3L694.4,869.6z"/>
		<path id="XMLID_16_" class="st3" d="M1383.7,882.8l-26.4-15.2c-44,17.7-70.1,27.4-78.4,29c-8.3,1.6-15.4,1.5-21.3-0.2
			c-11.4-3.3-37.8-16.9-79.2-40.8L845.3,663.3v126.6l219.9,127c43.8,25.3,67.8,40.2,72,44.7c4.3,4.5,5.3,8.9,3.1,13.2
			c-3.4,6.3-20.9,22.5-52.5,48.5l26.4,15.2c55.3-35,97-60.7,125.2-76.9C1260.2,949.5,1308.3,923.3,1383.7,882.8z"/>
		<path id="XMLID_12_" class="st2" d="M1383.7,882.8l-26.4-15.2c-44,17.7-70.1,27.4-78.4,29c-4.4,0.9-8.4,1.2-12.1,1.1l0,0v48.4
			C1292.8,931.8,1331.8,910.7,1383.7,882.8z"/>
		<g id="XMLID_11_">
			<polygon id="XMLID_13_" class="st2" points="1141.4,969.2 1141.4,969.2 1141.4,969.2 			"/>
			<path id="XMLID_17_" class="st2" d="M1141.4,971.6c-0.1,1.1-0.5,2.1-1,3.2c-3.4,6.3-20.9,22.5-52.5,48.5l26.4,15.2
				c9.5-6,18.5-11.7,27.2-17.1V971.6z"/>
		</g>
	</g>
	<g id="XMLID_3_">
		<g id="XMLID_18_">
			<path id="XMLID_19_" class="st4" d="M1125.7,318.6l-33.2,19.2c-66.5-19.4-104.9-30-115.3-31.7c-10.3-1.7-20.2-1.4-29.6,0.9
				c-9.4,2.3-32-6.3-67.7,14.3l-34.6,20l333.1,192.3c41.4,23.9,67.8,37.5,79.2,40.8c5.9,1.8,13.1,1.9,21.3,0.2
				c8.3-1.6,34.4,8.7,78.4-9l26.4,15.2c-75.5,40.5-123.6,66.7-144.3,78.7c-28.2,16.3-69.9,41.9-125.2,76.9l-26.4-15.2
				c31.7-26,49.2-62.1,52.5-68.5c2.2-4.3,1.1-8.7-3.1-13.2c-4.3-4.5-28.3-19.4-72-44.7L735.6,404.6l-60.4,34.9
				c-20.4,11.8-32.2,20.5-35.5,26.2c-3.3,5.7-2.7,12.4,1.8,19.9c6.8,11.4,24.4,52.1,52.8,82l-32.7,18.9
				c-30.7-22.5-52.2-37.9-64.5-46.1s-37-23.8-74.2-46.7c97.3-53.1,190.8-125.8,280.6-178.2c75.7-44.5,129.5-76.9,161.5-97
				C1011,244.8,1064.6,291.5,1125.7,318.6z"/>
		</g>
		<path id="XMLID_31_" class="st5" d="M522.9,413.7v80c37.2,22.9,61.9,38.4,74.2,46.7c12.3,8.2,33.8,23.6,64.5,46.1v-80
			c-30.7-22.5-52.2-37.9-64.5-46.1C584.9,452.1,560.1,436.6,522.9,413.7z"/>
		<polygon id="XMLID_22_" class="st6" points="694.4,487.6 694.4,567.6 661.7,586.5 661.7,506.5 		"/>
		<path id="XMLID_29_" class="st6" d="M639.8,405.7c-3.3,5.7-2.7,12.4,1.8,19.9c3.3,5.6,9.3,33.4,17.8,43.5
			c4.5-2.9,9.8-6.2,15.8-9.6l60.4-34.9v-80l-60.4,34.9C654.9,391.2,643.1,399.9,639.8,405.7z"/>
		<path id="XMLID_30_" class="st5" d="M1140.4,592.8c2.2-4.3,1.1-8.7-3.1-13.2c-0.3-0.3-0.8-0.8-1.3-1.2l-17.5-11.9c0,0,0,0,0,0
			L735.6,344.6v80l329.6,190.3c19,10.9,34.2,19.9,45.8,27C1128.1,627.1,1137.9,597.4,1140.4,592.8z"/>
		<polygon id="XMLID_25_" class="st5" points="1087.8,641.2 1087.8,721.2 1114.2,736.5 1114.2,656.5 		"/>
		<path id="XMLID_27_" class="st6" d="M1383.7,580.8v-80c-75.5,40.5-123.6,66.7-144.3,78.7c-28.2,16.3-69.9,41.9-125.2,76.9v80
			c55.3-35,97-60.7,125.2-76.9C1260.2,647.6,1308.3,621.3,1383.7,580.8z"/>
		<polygon id="XMLID_24_" class="st6" points="1125.7,238.6 1125.7,318.6 1092.5,337.8 1092.5,257.8 		"/>
		<path id="XMLID_32_" class="st5" d="M879.9,341.3c35.7-20.6,58.3-32.1,67.7-34.3c9.4-2.3,19.3-2.6,29.6-0.9
			c10.3,1.7,48.8,12.3,115.3,31.7v-80c-66.5-19.4-104.9-30-115.3-31.7c-10.3-1.7-20.2-1.4-29.6,0.9c-9.4,2.3-32,13.7-67.7,34.3
			l-34.6,20l10.6,44.9l21.4-0.8L879.9,341.3z"/>
		<g id="XMLID_21_">
			<path id="XMLID_28_" class="st7" d="M1125.7,238.6l-33.2,19.2c-66.5-19.4-104.9-30-115.3-31.7c-10.3-1.7-20.2-1.4-29.6,0.9
				c-9.4,2.3-32,13.7-67.7,34.3l-34.6,20l333.1,192.3c41.4,23.9,67.8,37.5,79.2,40.8c5.9,1.8,13.1,1.9,21.3,0.2
				c8.3-1.6,34.4-11.3,78.4-29l26.4,15.2c-75.5,40.5-123.6,66.7-144.3,78.7c-28.2,16.3-69.9,41.9-125.2,76.9l-26.4-15.2
				c31.7-26,49.2-42.1,52.5-48.5c2.2-4.3,1.1-8.7-3.1-13.2c-4.3-4.5-28.3-19.4-72-44.7L735.6,344.6l-60.4,34.9
				c-20.4,11.8-32.2,20.5-35.5,26.2c-3.3,5.7-2.7,12.4,1.8,19.9c6.8,11.4,24.4,32.1,52.8,62l-32.7,18.9
				c-30.7-22.5-52.2-37.9-64.5-46.1c-12.3-8.2-37-23.8-74.2-46.7c97.3-53.1,190.8-105.8,280.6-158.2c75.7-44.5,129.5-76.9,161.5-97
				C1011,184.8,1064.6,211.5,1125.7,238.6z"/>
		</g>
	</g>
</g>
</svg>
