<?xml version="1.0" encoding="utf-8"?>
<!-- Generator: Adobe Illustrator 19.0.0, SVG Export Plug-In . SVG Version: 6.00 Build 0)  -->
<svg version="1.1" id="Layer_1" xmlns="http://www.w3.org/2000/svg" xmlns:xlink="http://www.w3.org/1999/xlink" x="0px" y="0px"
	 viewBox="0 0 1900 1200" style="enable-background:new 0 0 1900 1200;" xml:space="preserve">
<style type="text/css">
	.st0{display:none;fill:#373E49;}
	.st1{fill:#FFFFFF;}
	.st2{fill:#F15A4F;}
	.st3{fill:#F37876;}
	.st4{opacity:0.15;}
	.st5{fill:#272D44;}
	.st6{fill:#F78F49;}
	.st7{fill:#F6B669;}
	.st8{opacity:0.1;}
	.st9{fill:#FCD832;}
	.st10{fill:#FCE9A0;}
	.st11{fill:none;}
	.st12{opacity:0.5;}
	.st13{fill:#F1B926;}
	.st14{clip-path:url(#XMLID_9_);}
</style>
<rect id="XMLID_2_" class="st0" width="1900" height="1200"/>
<g id="XMLID_6_">
	<path id="XMLID_37_" class="st1" d="M1229,1106.5H671c-128.7,0-233-104.3-233-233v-558c0-128.7,104.3-233,233-233h558
		c128.7,0,233,104.3,233,233v558C1462,1002.1,1357.7,1106.5,1229,1106.5z"/>
</g>
<g id="XMLID_1_">
	
		<rect id="XMLID_3_" x="734.2" y="377" transform="matrix(0.9456 0.3255 -0.3255 0.9456 262.4986 -289.6583)" class="st2" width="525.6" height="525.6"/>
	
		<rect id="XMLID_5_" x="790.3" y="422.2" transform="matrix(0.9456 0.3255 -0.3255 0.9456 250.9383 -295.9327)" class="st3" width="439.4" height="359.7"/>
</g>
<g id="XMLID_31_" class="st4">
	<polygon id="XMLID_27_" class="st5" points="833.1,308.5 663.5,801.2 663.3,802.8 723.8,823.6 1181.4,891.7 1247.4,448 849,310.9 	
		"/>
</g>
<g id="XMLID_7_">
	
		<rect id="XMLID_13_" x="648.5" y="281.5" transform="matrix(0.9891 0.1471 -0.1471 0.9891 89.9779 -128.137)" class="st6" width="525.6" height="525.6"/>
	
		<rect id="XMLID_8_" x="697.5" y="325" transform="matrix(0.9891 0.1471 -0.1471 0.9891 84.2419 -129.4285)" class="st7" width="439.4" height="359.7"/>
</g>
<g id="XMLID_20_" class="st8">
	<polygon id="XMLID_18_" points="1119,767.8 1121.3,309.8 690,245.7 612.8,765.3 	"/>
</g>
<g id="XMLID_10_">
	
		<rect id="XMLID_16_" x="570.1" y="216.5" transform="matrix(1 5.070224e-003 -5.070224e-003 1 2.4408 -4.2166)" class="st9" width="525.6" height="525.6"/>
	
		<rect id="XMLID_12_" x="613.4" y="259.6" transform="matrix(1 5.070224e-003 -5.070224e-003 1 2.2388 -4.2181)" class="st10" width="439.4" height="359.7"/>
</g>
<rect id="XMLID_11_" x="613.6" y="259.6" transform="matrix(1 5.070224e-003 -5.070224e-003 1 2.2388 -4.2195)" class="st11" width="439.4" height="359.7"/>
<g id="XMLID_32_" class="st12">
	<circle id="XMLID_17_" class="st13" cx="833.1" cy="423" r="107"/>
</g>
<g id="XMLID_50_">
	<defs>
		
			<rect id="XMLID_33_" x="613.6" y="259.6" transform="matrix(1 5.070224e-003 -5.070224e-003 1 2.2388 -4.2195)" width="439.4" height="359.7"/>
	</defs>
	<clipPath id="XMLID_9_">
		<use xlink:href="#XMLID_33_"  style="overflow:visible;"/>
	</clipPath>
	<g id="XMLID_15_" class="st14">
		<polyline id="XMLID_49_" class="st13" points="1100.6,694.7 833.1,427.2 565.6,694.7 		"/>
		<g id="XMLID_19_">
			<polyline id="XMLID_48_" class="st13" points="899.6,736.7 666.6,503.7 433.6,736.7 			"/>
			<polyline id="XMLID_44_" class="st13" points="1232.6,736.7 999.6,503.7 766.6,736.7 			"/>
		</g>
	</g>
</g>
<path id="XMLID_14_" class="st13" d="M797.8,411.6c0-11.9-8-21.9-18.9-25c-1.5-3.6-4.8-6.2-8.8-6.6c-2.9-10.8-12.7-18.7-24.3-18.7
	c-2.8,0-5.4,0.5-7.9,1.3c-2.8-4.7-7.8-7.8-13.7-7.8c-7.3,0-13.5,5-15.3,11.7c-1.2-0.2-2.5-0.4-3.8-0.4c-9,0-16.6,5.8-19.3,13.8
	c-5.5,0-10.3,2.8-13.1,7.1c-2.6-0.9-5.4-1.4-8.3-1.4c-14.4,0-26,11.6-26,26H797.8z"/>
<path id="XMLID_53_" class="st13" d="M1005,346c0-8.7-5.4-16-13.1-19c-0.7-3.3-3.7-5.8-7.2-5.8c-0.1,0-0.2,0-0.4,0
	c-2.8-3.9-7.4-6.5-12.6-6.5c-0.1,0-0.1,0-0.2,0c-1.1-7.5-7.5-13.3-15.4-13.3c-0.1,0-0.1,0-0.2,0c-2.7-6.2-8.8-10.5-16-10.5
	c-9.6,0-17.4,7.8-17.4,17.4c0,0.5,0,1,0.1,1.5c-2.6,0.6-4.7,2.5-5.4,5c-0.1,0-0.2,0-0.3,0c-5.9,0-11.1,3.3-13.7,8.2
	c-0.6-0.1-1.2-0.1-1.8-0.1c-3.4,0-6.6,1.3-8.9,3.5c-1.7-0.4-3.4-0.7-5.2-0.7c-11.2,0-20.3,9.1-20.3,20.3H1005z"/>
<g id="XMLID_52_" class="st12">
	<circle id="XMLID_41_" class="st13" cx="1024.3" cy="451.4" r="6"/>
	<circle id="XMLID_39_" class="st13" cx="766.7" cy="290.9" r="6"/>
	<circle id="XMLID_38_" class="st13" cx="632.3" cy="457.4" r="6"/>
	<circle id="XMLID_36_" class="st13" cx="1024.3" cy="294.6" r="6"/>
	<circle id="XMLID_35_" class="st13" cx="977.3" cy="405.5" r="4"/>
	<circle id="XMLID_34_" class="st13" cx="655" cy="288.6" r="4"/>
	<circle id="XMLID_30_" class="st13" cx="720" cy="333.4" r="4"/>
	<circle id="XMLID_29_" class="st13" cx="655" cy="346" r="4"/>
	<circle id="XMLID_25_" class="st13" cx="685" cy="439.4" r="4"/>
	<circle id="XMLID_24_" class="st13" cx="714" cy="498.1" r="4"/>
	<circle id="XMLID_23_" class="st13" cx="885.9" cy="286.9" r="4"/>
	<circle id="XMLID_22_" class="st13" cx="963.3" cy="480.7" r="4"/>
	<circle id="XMLID_21_" class="st13" cx="1030.3" cy="354.6" r="4"/>
</g>
</svg>
