<?xml version="1.0" encoding="utf-8"?>
<!-- Generator: Adobe Illustrator 19.0.0, SVG Export Plug-In . SVG Version: 6.00 Build 0)  -->
<svg version="1.1" id="Layer_1" xmlns="http://www.w3.org/2000/svg" xmlns:xlink="http://www.w3.org/1999/xlink" x="0px" y="0px"
	 viewBox="0 0 1900 1200" style="enable-background:new 0 0 1900 1200;" xml:space="preserve">
<style type="text/css">
	.st0{display:none;}
	.st1{fill:#FFFFFF;}
	.st2{fill:#FFD04A;}
	.st3{fill:#F3796D;}
	.st4{fill:#F04F41;}
	.st5{fill:#D64038;}
</style>
<rect id="XMLID_2_" x="1.2" class="st0" width="1900" height="1200"/>
<g id="XMLID_23_">
	<g id="XMLID_7_">
		<path class="st1" d="M1242.1,1110.5h-558c-128.7,0-233-104.3-233-233v-558c0-128.7,104.3-233,233-233h558
			c128.7,0,233,104.3,233,233v558C1475.1,1006.1,1370.7,1110.5,1242.1,1110.5z"/>
	</g>
</g>
<g id="XMLID_1_">
	<circle class="st2" cx="953.3" cy="598.5" r="412.2"/>
</g>
<g id="XMLID_10_">
	<path class="st3" d="M683.6,631.7c6.5,143.4,124.8,257.6,269.7,257.6s263.3-114.2,269.7-257.6H683.6z"/>
</g>
<g id="XMLID_11_">
	<path class="st1" d="M1218.8,669c2.3-12.2,3.7-24.6,4.3-37.3H683.6c0.6,12.7,2,25.1,4.3,37.3H1218.8z"/>
</g>
<g id="XMLID_4_">
	<path class="st4" d="M832.8,669v256.8c0,66.3,54.2,120.5,120.5,120.5h0c66.3,0,120.5-54.2,120.5-120.5V669H832.8z"/>
</g>
<g id="XMLID_3_">
	<rect x="832.8" y="669" class="st5" width="241.1" height="23.7"/>
</g>
<g id="XMLID_12_">
	<path id="XMLID_8_" d="M758.6,554.1c-6.9,0-12.5-5.6-12.5-12.5c0-34.5-28-62.5-62.5-62.5s-62.5,28-62.5,62.5
		c0,6.9-5.6,12.5-12.5,12.5s-12.5-5.6-12.5-12.5c0-48.2,39.3-87.5,87.5-87.5s87.5,39.3,87.5,87.5
		C771.1,548.5,765.5,554.1,758.6,554.1z"/>
</g>
<g id="XMLID_13_">
	<path id="XMLID_6_" d="M1298.1,554.1c-6.9,0-12.5-5.6-12.5-12.5c0-34.5-28-62.5-62.5-62.5s-62.5,28-62.5,62.5
		c0,6.9-5.6,12.5-12.5,12.5s-12.5-5.6-12.5-12.5c0-48.2,39.3-87.5,87.5-87.5c48.2,0,87.5,39.3,87.5,87.5
		C1310.6,548.5,1305,554.1,1298.1,554.1z"/>
</g>
</svg>
