<?xml version="1.0" encoding="utf-8"?>
<!-- Generator: Adobe Illustrator 19.0.0, SVG Export Plug-In . SVG Version: 6.00 Build 0)  -->
<svg version="1.1" id="Layer_1" xmlns="http://www.w3.org/2000/svg" xmlns:xlink="http://www.w3.org/1999/xlink" x="0px" y="0px"
	 viewBox="0 0 1900 1200" style="enable-background:new 0 0 1900 1200;" xml:space="preserve">
<style type="text/css">
	.st0{fill:#FFFFFF;}
	.st1{fill-rule:evenodd;clip-rule:evenodd;fill:#191717;}
	.st2{fill:#191717;}
</style>
<g id="XMLID_23_">
	<path id="XMLID_5_" class="st0" d="M1229,1110.5H671c-128.7,0-233-104.3-233-233v-558c0-128.7,104.3-233,233-233h558
		c128.7,0,233,104.3,233,233v558C1462,1006.1,1357.7,1110.5,1229,1110.5z"/>
</g>
<g id="XMLID_51_">
	<path id="XMLID_73_" class="st1" d="M950,161.2c-247.6,0-448.4,200.7-448.4,448.4c0,198.1,128.5,366.2,306.6,425.4
		c22.4,4.1,30.6-9.7,30.6-21.6c0-10.7-0.4-46-0.6-83.5C713.6,957.1,687.2,877,687.2,877c-20.4-51.8-49.8-65.6-49.8-65.6
		c-40.7-27.8,3.1-27.3,3.1-27.3c45,3.2,68.7,46.2,68.7,46.2c40,68.5,104.9,48.7,130.5,37.3c4-29,15.6-48.8,28.5-60
		c-99.6-11.3-204.3-49.8-204.3-221.6c0-48.9,17.5-88.9,46.2-120.3c-4.7-11.3-20-56.9,4.3-118.7c0,0,37.7-12,123.3,46
		c35.8-9.9,74.1-14.9,112.2-15.1c38.1,0.2,76.5,5.2,112.3,15.1c85.6-58,123.2-46,123.2-46c24.4,61.8,9.1,107.4,4.4,118.7
		c28.7,31.4,46.1,71.4,46.1,120.3c0,172.2-104.9,210.1-204.7,221.2c16.1,13.9,30.4,41.2,30.4,83c0,60-0.5,108.3-0.5,123
		c0,11.9,8.1,25.9,30.8,21.5c178.1-59.4,306.4-227.4,306.4-425.4C1398.4,361.9,1197.6,161.2,950,161.2z"/>
	<path id="XMLID_70_" class="st2" d="M671.5,804.9c-1,2.2-4.5,2.9-7.7,1.4c-3.3-1.5-5.1-4.5-4-6.7c1-2.3,4.5-2.9,7.7-1.4
		C670.7,799.6,672.6,802.7,671.5,804.9L671.5,804.9z M665.9,800.8"/>
	<path id="XMLID_67_" class="st2" d="M689.6,825.2c-2.1,2-6.3,1.1-9.2-2.1c-2.9-3.1-3.5-7.3-1.3-9.3c2.2-2,6.3-1.1,9.2,2.1
		C691.3,819,691.9,823.2,689.6,825.2L689.6,825.2z M685.3,820.6"/>
	<path id="XMLID_64_" class="st2" d="M707.3,851c-2.7,1.9-7.2,0.1-10-3.9c-2.7-4-2.7-8.8,0.1-10.7c2.8-1.9,7.2-0.2,10,3.8
		C710.1,844.3,710.1,849,707.3,851L707.3,851z M707.3,851"/>
	<path id="XMLID_61_" class="st2" d="M731.5,875.9c-2.5,2.7-7.7,2-11.5-1.7c-3.9-3.6-5-8.7-2.6-11.5c2.5-2.7,7.8-2,11.6,1.7
		C733,868.1,734.1,873.3,731.5,875.9L731.5,875.9z M731.5,875.9"/>
	<path id="XMLID_58_" class="st2" d="M764.9,890.4c-1.1,3.5-6.1,5.1-11.2,3.6c-5.1-1.5-8.4-5.6-7.4-9.2c1.1-3.5,6.1-5.2,11.2-3.6
		C762.7,882.8,766,886.9,764.9,890.4L764.9,890.4z M764.9,890.4"/>
	<path id="XMLID_55_" class="st2" d="M801.6,893.1c0.1,3.7-4.2,6.8-9.5,6.8c-5.4,0.1-9.7-2.9-9.8-6.5c0-3.7,4.2-6.8,9.6-6.9
		C797.3,886.5,801.6,889.4,801.6,893.1L801.6,893.1z M801.6,893.1"/>
	<path id="XMLID_52_" class="st2" d="M835.8,887.3c0.6,3.6-3.1,7.3-8.4,8.3c-5.2,1-10-1.3-10.7-4.9c-0.6-3.7,3.1-7.4,8.3-8.4
		C830.3,881.5,835.1,883.6,835.8,887.3L835.8,887.3z M835.8,887.3"/>
</g>
</svg>
