<?xml version="1.0" encoding="utf-8"?>
<!-- Generator: Adobe Illustrator 19.0.0, SVG Export Plug-In . SVG Version: 6.00 Build 0)  -->
<svg version="1.1" id="Layer_1" xmlns="http://www.w3.org/2000/svg" xmlns:xlink="http://www.w3.org/1999/xlink" x="0px" y="0px"
	 viewBox="0 0 1900 1200" style="enable-background:new 0 0 1900 1200;" xml:space="preserve">
<style type="text/css">
	.st0{fill:#FFFFFF;}
	.st1{clip-path:url(#XMLID_383_);}
	.st2{fill:#E1E4EA;}
	.st3{opacity:0.1;fill:#2C323D;}
	.st4{fill:#CAD0D8;}
	.st5{clip-path:url(#XMLID_384_);}
	.st6{fill:#97A5AF;}
	.st7{opacity:5.000000e-002;fill:#2C323D;}
	.st8{opacity:0.35;fill:#FFFFFF;}
	.st9{fill:#FF6E5F;}
</style>
<path id="XMLID_29_" class="st0" d="M1220,1106.5H662c-128.7,0-233-104.3-233-233v-558c0-128.7,104.3-233,233-233h558
	c128.7,0,233,104.3,233,233v558C1453,1002.1,1348.7,1106.5,1220,1106.5z"/>
<g id="XMLID_1_">
	<defs>
		<path id="XMLID_382_" d="M1220,1106.5H662c-128.7,0-233-104.3-233-233v-558c0-128.7,104.3-233,233-233h558
			c128.7,0,233,104.3,233,233v558C1453,1002.1,1348.7,1106.5,1220,1106.5z"/>
	</defs>
	<clipPath id="XMLID_383_">
		<use xlink:href="#XMLID_382_"  style="overflow:visible;"/>
	</clipPath>
	<g id="XMLID_3_" class="st1">
		<g id="XMLID_4_">
			<rect id="XMLID_362_" x="853.7" y="1206.2" class="st2" width="174.7" height="82"/>
			<path id="XMLID_368_" class="st3" d="M853.7,1251.8c24,19,54.3,30.4,87.3,30.4s63.3-11.4,87.3-30.4v-43.1H853.7V1251.8z"/>
			<circle id="XMLID_355_" class="st2" cx="941" cy="1126.1" r="140.8"/>
			<circle id="XMLID_364_" class="st2" cx="941" cy="1126.1" r="140.8"/>
			<path id="XMLID_5_" class="st4" d="M1213.2,719.2H668.8V264.4c0-57.9,46.9-104.8,104.8-104.8h334.8
				c57.9,0,104.8,46.9,104.8,104.8V719.2z"/>
			<rect id="XMLID_6_" x="626.4" y="719.2" class="st2" width="629.3" height="260.2"/>
			<rect id="XMLID_7_" x="661.8" y="979.5" class="st2" width="558.5" height="80.5"/>
			<rect id="XMLID_8_" x="746.1" y="1040" class="st2" width="389.8" height="146.7"/>
			<g id="XMLID_9_">
				<defs>
					<path id="XMLID_352_" d="M1213.2,719.2H668.8V264.4c0-57.9,46.9-104.8,104.8-104.8h334.8c57.9,0,104.8,46.9,104.8,104.8V719.2z
						"/>
				</defs>
				<clipPath id="XMLID_384_">
					<use xlink:href="#XMLID_352_"  style="overflow:visible;"/>
				</clipPath>
				<g id="XMLID_10_" class="st5">
					<g id="XMLID_11_">
						<g id="XMLID_12_">
							<circle id="XMLID_13_" class="st6" cx="570.8" cy="464.1" r="19.7"/>
							<circle id="XMLID_14_" class="st6" cx="620.2" cy="464.1" r="19.7"/>
							<circle id="XMLID_15_" class="st6" cx="669.6" cy="464.1" r="19.7"/>
							<circle id="XMLID_16_" class="st6" cx="718.9" cy="464.1" r="19.7"/>
							<circle id="XMLID_17_" class="st6" cx="768.3" cy="464.1" r="19.7"/>
							<circle id="XMLID_18_" class="st6" cx="817.6" cy="464.1" r="19.7"/>
							<circle id="XMLID_19_" class="st6" cx="867" cy="464.1" r="19.7"/>
							<circle id="XMLID_20_" class="st6" cx="916.3" cy="464.1" r="19.7"/>
						</g>
						<g id="XMLID_21_">
							<circle id="XMLID_32_" class="st6" cx="965.7" cy="464.1" r="19.7"/>
							<circle id="XMLID_30_" class="st6" cx="1015" cy="464.1" r="19.7"/>
							<circle id="XMLID_22_" class="st6" cx="1064.4" cy="464.1" r="19.7"/>
							<circle id="XMLID_34_" class="st6" cx="1113.7" cy="464.1" r="19.7"/>
							<circle id="XMLID_43_" class="st6" cx="1163.1" cy="464.1" r="19.7"/>
							<circle id="XMLID_46_" class="st6" cx="1212.5" cy="464.1" r="19.7"/>
							<circle id="XMLID_47_" class="st6" cx="1261.8" cy="464.1" r="19.7"/>
							<circle id="XMLID_48_" class="st6" cx="1311.2" cy="464.1" r="19.7"/>
						</g>
					</g>
					<g id="XMLID_49_">
						<g id="XMLID_55_">
							<circle id="XMLID_81_" class="st6" cx="570.8" cy="513.5" r="19.7"/>
							<circle id="XMLID_80_" class="st6" cx="620.2" cy="513.5" r="19.7"/>
							<circle id="XMLID_79_" class="st6" cx="669.6" cy="513.5" r="19.7"/>
							<circle id="XMLID_60_" class="st6" cx="718.9" cy="513.5" r="19.7"/>
							<circle id="XMLID_59_" class="st6" cx="768.3" cy="513.5" r="19.7"/>
							<circle id="XMLID_58_" class="st6" cx="817.6" cy="513.5" r="19.7"/>
							<circle id="XMLID_57_" class="st6" cx="867" cy="513.5" r="19.7"/>
							<circle id="XMLID_56_" class="st6" cx="916.3" cy="513.5" r="19.7"/>
						</g>
						<g id="XMLID_50_">
							<circle id="XMLID_54_" class="st6" cx="965.7" cy="513.5" r="19.7"/>
							<circle id="XMLID_53_" class="st6" cx="1015" cy="513.5" r="19.7"/>
							<circle id="XMLID_52_" class="st6" cx="1064.4" cy="513.5" r="19.7"/>
							<circle id="XMLID_51_" class="st6" cx="1113.7" cy="513.5" r="19.7"/>
							<circle id="XMLID_82_" class="st6" cx="1163.1" cy="513.5" r="19.7"/>
							<circle id="XMLID_83_" class="st6" cx="1212.5" cy="513.5" r="19.7"/>
							<circle id="XMLID_84_" class="st6" cx="1261.8" cy="513.5" r="19.7"/>
							<circle id="XMLID_85_" class="st6" cx="1311.2" cy="513.5" r="19.7"/>
						</g>
					</g>
					<g id="XMLID_101_">
						<g id="XMLID_111_">
							<circle id="XMLID_119_" class="st6" cx="570.8" cy="562.8" r="19.7"/>
							<circle id="XMLID_118_" class="st6" cx="620.2" cy="562.8" r="19.7"/>
							<circle id="XMLID_117_" class="st6" cx="669.6" cy="562.8" r="19.7"/>
							<circle id="XMLID_116_" class="st6" cx="718.9" cy="562.8" r="19.7"/>
							<circle id="XMLID_115_" class="st6" cx="768.3" cy="562.8" r="19.7"/>
							<circle id="XMLID_114_" class="st6" cx="817.6" cy="562.8" r="19.7"/>
							<circle id="XMLID_113_" class="st6" cx="867" cy="562.8" r="19.7"/>
							<circle id="XMLID_112_" class="st6" cx="916.3" cy="562.8" r="19.7"/>
						</g>
						<g id="XMLID_102_">
							<circle id="XMLID_110_" class="st6" cx="965.7" cy="562.8" r="19.7"/>
							<circle id="XMLID_109_" class="st6" cx="1015" cy="562.8" r="19.7"/>
							<circle id="XMLID_108_" class="st6" cx="1064.4" cy="562.8" r="19.7"/>
							<circle id="XMLID_107_" class="st6" cx="1113.7" cy="562.8" r="19.7"/>
							<circle id="XMLID_106_" class="st6" cx="1163.1" cy="562.8" r="19.7"/>
							<circle id="XMLID_105_" class="st6" cx="1212.5" cy="562.8" r="19.7"/>
							<circle id="XMLID_104_" class="st6" cx="1261.8" cy="562.8" r="19.7"/>
							<circle id="XMLID_103_" class="st6" cx="1311.2" cy="562.8" r="19.7"/>
						</g>
					</g>
					<g id="XMLID_86_">
						<g id="XMLID_92_">
							<circle id="XMLID_100_" class="st6" cx="570.8" cy="612.2" r="19.7"/>
							<circle id="XMLID_99_" class="st6" cx="620.2" cy="612.2" r="19.7"/>
							<circle id="XMLID_98_" class="st6" cx="669.6" cy="612.2" r="19.7"/>
							<circle id="XMLID_97_" class="st6" cx="718.9" cy="612.2" r="19.7"/>
							<circle id="XMLID_96_" class="st6" cx="768.3" cy="612.2" r="19.7"/>
							<circle id="XMLID_95_" class="st6" cx="817.6" cy="612.2" r="19.7"/>
							<circle id="XMLID_94_" class="st6" cx="867" cy="612.2" r="19.7"/>
							<circle id="XMLID_93_" class="st6" cx="916.3" cy="612.2" r="19.7"/>
						</g>
						<g id="XMLID_87_">
							<circle id="XMLID_91_" class="st6" cx="965.7" cy="612.2" r="19.7"/>
							<circle id="XMLID_90_" class="st6" cx="1015" cy="612.2" r="19.7"/>
							<circle id="XMLID_89_" class="st6" cx="1064.4" cy="612.2" r="19.7"/>
							<circle id="XMLID_88_" class="st6" cx="1113.7" cy="612.2" r="19.7"/>
							<circle id="XMLID_120_" class="st6" cx="1163.1" cy="612.2" r="19.7"/>
							<circle id="XMLID_121_" class="st6" cx="1212.5" cy="612.2" r="19.7"/>
							<circle id="XMLID_122_" class="st6" cx="1261.8" cy="612.2" r="19.7"/>
							<circle id="XMLID_123_" class="st6" cx="1311.2" cy="612.2" r="19.7"/>
						</g>
					</g>
					<g id="XMLID_177_">
						<g id="XMLID_187_">
							<circle id="XMLID_195_" class="st6" cx="570.8" cy="661.6" r="19.7"/>
							<circle id="XMLID_194_" class="st6" cx="620.2" cy="661.6" r="19.7"/>
							<circle id="XMLID_193_" class="st6" cx="669.6" cy="661.6" r="19.7"/>
							<circle id="XMLID_192_" class="st6" cx="718.9" cy="661.6" r="19.7"/>
							<circle id="XMLID_191_" class="st6" cx="768.3" cy="661.6" r="19.7"/>
							<circle id="XMLID_190_" class="st6" cx="817.6" cy="661.6" r="19.7"/>
							<circle id="XMLID_189_" class="st6" cx="867" cy="661.6" r="19.7"/>
							<circle id="XMLID_188_" class="st6" cx="916.3" cy="661.6" r="19.7"/>
						</g>
						<g id="XMLID_178_">
							<circle id="XMLID_186_" class="st6" cx="965.7" cy="661.6" r="19.7"/>
							<circle id="XMLID_185_" class="st6" cx="1015" cy="661.6" r="19.7"/>
							<circle id="XMLID_184_" class="st6" cx="1064.4" cy="661.6" r="19.7"/>
							<circle id="XMLID_183_" class="st6" cx="1113.7" cy="661.6" r="19.7"/>
							<circle id="XMLID_182_" class="st6" cx="1163.1" cy="661.6" r="19.7"/>
							<circle id="XMLID_181_" class="st6" cx="1212.5" cy="661.6" r="19.7"/>
							<circle id="XMLID_180_" class="st6" cx="1261.8" cy="661.6" r="19.7"/>
							<circle id="XMLID_179_" class="st6" cx="1311.2" cy="661.6" r="19.7"/>
						</g>
					</g>
					<g id="XMLID_158_">
						<g id="XMLID_168_">
							<circle id="XMLID_176_" class="st6" cx="570.8" cy="710.9" r="19.7"/>
							<circle id="XMLID_175_" class="st6" cx="620.2" cy="710.9" r="19.7"/>
							<circle id="XMLID_174_" class="st6" cx="669.6" cy="710.9" r="19.7"/>
							<circle id="XMLID_173_" class="st6" cx="718.9" cy="710.9" r="19.7"/>
							<circle id="XMLID_172_" class="st6" cx="768.3" cy="710.9" r="19.7"/>
							<circle id="XMLID_171_" class="st6" cx="817.6" cy="710.9" r="19.7"/>
							<circle id="XMLID_170_" class="st6" cx="867" cy="710.9" r="19.7"/>
							<circle id="XMLID_169_" class="st6" cx="916.3" cy="710.9" r="19.7"/>
						</g>
						<g id="XMLID_159_">
							<circle id="XMLID_167_" class="st6" cx="965.7" cy="710.9" r="19.7"/>
							<circle id="XMLID_166_" class="st6" cx="1015" cy="710.9" r="19.7"/>
							<circle id="XMLID_165_" class="st6" cx="1064.4" cy="710.9" r="19.7"/>
							<circle id="XMLID_164_" class="st6" cx="1113.7" cy="710.9" r="19.7"/>
							<circle id="XMLID_163_" class="st6" cx="1163.1" cy="710.9" r="19.7"/>
							<circle id="XMLID_162_" class="st6" cx="1212.5" cy="710.9" r="19.7"/>
							<circle id="XMLID_161_" class="st6" cx="1261.8" cy="710.9" r="19.7"/>
							<circle id="XMLID_160_" class="st6" cx="1311.2" cy="710.9" r="19.7"/>
						</g>
					</g>
					<g id="XMLID_139_">
						<g id="XMLID_149_">
							<circle id="XMLID_157_" class="st6" cx="570.8" cy="760.3" r="19.7"/>
							<circle id="XMLID_156_" class="st6" cx="620.2" cy="760.3" r="19.7"/>
							<circle id="XMLID_155_" class="st6" cx="669.6" cy="760.3" r="19.7"/>
							<circle id="XMLID_154_" class="st6" cx="718.9" cy="760.3" r="19.7"/>
							<circle id="XMLID_153_" class="st6" cx="768.3" cy="760.3" r="19.7"/>
							<circle id="XMLID_152_" class="st6" cx="817.6" cy="760.3" r="19.7"/>
							<circle id="XMLID_151_" class="st6" cx="867" cy="760.3" r="19.7"/>
							<circle id="XMLID_150_" class="st6" cx="916.3" cy="760.3" r="19.7"/>
						</g>
						<g id="XMLID_140_">
							<circle id="XMLID_148_" class="st6" cx="965.7" cy="760.3" r="19.7"/>
							<circle id="XMLID_147_" class="st6" cx="1015" cy="760.3" r="19.7"/>
							<circle id="XMLID_146_" class="st6" cx="1064.4" cy="760.3" r="19.7"/>
							<circle id="XMLID_145_" class="st6" cx="1113.7" cy="760.3" r="19.7"/>
							<circle id="XMLID_144_" class="st6" cx="1163.1" cy="760.3" r="19.7"/>
							<circle id="XMLID_143_" class="st6" cx="1212.5" cy="760.3" r="19.7"/>
							<circle id="XMLID_142_" class="st6" cx="1261.8" cy="760.3" r="19.7"/>
							<circle id="XMLID_141_" class="st6" cx="1311.2" cy="760.3" r="19.7"/>
						</g>
					</g>
					<g id="XMLID_124_">
						<g id="XMLID_130_">
							<circle id="XMLID_138_" class="st6" cx="570.8" cy="809.6" r="19.7"/>
							<circle id="XMLID_137_" class="st6" cx="620.2" cy="809.6" r="19.7"/>
							<circle id="XMLID_136_" class="st6" cx="669.6" cy="809.6" r="19.7"/>
							<circle id="XMLID_135_" class="st6" cx="718.9" cy="809.6" r="19.7"/>
							<circle id="XMLID_134_" class="st6" cx="768.3" cy="809.6" r="19.7"/>
							<circle id="XMLID_133_" class="st6" cx="817.6" cy="809.6" r="19.7"/>
							<circle id="XMLID_132_" class="st6" cx="867" cy="809.6" r="19.7"/>
							<circle id="XMLID_131_" class="st6" cx="916.3" cy="809.6" r="19.7"/>
						</g>
						<g id="XMLID_125_">
							<circle id="XMLID_129_" class="st6" cx="965.7" cy="809.6" r="19.7"/>
							<circle id="XMLID_128_" class="st6" cx="1015" cy="809.6" r="19.7"/>
							<circle id="XMLID_127_" class="st6" cx="1064.4" cy="809.6" r="19.7"/>
							<circle id="XMLID_126_" class="st6" cx="1113.7" cy="809.6" r="19.7"/>
							<circle id="XMLID_196_" class="st6" cx="1163.1" cy="809.6" r="19.7"/>
							<circle id="XMLID_197_" class="st6" cx="1212.5" cy="809.6" r="19.7"/>
							<circle id="XMLID_198_" class="st6" cx="1261.8" cy="809.6" r="19.7"/>
							<circle id="XMLID_199_" class="st6" cx="1311.2" cy="809.6" r="19.7"/>
						</g>
					</g>
					<g id="XMLID_329_">
						<g id="XMLID_339_">
							<circle id="XMLID_347_" class="st6" cx="570.8" cy="69.3" r="19.7"/>
							<circle id="XMLID_346_" class="st6" cx="620.2" cy="69.3" r="19.7"/>
							<circle id="XMLID_345_" class="st6" cx="669.6" cy="69.3" r="19.7"/>
							<circle id="XMLID_344_" class="st6" cx="718.9" cy="69.3" r="19.7"/>
							<circle id="XMLID_343_" class="st6" cx="768.3" cy="69.3" r="19.7"/>
							<circle id="XMLID_342_" class="st6" cx="817.6" cy="69.3" r="19.7"/>
							<circle id="XMLID_341_" class="st6" cx="867" cy="69.3" r="19.7"/>
							<circle id="XMLID_340_" class="st6" cx="916.3" cy="69.3" r="19.7"/>
						</g>
						<g id="XMLID_330_">
							<circle id="XMLID_338_" class="st6" cx="965.7" cy="69.3" r="19.7"/>
							<circle id="XMLID_337_" class="st6" cx="1015" cy="69.3" r="19.7"/>
							<circle id="XMLID_336_" class="st6" cx="1064.4" cy="69.3" r="19.7"/>
							<circle id="XMLID_335_" class="st6" cx="1113.7" cy="69.3" r="19.7"/>
							<circle id="XMLID_334_" class="st6" cx="1163.1" cy="69.3" r="19.7"/>
							<circle id="XMLID_333_" class="st6" cx="1212.5" cy="69.3" r="19.7"/>
							<circle id="XMLID_332_" class="st6" cx="1261.8" cy="69.3" r="19.7"/>
							<circle id="XMLID_331_" class="st6" cx="1311.2" cy="69.3" r="19.7"/>
						</g>
					</g>
					<g id="XMLID_310_">
						<g id="XMLID_320_">
							<circle id="XMLID_328_" class="st6" cx="570.8" cy="118.6" r="19.7"/>
							<circle id="XMLID_327_" class="st6" cx="620.2" cy="118.6" r="19.7"/>
							<circle id="XMLID_326_" class="st6" cx="669.6" cy="118.6" r="19.7"/>
							<circle id="XMLID_325_" class="st6" cx="718.9" cy="118.6" r="19.7"/>
							<circle id="XMLID_324_" class="st6" cx="768.3" cy="118.6" r="19.7"/>
							<circle id="XMLID_323_" class="st6" cx="817.6" cy="118.6" r="19.7"/>
							<circle id="XMLID_322_" class="st6" cx="867" cy="118.6" r="19.7"/>
							<circle id="XMLID_321_" class="st6" cx="916.3" cy="118.6" r="19.7"/>
						</g>
						<g id="XMLID_311_">
							<circle id="XMLID_319_" class="st6" cx="965.7" cy="118.6" r="19.7"/>
							<circle id="XMLID_318_" class="st6" cx="1015" cy="118.6" r="19.7"/>
							<circle id="XMLID_317_" class="st6" cx="1064.4" cy="118.6" r="19.7"/>
							<circle id="XMLID_316_" class="st6" cx="1113.7" cy="118.6" r="19.7"/>
							<circle id="XMLID_315_" class="st6" cx="1163.1" cy="118.6" r="19.7"/>
							<circle id="XMLID_314_" class="st6" cx="1212.5" cy="118.6" r="19.7"/>
							<circle id="XMLID_313_" class="st6" cx="1261.8" cy="118.6" r="19.7"/>
							<circle id="XMLID_312_" class="st6" cx="1311.2" cy="118.6" r="19.7"/>
						</g>
					</g>
					<g id="XMLID_291_">
						<g id="XMLID_301_">
							<circle id="XMLID_309_" class="st6" cx="570.8" cy="168" r="19.7"/>
							<circle id="XMLID_308_" class="st6" cx="620.2" cy="168" r="19.7"/>
							<circle id="XMLID_307_" class="st6" cx="669.6" cy="168" r="19.7"/>
							<circle id="XMLID_306_" class="st6" cx="718.9" cy="168" r="19.7"/>
							<circle id="XMLID_305_" class="st6" cx="768.3" cy="168" r="19.7"/>
							<circle id="XMLID_304_" class="st6" cx="817.6" cy="168" r="19.7"/>
							<circle id="XMLID_303_" class="st6" cx="867" cy="168" r="19.7"/>
							<circle id="XMLID_302_" class="st6" cx="916.3" cy="168" r="19.7"/>
						</g>
						<g id="XMLID_292_">
							<circle id="XMLID_300_" class="st6" cx="965.7" cy="168" r="19.7"/>
							<circle id="XMLID_299_" class="st6" cx="1015" cy="168" r="19.7"/>
							<circle id="XMLID_298_" class="st6" cx="1064.4" cy="168" r="19.7"/>
							<circle id="XMLID_297_" class="st6" cx="1113.7" cy="168" r="19.7"/>
							<circle id="XMLID_296_" class="st6" cx="1163.1" cy="168" r="19.7"/>
							<circle id="XMLID_295_" class="st6" cx="1212.5" cy="168" r="19.7"/>
							<circle id="XMLID_294_" class="st6" cx="1261.8" cy="168" r="19.7"/>
							<circle id="XMLID_293_" class="st6" cx="1311.2" cy="168" r="19.7"/>
						</g>
					</g>
					<g id="XMLID_272_">
						<g id="XMLID_282_">
							<circle id="XMLID_290_" class="st6" cx="570.8" cy="217.4" r="19.7"/>
							<circle id="XMLID_289_" class="st6" cx="620.2" cy="217.4" r="19.7"/>
							<circle id="XMLID_288_" class="st6" cx="669.6" cy="217.4" r="19.7"/>
							<circle id="XMLID_287_" class="st6" cx="718.9" cy="217.4" r="19.7"/>
							<circle id="XMLID_286_" class="st6" cx="768.3" cy="217.4" r="19.7"/>
							<circle id="XMLID_285_" class="st6" cx="817.6" cy="217.4" r="19.7"/>
							<circle id="XMLID_284_" class="st6" cx="867" cy="217.4" r="19.7"/>
							<circle id="XMLID_283_" class="st6" cx="916.3" cy="217.4" r="19.7"/>
						</g>
						<g id="XMLID_273_">
							<circle id="XMLID_281_" class="st6" cx="965.7" cy="217.4" r="19.7"/>
							<circle id="XMLID_280_" class="st6" cx="1015" cy="217.4" r="19.7"/>
							<circle id="XMLID_279_" class="st6" cx="1064.4" cy="217.4" r="19.7"/>
							<circle id="XMLID_278_" class="st6" cx="1113.7" cy="217.4" r="19.7"/>
							<circle id="XMLID_277_" class="st6" cx="1163.1" cy="217.4" r="19.7"/>
							<circle id="XMLID_276_" class="st6" cx="1212.5" cy="217.4" r="19.7"/>
							<circle id="XMLID_275_" class="st6" cx="1261.8" cy="217.4" r="19.7"/>
							<circle id="XMLID_274_" class="st6" cx="1311.2" cy="217.4" r="19.7"/>
						</g>
					</g>
					<g id="XMLID_253_">
						<g id="XMLID_263_">
							<circle id="XMLID_271_" class="st6" cx="570.8" cy="266.7" r="19.7"/>
							<circle id="XMLID_270_" class="st6" cx="620.2" cy="266.7" r="19.7"/>
							<circle id="XMLID_269_" class="st6" cx="669.6" cy="266.7" r="19.7"/>
							<circle id="XMLID_268_" class="st6" cx="718.9" cy="266.7" r="19.7"/>
							<circle id="XMLID_267_" class="st6" cx="768.3" cy="266.7" r="19.7"/>
							<circle id="XMLID_266_" class="st6" cx="817.6" cy="266.7" r="19.7"/>
							<circle id="XMLID_265_" class="st6" cx="867" cy="266.7" r="19.7"/>
							<circle id="XMLID_264_" class="st6" cx="916.3" cy="266.7" r="19.7"/>
						</g>
						<g id="XMLID_254_">
							<circle id="XMLID_262_" class="st6" cx="965.7" cy="266.7" r="19.7"/>
							<circle id="XMLID_261_" class="st6" cx="1015" cy="266.7" r="19.7"/>
							<circle id="XMLID_260_" class="st6" cx="1064.4" cy="266.7" r="19.7"/>
							<circle id="XMLID_259_" class="st6" cx="1113.7" cy="266.7" r="19.7"/>
							<circle id="XMLID_258_" class="st6" cx="1163.1" cy="266.7" r="19.7"/>
							<circle id="XMLID_257_" class="st6" cx="1212.5" cy="266.7" r="19.7"/>
							<circle id="XMLID_256_" class="st6" cx="1261.8" cy="266.7" r="19.7"/>
							<circle id="XMLID_255_" class="st6" cx="1311.2" cy="266.7" r="19.7"/>
						</g>
					</g>
					<g id="XMLID_234_">
						<g id="XMLID_244_">
							<circle id="XMLID_252_" class="st6" cx="570.8" cy="316.1" r="19.7"/>
							<circle id="XMLID_251_" class="st6" cx="620.2" cy="316.1" r="19.7"/>
							<circle id="XMLID_250_" class="st6" cx="669.6" cy="316.1" r="19.7"/>
							<circle id="XMLID_249_" class="st6" cx="718.9" cy="316.1" r="19.7"/>
							<circle id="XMLID_248_" class="st6" cx="768.3" cy="316.1" r="19.7"/>
							<circle id="XMLID_247_" class="st6" cx="817.6" cy="316.1" r="19.7"/>
							<circle id="XMLID_246_" class="st6" cx="867" cy="316.1" r="19.7"/>
							<circle id="XMLID_245_" class="st6" cx="916.3" cy="316.1" r="19.7"/>
						</g>
						<g id="XMLID_235_">
							<circle id="XMLID_243_" class="st6" cx="965.7" cy="316.1" r="19.7"/>
							<circle id="XMLID_242_" class="st6" cx="1015" cy="316.1" r="19.7"/>
							<circle id="XMLID_241_" class="st6" cx="1064.4" cy="316.1" r="19.7"/>
							<circle id="XMLID_240_" class="st6" cx="1113.7" cy="316.1" r="19.7"/>
							<circle id="XMLID_239_" class="st6" cx="1163.1" cy="316.1" r="19.7"/>
							<circle id="XMLID_238_" class="st6" cx="1212.5" cy="316.1" r="19.7"/>
							<circle id="XMLID_237_" class="st6" cx="1261.8" cy="316.1" r="19.7"/>
							<circle id="XMLID_236_" class="st6" cx="1311.2" cy="316.1" r="19.7"/>
						</g>
					</g>
					<g id="XMLID_215_">
						<g id="XMLID_225_">
							<circle id="XMLID_233_" class="st6" cx="570.8" cy="365.4" r="19.7"/>
							<circle id="XMLID_232_" class="st6" cx="620.2" cy="365.4" r="19.7"/>
							<circle id="XMLID_231_" class="st6" cx="669.6" cy="365.4" r="19.7"/>
							<circle id="XMLID_230_" class="st6" cx="718.9" cy="365.4" r="19.7"/>
							<circle id="XMLID_229_" class="st6" cx="768.3" cy="365.4" r="19.7"/>
							<circle id="XMLID_228_" class="st6" cx="817.6" cy="365.4" r="19.7"/>
							<circle id="XMLID_227_" class="st6" cx="867" cy="365.4" r="19.7"/>
							<circle id="XMLID_226_" class="st6" cx="916.3" cy="365.4" r="19.7"/>
						</g>
						<g id="XMLID_216_">
							<circle id="XMLID_224_" class="st6" cx="965.7" cy="365.4" r="19.7"/>
							<circle id="XMLID_223_" class="st6" cx="1015" cy="365.4" r="19.7"/>
							<circle id="XMLID_222_" class="st6" cx="1064.4" cy="365.4" r="19.7"/>
							<circle id="XMLID_221_" class="st6" cx="1113.7" cy="365.4" r="19.7"/>
							<circle id="XMLID_220_" class="st6" cx="1163.1" cy="365.4" r="19.7"/>
							<circle id="XMLID_219_" class="st6" cx="1212.5" cy="365.4" r="19.7"/>
							<circle id="XMLID_218_" class="st6" cx="1261.8" cy="365.4" r="19.7"/>
							<circle id="XMLID_217_" class="st6" cx="1311.2" cy="365.4" r="19.7"/>
						</g>
					</g>
					<g id="XMLID_200_">
						<g id="XMLID_206_">
							<circle id="XMLID_214_" class="st6" cx="570.8" cy="414.8" r="19.7"/>
							<circle id="XMLID_213_" class="st6" cx="620.2" cy="414.8" r="19.7"/>
							<circle id="XMLID_212_" class="st6" cx="669.6" cy="414.8" r="19.7"/>
							<circle id="XMLID_211_" class="st6" cx="718.9" cy="414.8" r="19.7"/>
							<circle id="XMLID_210_" class="st6" cx="768.3" cy="414.8" r="19.7"/>
							<circle id="XMLID_209_" class="st6" cx="817.6" cy="414.8" r="19.7"/>
							<circle id="XMLID_208_" class="st6" cx="867" cy="414.8" r="19.7"/>
							<circle id="XMLID_207_" class="st6" cx="916.3" cy="414.8" r="19.7"/>
						</g>
						<g id="XMLID_201_">
							<circle id="XMLID_205_" class="st6" cx="965.7" cy="414.8" r="19.7"/>
							<circle id="XMLID_204_" class="st6" cx="1015" cy="414.8" r="19.7"/>
							<circle id="XMLID_203_" class="st6" cx="1064.4" cy="414.8" r="19.7"/>
							<circle id="XMLID_202_" class="st6" cx="1113.7" cy="414.8" r="19.7"/>
							<circle id="XMLID_348_" class="st6" cx="1163.1" cy="414.8" r="19.7"/>
							<circle id="XMLID_349_" class="st6" cx="1212.5" cy="414.8" r="19.7"/>
							<circle id="XMLID_350_" class="st6" cx="1261.8" cy="414.8" r="19.7"/>
							<circle id="XMLID_351_" class="st6" cx="1311.2" cy="414.8" r="19.7"/>
						</g>
					</g>
				</g>
			</g>
			<rect id="XMLID_353_" x="1171.4" y="719.2" class="st7" width="84.2" height="260.2"/>
			<rect id="XMLID_354_" x="1097.6" y="719.2" class="st7" width="44.9" height="260.2"/>
			<rect id="XMLID_356_" x="691.2" y="719.2" class="st8" width="84.4" height="259.7"/>
			<rect id="XMLID_358_" x="1146.6" y="978.9" class="st7" width="73.7" height="81.7"/>
			<rect id="XMLID_357_" x="1082" y="978.9" class="st7" width="39.3" height="81.7"/>
			<rect id="XMLID_359_" x="726.6" y="978.9" class="st8" width="73.8" height="81.5"/>
			<rect id="XMLID_361_" x="1084.9" y="1060" class="st7" width="51" height="146.7"/>
			<rect id="XMLID_360_" x="1040.1" y="1060" class="st7" width="27.2" height="146.7"/>
			<rect id="XMLID_363_" x="793.9" y="1060" class="st8" width="51.1" height="146.3"/>
			<rect id="XMLID_365_" x="661.8" y="979.5" class="st3" width="558.5" height="21.7"/>
			<rect id="XMLID_366_" x="746.1" y="1060" class="st3" width="389.8" height="21.7"/>
			<path id="XMLID_367_" class="st3" d="M826.4,1208h229.2c4.9-6.8,9.1-14.1,12.8-21.7H813.7C817.3,1194,821.6,1201.2,826.4,1208z"
				/>
			<path id="XMLID_369_" class="st8" d="M1108.4,159.7H773.6c-52.2,0-95.5,38.2-103.4,88.1c9.4,13.1,129.7,176.8,270.9,176.8
				s261.4-163.7,270.9-176.8C1203.9,197.9,1160.6,159.7,1108.4,159.7z"/>
			<path id="XMLID_371_" class="st3" d="M670.1,247.8c0-0.3,0.1-0.6,0.2-0.8h-1.5l0,472.3H788l0-352.6
				C721.6,318.1,675.8,255.7,670.1,247.8z"/>
			<path id="XMLID_370_" class="st3" d="M1211.7,247c0,0.3,0.1,0.6,0.2,0.8c-5.7,7.9-51.5,70.3-117.9,118.8v352.6h119.2V247H1211.7z
				"/>
		</g>
		<circle id="XMLID_374_" class="st7" cx="941" cy="855.3" r="93.7"/>
		<g id="XMLID_380_">
			<circle id="XMLID_373_" class="st9" cx="941" cy="848.8" r="93.7"/>
			<path id="XMLID_375_" class="st8" d="M941,760.5c50.8,0,92.2,40.5,93.7,91c0-0.9,0-1.8,0-2.7c0-51.7-41.9-93.7-93.7-93.7
				s-93.7,41.9-93.7,93.7c0,0.9,0,1.8,0,2.7C848.8,801,890.2,760.5,941,760.5z"/>
			<path id="XMLID_376_" class="st3" d="M941,937.2c-50.8,0-92.2-40.5-93.7-91c0,0.9,0,1.8,0,2.7c0,51.7,41.9,93.7,93.7,93.7
				s93.7-41.9,93.7-93.7c0-0.9,0-1.8,0-2.7C1033.2,896.7,991.9,937.2,941,937.2z"/>
		</g>
		<g id="XMLID_372_">
			<circle id="XMLID_378_" class="st7" cx="941" cy="854.1" r="47.7"/>
			<circle id="XMLID_377_" class="st2" cx="941" cy="849.1" r="47.7"/>
			<path id="XMLID_379_" class="st8" d="M941,804.4c25.8,0,46.8,20.5,47.6,46.2c0-0.5,0-1,0-1.5c0-26.3-21.3-47.7-47.7-47.7
				s-47.7,21.3-47.7,47.7c0,0.5,0,1,0,1.5C894.2,824.9,915.2,804.4,941,804.4z"/>
			<path id="XMLID_381_" class="st7" d="M941,893.7c-25.8,0-46.8-20.5-47.6-46.2c0,0.5,0,1,0,1.5c0,26.3,21.3,47.7,47.7,47.7
				s47.7-21.3,47.7-47.7c0-0.5,0-1,0-1.5C987.8,873.2,966.8,893.7,941,893.7z"/>
		</g>
	</g>
</g>
</svg>
