<?xml version="1.0" encoding="utf-8"?>
<!-- Generator: Adobe Illustrator 19.0.0, SVG Export Plug-In . SVG Version: 6.00 Build 0)  -->
<svg version="1.1" id="Layer_1" xmlns="http://www.w3.org/2000/svg" xmlns:xlink="http://www.w3.org/1999/xlink" x="0px" y="0px"
	 viewBox="0 0 1900 1200" style="enable-background:new 0 0 1900 1200;" xml:space="preserve">
<style type="text/css">
	.st0{display:none;fill:#21252D;}
	.st1{fill:#FFFFFF;}
	.st2{fill:#424A56;}
	.st3{opacity:0.75;fill:#69707C;}
	.st4{fill:#79818E;}
	.st5{opacity:0.5;fill:#424A56;}
	.st6{opacity:0.5;fill:#69707C;}
	.st7{fill:#FEBC1D;}
	.st8{fill:#F29120;}
	.st9{opacity:0.25;clip-path:url(#XMLID_16_);fill:#29313A;}
	.st10{opacity:0.15;}
	.st11{fill:#CB7028;}
</style>
<rect id="XMLID_2_" class="st0" width="1900" height="1200"/>
<g id="XMLID_6_">
	<path id="XMLID_22_" class="st1" d="M1229,1104.6H671c-128.7,0-233-104.3-233-233v-558c0-128.7,104.3-233,233-233h558
		c128.7,0,233,104.3,233,233v558C1462,1000.3,1357.7,1104.6,1229,1104.6z"/>
</g>
<path id="XMLID_7_" class="st2" d="M1334.7,934.5H565.3c-20,0-36.3-16.2-36.3-36.3V386.9c0-20,16.2-36.3,36.3-36.3h769.4
	c20,0,36.3,16.2,36.3,36.3v511.3C1371,918.3,1354.8,934.5,1334.7,934.5z"/>
<path id="XMLID_8_" class="st3" d="M759.3,934.5h-194c-20,0-36.3-16.2-36.3-36.3V386.9c0-20,16.2-36.3,36.3-36.3h194V934.5z"/>
<circle id="XMLID_52_" class="st4" cx="644.1" cy="642.6" r="78.4"/>
<circle id="XMLID_53_" class="st5" cx="644.1" cy="642.6" r="43.3"/>
<rect id="XMLID_58_" x="565.7" y="493.6" class="st4" width="156.8" height="38"/>
<rect id="XMLID_100_" x="565.7" y="433.9" class="st4" width="156.8" height="38"/>
<rect id="XMLID_103_" x="565.7" y="813.2" class="st4" width="156.8" height="38"/>
<rect id="XMLID_102_" x="565.7" y="753.5" class="st4" width="156.8" height="38"/>
<rect id="XMLID_11_" x="759.3" y="399.6" class="st6" width="565.4" height="486"/>
<g id="XMLID_1_">
	<path id="XMLID_3_" class="st7" d="M1084,627.2h-84v-455c0-6.3,5.1-11.5,11.5-11.5h61.1c6.3,0,11.5,5.1,11.5,11.5V627.2z"/>
	<g id="XMLID_5_">
		<path id="XMLID_31_" class="st1" d="M1042,672.3c-3.4,0-6.5-1.6-8.5-4.5l-24.1-35.6h65.1l-24.1,35.6
			C1048.5,670.7,1045.5,672.3,1042,672.3z"/>
		<path id="XMLID_27_" class="st7" d="M1065.2,637.2l-18.8,27.8c-1.3,2-3.3,2.3-4.3,2.3s-3-0.3-4.3-2.3l-18.8-27.8H1065.2
			 M1084,627.2h-84l29.4,43.4c3,4.5,7.8,6.7,12.6,6.7s9.6-2.2,12.6-6.7L1084,627.2L1084,627.2z"/>
	</g>
	<path id="XMLID_4_" class="st7" d="M1042,190.6L1042,190.6c-12.5,0-22.8-10.2-22.8-22.7v-28.5c0-12.5,10.2-22.7,22.7-22.7h0
		c12.5,0,22.7,10.2,22.7,22.7v28.5C1064.8,180.3,1054.5,190.6,1042,190.6z"/>
	<path id="XMLID_26_" class="st7" d="M1042,669.8c-2.6,0-4.8,2.2-4.8,4.8v11.8c0,2.6,2.2,4.8,4.8,4.8s4.8-2.2,4.8-4.8v-11.8
		C1046.8,672,1044.7,669.8,1042,669.8z"/>
	<rect id="XMLID_18_" x="1000" y="384.3" class="st8" width="84" height="242.9"/>
	<path id="XMLID_10_" class="st1" d="M1042.3,456.3L1042.3,456.3c-4.8,0-8.7,3.9-8.7,8.7v105c0,4.8,3.9,8.7,8.7,8.7l0,0
		c4.8,0,8.7-3.9,8.7-8.7V465C1051,460.2,1047.1,456.3,1042.3,456.3z"/>
</g>
<g id="XMLID_37_">
	<defs>
		<path id="XMLID_13_" d="M1334.7,934.5H565.3c-20,0-36.3-16.2-36.3-36.3V386.9c0-20,16.2-36.3,36.3-36.3h769.4
			c20,0,36.3,16.2,36.3,36.3v511.3C1371,918.3,1354.8,934.5,1334.7,934.5z"/>
	</defs>
	<clipPath id="XMLID_16_">
		<use xlink:href="#XMLID_13_"  style="overflow:visible;"/>
	</clipPath>
	<path id="XMLID_40_" class="st9" d="M1122.6,210.7h-7.8v-21.4c0-12.5-10.2-22.7-22.8-22.7c-12.5,0-22.8,10.2-22.8,22.7v21.4h-7.8
		c-6.3,0-11.5,5.1-11.5,11.5v212.1v242.9l29.4,43.4c2,2.9,4.8,4.9,7.8,5.9v9.9c0,2.6,2.2,4.8,4.8,4.8s4.8-2.2,4.8-4.8v-9.9
		c3-1,5.8-2.9,7.8-5.9l29.4-43.4V434.3V222.2C1134,215.9,1128.9,210.7,1122.6,210.7z"/>
</g>
<g id="XMLID_12_">
	<path id="XMLID_34_" class="st7" d="M1084,637.2h-84v-455c0-6.3,5.1-11.5,11.5-11.5h61.1c6.3,0,11.5,5.1,11.5,11.5V637.2z"/>
	<g id="XMLID_28_">
		<path id="XMLID_25_" class="st1" d="M1042,682.3c-3.4,0-6.5-1.6-8.5-4.5l-24.1-35.6h65.1l-24.1,35.6
			C1048.5,680.7,1045.5,682.3,1042,682.3z"/>
		<path id="XMLID_17_" class="st7" d="M1065.2,647.2l-18.8,27.8c-1.3,2-3.3,2.3-4.3,2.3s-3-0.3-4.3-2.3l-18.8-27.8H1065.2
			 M1084,637.2h-84l29.4,43.4c3,4.5,7.8,6.7,12.6,6.7s9.6-2.2,12.6-6.7L1084,637.2L1084,637.2z"/>
	</g>
	<path id="XMLID_24_" class="st7" d="M1042,200.6L1042,200.6c-12.5,0-22.8-10.2-22.8-22.7v-28.5c0-12.5,10.2-22.7,22.7-22.7h0
		c12.5,0,22.7,10.2,22.7,22.7v28.5C1064.8,190.3,1054.5,200.6,1042,200.6z"/>
	<path id="XMLID_19_" class="st7" d="M1042,679.8c-2.6,0-4.8,2.2-4.8,4.8v11.8c0,2.6,2.2,4.8,4.8,4.8s4.8-2.2,4.8-4.8v-11.8
		C1046.8,682,1044.7,679.8,1042,679.8z"/>
	<rect id="XMLID_15_" x="1000" y="394.3" class="st8" width="84" height="242.9"/>
	<path id="XMLID_14_" class="st1" d="M1042.3,466.3L1042.3,466.3c-4.8,0-8.7,3.9-8.7,8.7v105c0,4.8,3.9,8.7,8.7,8.7l0,0
		c4.8,0,8.7-3.9,8.7-8.7V475C1051,470.2,1047.1,466.3,1042.3,466.3z"/>
</g>
<g id="XMLID_41_" class="st10">
	<path id="XMLID_39_" class="st11" d="M1046.8,686.6L1046.8,686.6c3-1.1,5.8-3,7.8-6l29.4-43.4V394.3V172.2
		c0-6.3-5.1-11.5-11.5-11.5h-7.8V160h-8.3v482.6l-14.5,43.3L1046.8,686.6z"/>
</g>
</svg>
