<?xml version="1.0" encoding="utf-8"?>
<!-- Generator: Adobe Illustrator 19.0.0, SVG Export Plug-In . SVG Version: 6.00 Build 0)  -->
<svg version="1.1" id="Layer_1" xmlns="http://www.w3.org/2000/svg" xmlns:xlink="http://www.w3.org/1999/xlink" x="0px" y="0px"
	 viewBox="0 0 1900 1200" style="enable-background:new 0 0 1900 1200;" xml:space="preserve">
<style type="text/css">
	.st0{clip-path:url(#XMLID_161_);fill:#573776;}
	.st1{clip-path:url(#XMLID_161_);fill:#583876;}
	.st2{clip-path:url(#XMLID_161_);fill:#593977;}
	.st3{clip-path:url(#XMLID_161_);fill:#5A3978;}
	.st4{clip-path:url(#XMLID_161_);fill:#5B3A79;}
	.st5{clip-path:url(#XMLID_161_);fill:#5C3A79;}
	.st6{clip-path:url(#XMLID_161_);fill:#5C3B7A;}
	.st7{clip-path:url(#XMLID_161_);fill:#5D3B7B;}
	.st8{clip-path:url(#XMLID_161_);fill:#5E3C7B;}
	.st9{clip-path:url(#XMLID_161_);fill:#5F3C7C;}
	.st10{clip-path:url(#XMLID_161_);fill:#603D7D;}
	.st11{clip-path:url(#XMLID_161_);fill:#613D7E;}
	.st12{clip-path:url(#XMLID_161_);fill:#623E7E;}
	.st13{clip-path:url(#XMLID_161_);fill:#623E7F;}
	.st14{clip-path:url(#XMLID_161_);fill:#633F80;}
	.st15{clip-path:url(#XMLID_161_);fill:#643F81;}
	.st16{clip-path:url(#XMLID_161_);fill:#654081;}
	.st17{clip-path:url(#XMLID_161_);fill:#664182;}
	.st18{clip-path:url(#XMLID_161_);fill:#674183;}
	.st19{clip-path:url(#XMLID_161_);fill:#684284;}
	.st20{clip-path:url(#XMLID_161_);fill:#694284;}
	.st21{clip-path:url(#XMLID_161_);fill:#694385;}
	.st22{clip-path:url(#XMLID_161_);fill:#6A4486;}
	.st23{clip-path:url(#XMLID_161_);fill:#6B4487;}
	.st24{clip-path:url(#XMLID_161_);fill:#6C4588;}
	.st25{clip-path:url(#XMLID_161_);fill:#6D4588;}
	.st26{clip-path:url(#XMLID_161_);fill:#6E4689;}
	.st27{clip-path:url(#XMLID_161_);fill:#6F478A;}
	.st28{clip-path:url(#XMLID_161_);fill:#70478B;}
	.st29{clip-path:url(#XMLID_161_);fill:#71488C;}
	.st30{clip-path:url(#XMLID_161_);fill:#72498D;}
	.st31{clip-path:url(#XMLID_161_);fill:#73498E;}
	.st32{clip-path:url(#XMLID_161_);fill:#744A8F;}
	.st33{clip-path:url(#XMLID_161_);fill:#754B90;}
	.st34{clip-path:url(#XMLID_162_);fill:#EF6230;}
	.st35{clip-path:url(#XMLID_162_);fill:#EF6330;}
	.st36{clip-path:url(#XMLID_162_);fill:#EF6431;}
	.st37{clip-path:url(#XMLID_162_);fill:#F06531;}
	.st38{clip-path:url(#XMLID_162_);fill:#F06632;}
	.st39{clip-path:url(#XMLID_162_);fill:#F06633;}
	.st40{clip-path:url(#XMLID_162_);fill:#F06733;}
	.st41{clip-path:url(#XMLID_162_);fill:#F06834;}
	.st42{clip-path:url(#XMLID_162_);fill:#F06935;}
	.st43{clip-path:url(#XMLID_162_);fill:#F06A35;}
	.st44{clip-path:url(#XMLID_162_);fill:#F06A36;}
	.st45{clip-path:url(#XMLID_162_);fill:#F16B37;}
	.st46{clip-path:url(#XMLID_162_);fill:#F16C38;}
	.st47{clip-path:url(#XMLID_162_);fill:#F16D38;}
	.st48{clip-path:url(#XMLID_162_);fill:#F16E39;}
	.st49{clip-path:url(#XMLID_162_);fill:#F16E3A;}
	.st50{clip-path:url(#XMLID_162_);fill:#F16F3B;}
	.st51{clip-path:url(#XMLID_162_);fill:#F1703B;}
	.st52{clip-path:url(#XMLID_162_);fill:#F1713C;}
	.st53{clip-path:url(#XMLID_162_);fill:#F1713D;}
	.st54{clip-path:url(#XMLID_162_);fill:#F2723E;}
	.st55{clip-path:url(#XMLID_162_);fill:#F2733E;}
	.st56{clip-path:url(#XMLID_162_);fill:#F2743F;}
	.st57{clip-path:url(#XMLID_162_);fill:#F27440;}
	.st58{clip-path:url(#XMLID_162_);fill:#F27541;}
	.st59{clip-path:url(#XMLID_162_);fill:#F27641;}
	.st60{clip-path:url(#XMLID_162_);fill:#F27642;}
	.st61{clip-path:url(#XMLID_162_);fill:#F27743;}
	.st62{clip-path:url(#XMLID_162_);fill:#F27844;}
	.st63{clip-path:url(#XMLID_162_);fill:#F37945;}
	.st64{clip-path:url(#XMLID_162_);fill:#F37A46;}
	.st65{clip-path:url(#SVGID_2_);}
	.st66{fill:#EE622F;}
	.st67{clip-path:url(#SVGID_4_);}
	.st68{fill:#573777;}
	.st69{fill:#3F4354;}
	.st70{fill:#FFFFFF;}
	.st71{fill:#EFEFEF;}
	.st72{opacity:0.85;}
	.st73{fill:#D8D8D8;}
	.st74{opacity:0.5;}
</style>
<g id="XMLID_6_">
	<g id="XMLID_42_">
		<g id="XMLID_69_">
			<defs>
				<path id="XMLID_112_" d="M1229,1110.5H671c-128.7,0-233-104.3-233-233v-558c0-128.7,104.3-233,233-233h558
					c128.7,0,233,104.3,233,233v558C1462,1006.1,1357.7,1110.5,1229,1110.5z"/>
			</defs>
			<clipPath id="XMLID_161_">
				<use xlink:href="#XMLID_112_"  style="overflow:visible;"/>
			</clipPath>
			<polygon id="XMLID_113_" class="st0" points="438,1110.5 671,1110.5 438,1110.5 			"/>
			<polygon id="XMLID_114_" class="st0" points="438,1080.3 1462,1080.3 1462,1110.5 671,1110.5 438,1110.5 			"/>
			<rect id="XMLID_115_" x="438" y="1050.2" class="st1" width="1024" height="30.1"/>
			<rect id="XMLID_116_" x="438" y="1020.1" class="st2" width="1024" height="30.1"/>
			<rect id="XMLID_121_" x="438" y="990" class="st3" width="1024" height="30.1"/>
			<rect id="XMLID_122_" x="438" y="959.9" class="st4" width="1024" height="30.1"/>
			<rect id="XMLID_124_" x="438" y="929.8" class="st5" width="1024" height="30.1"/>
			<rect id="XMLID_125_" x="438" y="899.6" class="st6" width="1024" height="30.1"/>
			<rect id="XMLID_127_" x="438" y="869.5" class="st7" width="1024" height="30.1"/>
			<rect id="XMLID_128_" x="438" y="839.4" class="st8" width="1024" height="30.1"/>
			<rect id="XMLID_130_" x="438" y="809.3" class="st9" width="1024" height="30.1"/>
			<rect id="XMLID_131_" x="438" y="779.2" class="st10" width="1024" height="30.1"/>
			<rect id="XMLID_133_" x="438" y="749.1" class="st11" width="1024" height="30.1"/>
			<rect id="XMLID_134_" x="438" y="718.9" class="st12" width="1024" height="30.1"/>
			<rect id="XMLID_135_" x="438" y="688.8" class="st13" width="1024" height="30.1"/>
			<rect id="XMLID_137_" x="438" y="658.7" class="st14" width="1024" height="30.1"/>
			<rect id="XMLID_138_" x="438" y="628.6" class="st15" width="1024" height="30.1"/>
			<rect id="XMLID_140_" x="438" y="598.5" class="st16" width="1024" height="30.1"/>
			<rect id="XMLID_141_" x="438" y="568.3" class="st17" width="1024" height="30.1"/>
			<rect id="XMLID_143_" x="438" y="538.2" class="st18" width="1024" height="30.1"/>
			<rect id="XMLID_144_" x="438" y="508.1" class="st19" width="1024" height="30.1"/>
			<rect id="XMLID_146_" x="438" y="478" class="st20" width="1024" height="30.1"/>
			<rect id="XMLID_147_" x="438" y="447.9" class="st21" width="1024" height="30.1"/>
			<rect id="XMLID_148_" x="438" y="417.8" class="st22" width="1024" height="30.1"/>
			<rect id="XMLID_149_" x="438" y="387.6" class="st23" width="1024" height="30.1"/>
			<rect id="XMLID_150_" x="438" y="357.5" class="st24" width="1024" height="30.1"/>
			<rect id="XMLID_151_" x="438" y="327.4" class="st25" width="1024" height="30.1"/>
			<rect id="XMLID_152_" x="438" y="297.3" class="st26" width="1024" height="30.1"/>
			<rect id="XMLID_153_" x="438" y="267.2" class="st27" width="1024" height="30.1"/>
			<rect id="XMLID_154_" x="438" y="237.1" class="st28" width="1024" height="30.1"/>
			<rect id="XMLID_155_" x="438" y="206.9" class="st29" width="1024" height="30.1"/>
			<rect id="XMLID_156_" x="438" y="176.8" class="st30" width="1024" height="30.1"/>
			<rect id="XMLID_157_" x="438" y="146.7" class="st31" width="1024" height="30.1"/>
			<rect id="XMLID_158_" x="438" y="116.6" class="st32" width="1024" height="30.1"/>
			<polygon id="XMLID_159_" class="st33" points="1229,86.5 1462,86.5 1462,116.6 438,116.6 438,86.5 			"/>
			<polygon id="XMLID_160_" class="st33" points="1462,86.5 1229,86.5 1462,86.5 			"/>
		</g>
	</g>
</g>
<g id="XMLID_18_">
	<g id="XMLID_70_">
		<defs>
			<path id="XMLID_72_" d="M1461.9,319.5c0-128.7-104.3-233-233-233h-558c-64.3,0-122.6,26.1-164.8,68.2l887.5,887.5
				c42.2-42.2,68.2-100.4,68.2-164.8V319.5z"/>
		</defs>
		<clipPath id="XMLID_162_">
			<use xlink:href="#XMLID_72_"  style="overflow:visible;"/>
		</clipPath>
		<polygon id="XMLID_73_" class="st34" points="506.1,1042.2 1393.5,1042.2 506.1,1042.2 		"/>
		<polygon id="XMLID_74_" class="st34" points="506.1,1012.4 1461.9,1012.4 1461.9,1042.2 1393.6,1042.2 506.1,1042.2 		"/>
		<rect id="XMLID_75_" x="506.1" y="982.5" class="st35" width="955.8" height="29.9"/>
		<rect id="XMLID_76_" x="506.1" y="952.6" class="st36" width="955.8" height="29.9"/>
		<rect id="XMLID_77_" x="506.1" y="922.7" class="st37" width="955.8" height="29.9"/>
		<rect id="XMLID_79_" x="506.1" y="892.9" class="st38" width="955.8" height="29.9"/>
		<rect id="XMLID_80_" x="506.1" y="863" class="st39" width="955.8" height="29.9"/>
		<rect id="XMLID_81_" x="506.1" y="833.1" class="st40" width="955.8" height="29.9"/>
		<rect id="XMLID_82_" x="506.1" y="803.3" class="st41" width="955.8" height="29.9"/>
		<rect id="XMLID_83_" x="506.1" y="773.4" class="st42" width="955.8" height="29.9"/>
		<rect id="XMLID_84_" x="506.1" y="743.5" class="st43" width="955.8" height="29.9"/>
		<rect id="XMLID_85_" x="506.1" y="713.7" class="st44" width="955.8" height="29.9"/>
		<rect id="XMLID_86_" x="506.1" y="683.8" class="st45" width="955.8" height="29.9"/>
		<rect id="XMLID_87_" x="506.1" y="653.9" class="st46" width="955.8" height="29.9"/>
		<rect id="XMLID_89_" x="506.1" y="624.1" class="st47" width="955.8" height="29.9"/>
		<rect id="XMLID_90_" x="506.1" y="594.2" class="st48" width="955.8" height="29.9"/>
		<rect id="XMLID_91_" x="506.1" y="564.3" class="st49" width="955.8" height="29.9"/>
		<rect id="XMLID_92_" x="506.1" y="534.5" class="st50" width="955.8" height="29.9"/>
		<rect id="XMLID_93_" x="506.1" y="504.6" class="st51" width="955.8" height="29.9"/>
		<rect id="XMLID_94_" x="506.1" y="474.7" class="st52" width="955.8" height="29.9"/>
		<rect id="XMLID_96_" x="506.1" y="444.9" class="st53" width="955.8" height="29.9"/>
		<rect id="XMLID_97_" x="506.1" y="415" class="st54" width="955.8" height="29.9"/>
		<rect id="XMLID_98_" x="506.1" y="385.1" class="st55" width="955.8" height="29.9"/>
		<rect id="XMLID_99_" x="506.1" y="355.3" class="st56" width="955.8" height="29.9"/>
		<rect id="XMLID_100_" x="506.1" y="325.4" class="st57" width="955.8" height="29.9"/>
		<rect id="XMLID_101_" x="506.1" y="295.5" class="st58" width="955.8" height="29.9"/>
		<rect id="XMLID_102_" x="506.1" y="265.7" class="st59" width="955.8" height="29.9"/>
		<rect id="XMLID_104_" x="506.1" y="235.8" class="st60" width="955.8" height="29.9"/>
		<rect id="XMLID_105_" x="506.1" y="205.9" class="st61" width="955.8" height="29.9"/>
		<rect id="XMLID_106_" x="506.1" y="176.1" class="st62" width="955.8" height="29.9"/>
		<rect id="XMLID_107_" x="506.1" y="146.2" class="st63" width="955.8" height="29.9"/>
		<rect id="XMLID_108_" x="506.1" y="116.3" class="st63" width="955.8" height="29.9"/>
		<polygon id="XMLID_109_" class="st64" points="1228.9,86.5 1461.9,86.5 1461.9,116.3 506.1,116.3 506.1,86.5 		"/>
		<polygon id="XMLID_111_" class="st64" points="1461.9,86.5 1228.9,86.5 1461.9,86.5 		"/>
	</g>
</g>
<g id="XMLID_120_">
	<defs>
		<path id="SVGID_1_" d="M1461.9,319.5c0-128.7-104.3-233-233-233h-558c-64.3,0-122.6,26.1-164.8,68.2l887.5,887.5
			c42.2-42.2,68.2-100.4,68.2-164.8V319.5z"/>
	</defs>
	<clipPath id="SVGID_2_">
		<use xlink:href="#SVGID_1_"  style="overflow:visible;"/>
	</clipPath>
	<g id="XMLID_34_" class="st65">
		<g id="XMLID_37_">
			<path class="st66" d="M1384.1,907.6l-37.5,37.5l2.1,21.8l91,91l57.1-57.1l-91-91L1384.1,907.6z M1388.8,952.8
				c-4.5,4.5-11.7,4.5-16.1,0c-4.5-4.5-4.5-11.7,0-16.1s11.7-4.5,16.1,0S1393.2,948.3,1388.8,952.8z"/>
		</g>
		<g id="XMLID_41_">
			<path class="st66" d="M1406.7,670.7l-37.5,37.5l2.1,21.8l91,91l57.1-57.1l-91-91L1406.7,670.7z M1411.4,715.8
				c-4.5,4.5-11.7,4.5-16.1,0c-4.5-4.5-4.5-11.7,0-16.1s11.7-4.5,16.1,0S1415.9,711.3,1411.4,715.8z"/>
		</g>
		<g id="XMLID_58_">
			<path class="st66" d="M1148.6,524.9l-37.5,37.5l2.1,21.8l91,91l57.1-57.1l-91-91L1148.6,524.9z M1153.3,570
				c-4.5,4.5-11.7,4.5-16.1,0c-4.5-4.5-4.5-11.7,0-16.1s11.7-4.5,16.1,0S1157.8,565.5,1153.3,570z"/>
		</g>
		<g id="XMLID_71_">
			<path class="st66" d="M1211.6,290.7l-37.5,37.5l2.1,21.8l91,91l57.1-57.1l-91-91L1211.6,290.7z M1216.3,335.8
				c-4.5,4.5-11.7,4.5-16.1,0c-4.5-4.5-4.5-11.7,0-16.1s11.7-4.5,16.1,0S1220.7,331.4,1216.3,335.8z"/>
		</g>
		<g id="XMLID_78_">
			<path class="st66" d="M912.3,235.2l-37.5,37.5l2.1,21.8l91,91l57.1-57.1l-91-91L912.3,235.2z M917,280.3
				c-4.5,4.5-11.7,4.5-16.1,0c-4.5-4.5-4.5-11.7,0-16.1s11.7-4.5,16.1,0C921.5,268.7,921.5,275.9,917,280.3z"/>
		</g>
		<g id="XMLID_88_">
			<path class="st66" d="M636.6,110.6l-37.5,37.5l2.1,21.8l91,91l57.1-57.1l-91-91L636.6,110.6z M641.3,155.7
				c-4.5,4.5-11.7,4.5-16.1,0c-4.5-4.5-4.5-11.7,0-16.1c4.5-4.5,11.7-4.5,16.1,0C645.8,144.1,645.8,151.3,641.3,155.7z"/>
		</g>
		<g id="XMLID_95_">
			<path class="st66" d="M996.5,35.5L959,73l2.1,21.8l91,91l57.1-57.1l-91-91L996.5,35.5z M1001.2,80.6c-4.5,4.5-11.7,4.5-16.1,0
				c-4.5-4.5-4.5-11.7,0-16.1s11.7-4.5,16.1,0C1005.6,68.9,1005.6,76.2,1001.2,80.6z"/>
		</g>
		<g id="XMLID_103_">
			<path class="st66" d="M1284.1,54.5L1246.6,92l2.1,21.8l91,91l57.1-57.1l-91-91L1284.1,54.5z M1288.7,99.7
				c-4.5,4.5-11.7,4.5-16.1,0c-4.5-4.5-4.5-11.7,0-16.1s11.7-4.5,16.1,0C1293.2,88,1293.2,95.2,1288.7,99.7z"/>
		</g>
		<g id="XMLID_110_">
			<path class="st66" d="M1459.2,475.4l-37.5,37.5l2.1,21.8l91,91l57.1-57.1l-91-91L1459.2,475.4z M1463.9,520.5
				c-4.5,4.5-11.7,4.5-16.1,0c-4.5-4.5-4.5-11.7,0-16.1s11.7-4.5,16.1,0C1468.3,508.8,1468.3,516.1,1463.9,520.5z"/>
		</g>
	</g>
</g>
<g id="XMLID_36_">
	<defs>
		<path id="SVGID_3_" d="M1229,1110.5H671c-128.7,0-233-104.3-233-233v-558c0-128.7,104.3-233,233-233h558
			c128.7,0,233,104.3,233,233v558C1462,1006.1,1357.7,1110.5,1229,1110.5z"/>
	</defs>
	<clipPath id="SVGID_4_">
		<use xlink:href="#SVGID_3_"  style="overflow:visible;"/>
	</clipPath>
	<g id="XMLID_118_" class="st67">
		<g id="XMLID_145_">
			<path class="st68" d="M1245.2,1070.3l91,91l57.1-57.1l-91-91l-21.8-2.1l-37.5,37.5L1245.2,1070.3z M1272.1,1053.3
				c-4.5-4.5-4.5-11.7,0-16.1s11.7-4.5,16.1,0s4.5,11.7,0,16.1S1276.6,1057.7,1272.1,1053.3z"/>
		</g>
		<g id="XMLID_142_">
			<path class="st68" d="M1008.3,1093l91,91l57.1-57.1l-91-91l-21.8-2.1l-37.5,37.5L1008.3,1093z M1035.1,1075.9
				c-4.5-4.5-4.5-11.7,0-16.1c4.5-4.5,11.7-4.5,16.1,0c4.5,4.5,4.5,11.7,0,16.1S1039.6,1080.4,1035.1,1075.9z"/>
		</g>
		<g id="XMLID_139_">
			<path class="st68" d="M862.5,834.9l91,91l57.1-57.1l-91-91l-21.8-2.1l-37.5,37.5L862.5,834.9z M889.4,817.8
				c-4.5-4.5-4.5-11.7,0-16.1s11.7-4.5,16.1,0s4.5,11.7,0,16.1S893.8,822.2,889.4,817.8z"/>
		</g>
		<g id="XMLID_136_">
			<path class="st68" d="M628.3,897.9l91,91l57.1-57.1l-91-91l-21.8-2.1l-37.5,37.5L628.3,897.9z M655.2,880.8
				c-4.5-4.5-4.5-11.7,0-16.1s11.7-4.5,16.1,0c4.5,4.5,4.5,11.7,0,16.1S659.7,885.2,655.2,880.8z"/>
		</g>
		<g id="XMLID_132_">
			<path class="st68" d="M572.8,598.6l91,91l57.1-57.1l-91-91l-21.8-2.1l-37.5,37.5L572.8,598.6z M599.7,581.5
				c-4.5-4.5-4.5-11.7,0-16.1s11.7-4.5,16.1,0c4.5,4.5,4.5,11.7,0,16.1S604.2,586,599.7,581.5z"/>
		</g>
		<g id="XMLID_129_">
			<path class="st68" d="M448.2,322.9l91,91l57.1-57.1l-91-91l-21.8-2.1l-37.5,37.5L448.2,322.9z M475.1,305.8
				c-4.5-4.5-4.5-11.7,0-16.1c4.5-4.5,11.7-4.5,16.1,0c4.5,4.5,4.5,11.7,0,16.1C486.8,310.3,479.6,310.3,475.1,305.8z"/>
		</g>
		<g id="XMLID_126_">
			<path class="st68" d="M373.1,682.7l91,91l57.1-57.1l-91-91l-21.8-2.1L371,661L373.1,682.7z M400,665.7c-4.5-4.5-4.5-11.7,0-16.1
				s11.7-4.5,16.1,0c4.5,4.5,4.5,11.7,0,16.1S404.4,670.1,400,665.7z"/>
		</g>
		<g id="XMLID_123_">
			<path class="st68" d="M392.1,970.3l91,91l57.1-57.1l-91-91l-21.8-2.1l-37.5,37.5L392.1,970.3z M419,953.2
				c-4.5-4.5-4.5-11.7,0-16.1c4.5-4.5,11.7-4.5,16.1,0c4.5,4.5,4.5,11.7,0,16.1S423.5,957.7,419,953.2z"/>
		</g>
		<g id="XMLID_119_">
			<path class="st68" d="M813,1145.5l91,91l57.1-57.1l-91-91l-21.8-2.1l-37.5,37.5L813,1145.5z M839.9,1128.4
				c-4.5-4.5-4.5-11.7,0-16.1c4.5-4.5,11.7-4.5,16.1,0c4.5,4.5,4.5,11.7,0,16.1C851.6,1132.8,844.3,1132.8,839.9,1128.4z"/>
		</g>
	</g>
</g>
<g id="XMLID_16_">
	<g id="XMLID_33_">
		<path id="XMLID_67_" class="st69" d="M924,491.8c-4.4,0-8-3.6-8-8v-159c0-38-31-69-69-69s-69,31-69,69v159c0,4.4-3.6,8-8,8
			s-8-3.6-8-8v-159c0-46.9,38.1-85,85-85s85,38.1,85,85v159C932,488.3,928.4,491.8,924,491.8z"/>
	</g>
	<g id="XMLID_19_">
		<rect x="842.6" y="415.5" class="st70" width="383.1" height="533.6"/>
	</g>
	<g id="XMLID_23_">
		<rect x="674.3" y="415.5" class="st71" width="168.3" height="533.6"/>
	</g>
	<g id="XMLID_24_" class="st72">
		<polygon id="XMLID_65_" class="st73" points="674.3,949.1 758.4,898.5 842.6,949.1 		"/>
	</g>
	<g id="XMLID_27_" class="st74">
		<polygon id="XMLID_64_" class="st73" points="758.4,898.5 758.4,415.5 842.6,415.5 842.6,949.1 		"/>
	</g>
	<g id="XMLID_30_">
		<g id="XMLID_31_">
			<circle id="XMLID_60_" class="st73" cx="957.1" cy="485.8" r="16.5"/>
			<path id="XMLID_61_" class="st69" d="M957.1,506.3c-11.3,0-20.5-9.2-20.5-20.5s9.2-20.5,20.5-20.5c11.3,0,20.5,9.2,20.5,20.5
				S968.4,506.3,957.1,506.3z M957.1,473.3c-6.9,0-12.5,5.6-12.5,12.5s5.6,12.5,12.5,12.5s12.5-5.6,12.5-12.5S964,473.3,957.1,473.3
				z"/>
		</g>
		<g id="XMLID_32_">
			<circle id="XMLID_1_" class="st73" cx="1111.1" cy="485.8" r="16.5"/>
			<path id="XMLID_40_" class="st69" d="M1111.1,506.3c-11.3,0-20.5-9.2-20.5-20.5s9.2-20.5,20.5-20.5s20.5,9.2,20.5,20.5
				S1122.4,506.3,1111.1,506.3z M1111.1,473.3c-6.9,0-12.5,5.6-12.5,12.5s5.6,12.5,12.5,12.5s12.5-5.6,12.5-12.5
				S1118,473.3,1111.1,473.3z"/>
		</g>
	</g>
	<g id="XMLID_35_">
		<path id="XMLID_9_" class="st69" d="M1111.1,491.8c-4.4,0-8-3.6-8-8v-159c0-38-31-69-69-69s-69,31-69,69v159c0,4.4-3.6,8-8,8
			s-8-3.6-8-8v-159c0-46.9,38.1-85,85-85s85,38.1,85,85v159C1119.1,488.3,1115.6,491.8,1111.1,491.8z"/>
	</g>
</g>
</svg>
