<?xml version="1.0" encoding="utf-8"?>
<!-- Generator: Adobe Illustrator 19.0.0, SVG Export Plug-In . SVG Version: 6.00 Build 0)  -->
<svg version="1.1" id="Layer_1" xmlns="http://www.w3.org/2000/svg" xmlns:xlink="http://www.w3.org/1999/xlink" x="0px" y="0px"
	 viewBox="0 0 1900 1200" style="enable-background:new 0 0 1900 1200;" xml:space="preserve">
<style type="text/css">
	.st0{fill:#4A5269;}
	.st1{fill:#47BD9D;}
	.st2{fill:#FFCD3B;}
	.st3{fill:#F6AA1C;}
	.st4{opacity:0.2;}
	.st5{fill:#FFFFFF;}
	.st6{opacity:0.1;}
	.st7{fill:#232A3A;}
	.st8{opacity:0.15;}
	.st9{opacity:0.25;}
</style>
<g id="XMLID_3_">
	<g id="XMLID_17_">
		<path class="st0" d="M1229,1110.5H671c-128.7,0-233-104.3-233-233v-558c0-128.7,104.3-233,233-233h558c128.7,0,233,104.3,233,233
			v558C1462,1006.1,1357.7,1110.5,1229,1110.5z"/>
	</g>
</g>
<g id="XMLID_6_">
	<g id="XMLID_23_">
		<path class="st0" d="M1229,1110.5H671c-128.7,0-233-104.3-233-233v-558c0-128.7,104.3-233,233-233h558c128.7,0,233,104.3,233,233
			v558C1462,1006.1,1357.7,1110.5,1229,1110.5z"/>
	</g>
</g>
<g id="XMLID_33_">
	<polygon class="st1" points="1159.1,515 697,345.5 866.6,807.6 	"/>
</g>
<g id="XMLID_1_">
	<path id="XMLID_24_" class="st2" d="M1198.7,770.9l-76.3,76.3c-3.9,3.9-10.2,3.9-14.1,0L967.7,706.6l90.4-90.4l140.6,140.6
		C1202.6,760.7,1202.6,767,1198.7,770.9z"/>
</g>
<g id="XMLID_2_">
	<g id="XMLID_4_">
		
			<rect id="XMLID_30_" x="1020" y="614.5" transform="matrix(0.7071 0.7071 -0.7071 0.7071 781.4487 -529.6123)" class="st3" width="20" height="127.9"/>
	</g>
	<g id="XMLID_5_">
		
			<rect id="XMLID_29_" x="1048.4" y="642.9" transform="matrix(0.7071 0.7071 -0.7071 0.7071 809.7846 -541.3494)" class="st3" width="20" height="127.9"/>
	</g>
	<g id="XMLID_21_">
		
			<rect id="XMLID_28_" x="1076.7" y="671.2" transform="matrix(0.7071 0.7071 -0.7071 0.7071 838.1205 -553.0865)" class="st3" width="20" height="127.9"/>
	</g>
	<g id="XMLID_40_">
		
			<rect id="XMLID_27_" x="1105" y="699.6" transform="matrix(0.7071 0.7071 -0.7071 0.7071 866.4572 -564.8234)" class="st3" width="20" height="127.9"/>
	</g>
	<g id="XMLID_50_">
		
			<rect id="XMLID_26_" x="1133.4" y="727.9" transform="matrix(0.7071 0.7071 -0.7071 0.7071 894.7933 -576.5609)" class="st3" width="20" height="127.9"/>
	</g>
</g>
<g id="XMLID_16_" class="st4">
	<polygon id="XMLID_22_" class="st5" points="697,345.5 1012.8,661.3 1159.1,515 	"/>
</g>
<g id="XMLID_45_" class="st6">
	<polygon id="XMLID_20_" class="st7" points="847.8,756.4 866.6,807.6 1159.1,515 1108,496.2 	"/>
</g>
<g id="XMLID_14_" class="st4">
	
		<rect id="XMLID_9_" x="957.4" y="657.8" transform="matrix(0.7071 -0.7071 0.7071 0.7071 -174.4957 918.4179)" class="st7" width="127.9" height="24"/>
</g>
<g id="XMLID_39_" class="st8">
	<path id="XMLID_7_" class="st7" d="M1012.9,661.3l-45.2,45.2l140.6,140.6c3.9,3.9,10.2,3.9,14.1,0l38.1-38.1L1012.9,661.3z"/>
</g>
<g id="XMLID_11_" class="st4">
	<g id="XMLID_19_">
		<path class="st5" d="M1193.4,245h256.4c-31.1-92.2-118.2-158.5-220.8-158.5H671c-102.6,0-189.8,66.4-220.8,158.5h290.5
			c9.6-27,32.9-47.5,89.4,0h248.5C1094.7,221.2,1127.7,202,1193.4,245z"/>
	</g>
</g>
<g id="XMLID_13_" class="st9">
	<g id="XMLID_15_">
		<path class="st7" d="M809.3,951.9c-3.8,21.5-25.4,34.4-92,8.8l9.3-8.8H450.2c31.1,92.2,118.2,158.5,220.8,158.5h558
			c102.6,0,189.8-66.4,220.8-158.5H809.3z"/>
	</g>
</g>
<g id="XMLID_10_" class="st9">
	<g id="XMLID_12_">
		<path class="st7" d="M1303.5,98.6v372.6c24.4,17.8,58.5,52.3,0,77.5v277.7c24.5-3.2,40.7,0.8,0,31.7v240.2
			c92.2-31.1,158.5-118.2,158.5-220.8v-558C1462,216.8,1395.6,129.7,1303.5,98.6z"/>
	</g>
</g>
<g id="XMLID_18_" class="st4">
	<g id="XMLID_8_">
		<path class="st5" d="M596.5,749V98.6C504.4,129.7,438,216.8,438,319.5v558c0,102.6,66.4,189.8,158.5,220.8V869.8
			C583,850.1,574.6,814,596.5,749z"/>
	</g>
</g>
</svg>
