<?xml version="1.0" encoding="utf-8"?>
<!-- Generator: Adobe Illustrator 19.0.0, SVG Export Plug-In . SVG Version: 6.00 Build 0)  -->
<svg version="1.1" id="Layer_1" xmlns="http://www.w3.org/2000/svg" xmlns:xlink="http://www.w3.org/1999/xlink" x="0px" y="0px"
	 viewBox="0 0 1900 1200" style="enable-background:new 0 0 1900 1200;" xml:space="preserve">
<style type="text/css">
	.st0{display:none;fill:#191717;}
	.st1{fill:#825CA6;}
	.st2{clip-path:url(#XMLID_6_);}
	.st3{fill:#634389;}
	.st4{opacity:0.35;fill:#493368;}
	.st5{clip-path:url(#XMLID_8_);}
	.st6{fill:url(#XMLID_9_);}
	.st7{fill:#FFFFFF;}
	.st8{fill:url(#XMLID_10_);}
	.st9{fill:url(#XMLID_11_);}
	.st10{fill:#F05545;}
	.st11{fill:#433D49;}
</style>
<rect id="XMLID_1_" class="st0" width="1900" height="1200"/>
<g id="XMLID_23_">
	<path id="XMLID_7_" class="st1" d="M1229,1110.5H671c-128.7,0-233-104.3-233-233v-558c0-128.7,104.3-233,233-233h558
		c128.7,0,233,104.3,233,233v558C1462,1006.1,1357.7,1110.5,1229,1110.5z"/>
</g>
<g id="XMLID_2_">
	<defs>
		<path id="XMLID_66_" d="M1229,1110.5H671c-128.7,0-233-104.3-233-233v-558c0-128.7,104.3-233,233-233h558
			c128.7,0,233,104.3,233,233v558C1462,1006.1,1357.7,1110.5,1229,1110.5z"/>
	</defs>
	<clipPath id="XMLID_6_">
		<use xlink:href="#XMLID_66_"  style="overflow:visible;"/>
	</clipPath>
	<g id="XMLID_3_" class="st2">
		<g id="XMLID_4_">
			<circle id="XMLID_174_" class="st3" cx="657.7" cy="527" r="47"/>
			<circle id="XMLID_173_" class="st3" cx="657.7" cy="380.9" r="47"/>
			<circle id="XMLID_172_" class="st3" cx="511.5" cy="527" r="47"/>
			<circle id="XMLID_171_" class="st3" cx="511.5" cy="380.9" r="47"/>
			<circle id="XMLID_170_" class="st3" cx="950" cy="527" r="47"/>
			<circle id="XMLID_169_" class="st3" cx="950" cy="380.9" r="47"/>
			<circle id="XMLID_168_" class="st3" cx="803.8" cy="527" r="47"/>
			<circle id="XMLID_167_" class="st3" cx="803.8" cy="380.9" r="47"/>
			<circle id="XMLID_166_" class="st3" cx="657.7" cy="234.7" r="47"/>
			<circle id="XMLID_165_" class="st3" cx="657.7" cy="88.6" r="47"/>
			<circle id="XMLID_164_" class="st3" cx="511.5" cy="234.7" r="47"/>
			<circle id="XMLID_163_" class="st3" cx="511.5" cy="88.6" r="47"/>
			<circle id="XMLID_162_" class="st3" cx="950" cy="234.7" r="47"/>
			<circle id="XMLID_161_" class="st3" cx="950" cy="88.6" r="47"/>
			<circle id="XMLID_160_" class="st3" cx="803.8" cy="234.7" r="47"/>
			<circle id="XMLID_159_" class="st3" cx="803.8" cy="88.6" r="47"/>
			<circle id="XMLID_158_" class="st3" cx="657.7" cy="-58.8" r="47"/>
			<circle id="XMLID_157_" class="st3" cx="657.7" cy="-205" r="47"/>
			<circle id="XMLID_156_" class="st3" cx="511.5" cy="-58.8" r="47"/>
			<circle id="XMLID_155_" class="st3" cx="511.5" cy="-205" r="47"/>
			<circle id="XMLID_154_" class="st3" cx="365.4" cy="527" r="47"/>
			<circle id="XMLID_153_" class="st3" cx="365.4" cy="380.9" r="47"/>
			<circle id="XMLID_152_" class="st3" cx="365.4" cy="234.7" r="47"/>
			<circle id="XMLID_151_" class="st3" cx="365.4" cy="88.6" r="47"/>
			<circle id="XMLID_150_" class="st3" cx="365.4" cy="-58.8" r="47"/>
			<circle id="XMLID_149_" class="st3" cx="365.4" cy="-205" r="47"/>
			<circle id="XMLID_148_" class="st3" cx="950" cy="-58.8" r="47"/>
			<circle id="XMLID_147_" class="st3" cx="950" cy="-205" r="47"/>
			<circle id="XMLID_146_" class="st3" cx="803.8" cy="-58.8" r="47"/>
			<circle id="XMLID_145_" class="st3" cx="803.8" cy="-205" r="47"/>
			<circle id="XMLID_144_" class="st3" cx="1242.3" cy="527" r="47"/>
			<circle id="XMLID_143_" class="st3" cx="1242.3" cy="380.9" r="47"/>
			<circle id="XMLID_142_" class="st3" cx="1096.2" cy="527" r="47"/>
			<circle id="XMLID_141_" class="st3" cx="1096.2" cy="380.9" r="47"/>
			<circle id="XMLID_140_" class="st3" cx="1534.6" cy="527" r="47"/>
			<circle id="XMLID_139_" class="st3" cx="1534.6" cy="380.9" r="47"/>
			<circle id="XMLID_138_" class="st3" cx="1388.5" cy="527" r="47"/>
			<circle id="XMLID_137_" class="st3" cx="1388.5" cy="380.9" r="47"/>
			<circle id="XMLID_136_" class="st3" cx="1242.3" cy="234.7" r="47"/>
			<circle id="XMLID_135_" class="st3" cx="1242.3" cy="88.6" r="47"/>
			<circle id="XMLID_134_" class="st3" cx="1096.2" cy="234.7" r="47"/>
			<circle id="XMLID_133_" class="st3" cx="1096.2" cy="88.6" r="47"/>
			<circle id="XMLID_132_" class="st3" cx="1534.6" cy="234.7" r="47"/>
			<circle id="XMLID_131_" class="st3" cx="1534.6" cy="88.6" r="47"/>
			<circle id="XMLID_130_" class="st3" cx="1388.5" cy="234.7" r="47"/>
			<circle id="XMLID_129_" class="st3" cx="1388.5" cy="88.6" r="47"/>
			<circle id="XMLID_128_" class="st3" cx="1242.3" cy="-58.8" r="47"/>
			<circle id="XMLID_127_" class="st3" cx="1242.3" cy="-205" r="47"/>
			<circle id="XMLID_126_" class="st3" cx="1096.2" cy="-58.8" r="47"/>
			<circle id="XMLID_125_" class="st3" cx="1096.2" cy="-205" r="47"/>
			<circle id="XMLID_124_" class="st3" cx="1534.6" cy="-58.8" r="47"/>
			<circle id="XMLID_123_" class="st3" cx="1534.6" cy="-205" r="47"/>
			<circle id="XMLID_122_" class="st3" cx="1388.5" cy="-58.8" r="47"/>
			<circle id="XMLID_121_" class="st3" cx="1388.5" cy="-205" r="47"/>
		</g>
		<g id="XMLID_61_">
			<circle id="XMLID_213_" class="st3" cx="657.7" cy="1401.9" r="47"/>
			<circle id="XMLID_212_" class="st3" cx="657.7" cy="1255.8" r="47"/>
			<circle id="XMLID_211_" class="st3" cx="511.5" cy="1401.9" r="47"/>
			<circle id="XMLID_210_" class="st3" cx="511.5" cy="1255.8" r="47"/>
			<circle id="XMLID_209_" class="st3" cx="950" cy="1401.9" r="47"/>
			<circle id="XMLID_208_" class="st3" cx="950" cy="1255.8" r="47"/>
			<circle id="XMLID_207_" class="st3" cx="803.8" cy="1401.9" r="47"/>
			<circle id="XMLID_206_" class="st3" cx="803.8" cy="1255.8" r="47"/>
			<circle id="XMLID_205_" class="st3" cx="657.7" cy="1109.6" r="47"/>
			<circle id="XMLID_204_" class="st3" cx="657.7" cy="963.5" r="47"/>
			<circle id="XMLID_203_" class="st3" cx="511.5" cy="1109.6" r="47"/>
			<circle id="XMLID_202_" class="st3" cx="511.5" cy="963.5" r="47"/>
			<circle id="XMLID_201_" class="st3" cx="950" cy="1109.6" r="47"/>
			<circle id="XMLID_200_" class="st3" cx="950" cy="963.5" r="47"/>
			<circle id="XMLID_199_" class="st3" cx="803.8" cy="1109.6" r="47"/>
			<circle id="XMLID_198_" class="st3" cx="803.8" cy="963.5" r="47"/>
			<circle id="XMLID_197_" class="st3" cx="657.7" cy="816" r="47"/>
			<circle id="XMLID_196_" class="st3" cx="657.7" cy="669.9" r="47"/>
			<circle id="XMLID_195_" class="st3" cx="511.5" cy="816" r="47"/>
			<circle id="XMLID_194_" class="st3" cx="511.5" cy="669.9" r="47"/>
			<circle id="XMLID_193_" class="st3" cx="365.4" cy="1401.9" r="47"/>
			<circle id="XMLID_192_" class="st3" cx="365.4" cy="1255.8" r="47"/>
			<circle id="XMLID_191_" class="st3" cx="365.4" cy="1109.6" r="47"/>
			<circle id="XMLID_190_" class="st3" cx="365.4" cy="963.5" r="47"/>
			<circle id="XMLID_189_" class="st3" cx="365.4" cy="816" r="47"/>
			<circle id="XMLID_188_" class="st3" cx="365.4" cy="669.9" r="47"/>
			<circle id="XMLID_187_" class="st3" cx="950" cy="816" r="47"/>
			<circle id="XMLID_186_" class="st3" cx="950" cy="669.9" r="47"/>
			<circle id="XMLID_185_" class="st3" cx="803.8" cy="816" r="47"/>
			<circle id="XMLID_184_" class="st3" cx="803.8" cy="669.9" r="47"/>
			<circle id="XMLID_183_" class="st3" cx="1242.3" cy="1401.9" r="47"/>
			<circle id="XMLID_182_" class="st3" cx="1242.3" cy="1255.8" r="47"/>
			<circle id="XMLID_181_" class="st3" cx="1096.2" cy="1401.9" r="47"/>
			<circle id="XMLID_180_" class="st3" cx="1096.2" cy="1255.8" r="47"/>
			<circle id="XMLID_179_" class="st3" cx="1534.6" cy="1401.9" r="47"/>
			<circle id="XMLID_178_" class="st3" cx="1534.6" cy="1255.8" r="47"/>
			<circle id="XMLID_177_" class="st3" cx="1388.5" cy="1401.9" r="47"/>
			<circle id="XMLID_176_" class="st3" cx="1388.5" cy="1255.8" r="47"/>
			<circle id="XMLID_175_" class="st3" cx="1242.3" cy="1109.6" r="47"/>
			<circle id="XMLID_120_" class="st3" cx="1242.3" cy="963.5" r="47"/>
			<circle id="XMLID_119_" class="st3" cx="1096.2" cy="1109.6" r="47"/>
			<circle id="XMLID_118_" class="st3" cx="1096.2" cy="963.5" r="47"/>
			<circle id="XMLID_117_" class="st3" cx="1534.6" cy="1109.6" r="47"/>
			<circle id="XMLID_115_" class="st3" cx="1534.6" cy="963.5" r="47"/>
			<circle id="XMLID_114_" class="st3" cx="1388.5" cy="1109.6" r="47"/>
			<circle id="XMLID_113_" class="st3" cx="1388.5" cy="963.5" r="47"/>
			<circle id="XMLID_111_" class="st3" cx="1242.3" cy="816" r="47"/>
			<circle id="XMLID_109_" class="st3" cx="1242.3" cy="669.9" r="47"/>
			<circle id="XMLID_108_" class="st3" cx="1096.2" cy="816" r="47"/>
			<circle id="XMLID_107_" class="st3" cx="1096.2" cy="669.9" r="47"/>
			<circle id="XMLID_105_" class="st3" cx="1534.6" cy="816" r="47"/>
			<circle id="XMLID_103_" class="st3" cx="1534.6" cy="669.9" r="47"/>
			<circle id="XMLID_102_" class="st3" cx="1388.5" cy="816" r="47"/>
			<circle id="XMLID_97_" class="st3" cx="1388.5" cy="669.9" r="47"/>
		</g>
	</g>
</g>
<rect id="XMLID_70_" x="438" y="494.1" class="st4" width="266.3" height="236.8"/>
<rect id="XMLID_69_" x="1195.7" y="494.1" class="st4" width="266.3" height="236.8"/>
<g id="XMLID_83_">
	<defs>
		<path id="XMLID_93_" d="M1229,1110.5H671c-128.7,0-233-104.3-233-233v-558c0-128.7,104.3-233,233-233h558
			c128.7,0,233,104.3,233,233v558C1462,1006.1,1357.7,1110.5,1229,1110.5z"/>
	</defs>
	<clipPath id="XMLID_8_">
		<use xlink:href="#XMLID_93_"  style="overflow:visible;"/>
	</clipPath>
	<g id="XMLID_80_" class="st5">
		<g id="XMLID_65_">
			<linearGradient id="XMLID_9_" gradientUnits="userSpaceOnUse" x1="515.1667" y1="715.3564" x2="515.1667" y2="481.5693">
				<stop  offset="0" style="stop-color:#E8E9EE"/>
				<stop  offset="1" style="stop-color:#FFFFFF"/>
			</linearGradient>
			<rect id="XMLID_101_" x="327.5" y="481.6" class="st6" width="375.3" height="233.8"/>
			<path id="XMLID_94_" class="st7" d="M701.3,483.1v230.8H329V483.1H701.3 M704.3,480.1H326v236.8h378.3V480.1L704.3,480.1z"/>
		</g>
		<g id="XMLID_67_">
			<linearGradient id="XMLID_10_" gradientUnits="userSpaceOnUse" x1="1424.3335" y1="715.3564" x2="1424.3335" y2="481.5693">
				<stop  offset="0" style="stop-color:#E8E9EE"/>
				<stop  offset="1" style="stop-color:#FFFFFF"/>
			</linearGradient>
			<rect id="XMLID_89_" x="1197.2" y="481.6" class="st8" width="454.3" height="233.8"/>
			<path id="XMLID_79_" class="st7" d="M1650,483.1v230.8h-451.3V483.1H1650 M1653,480.1h-457.3v236.8H1653V480.1L1653,480.1z"/>
		</g>
	</g>
</g>
<circle id="XMLID_68_" class="st4" cx="950" cy="620.3" r="378.8"/>
<g id="XMLID_62_">
	<linearGradient id="XMLID_11_" gradientUnits="userSpaceOnUse" x1="949.9998" y1="973.9434" x2="949.9998" y2="219.2769">
		<stop  offset="0" style="stop-color:#E8E9EE"/>
		<stop  offset="1" style="stop-color:#FFFFFF"/>
	</linearGradient>
	<path id="XMLID_95_" class="st9" d="M950,973.9c-50.9,0-100.4-10-146.9-29.7c-44.9-19-85.3-46.2-119.9-80.9
		c-34.7-34.7-61.9-75-80.9-119.9c-19.7-46.5-29.7-95.9-29.7-146.9s10-100.4,29.7-146.9c19-44.9,46.2-85.3,80.9-119.9
		c34.7-34.7,75-61.9,119.9-80.9c46.5-19.7,95.9-29.7,146.9-29.7s100.4,10,146.9,29.7c44.9,19,85.3,46.2,119.9,80.9
		c34.7,34.7,61.9,75,80.9,119.9c19.7,46.5,29.7,95.9,29.7,146.9s-10,100.4-29.7,146.9c-19,44.9-46.2,85.3-80.9,119.9
		s-75,61.9-119.9,80.9C1050.4,964,1000.9,973.9,950,973.9z"/>
	<path id="XMLID_64_" class="st7" d="M950,220.8c50.7,0,100,9.9,146.3,29.5c44.8,18.9,84.9,46,119.5,80.5
		c34.5,34.5,61.6,74.7,80.5,119.5c19.6,46.3,29.5,95.6,29.5,146.3s-9.9,100-29.5,146.3c-18.9,44.8-46,84.9-80.5,119.5
		c-34.5,34.5-74.7,61.6-119.5,80.5c-46.3,19.6-95.6,29.5-146.3,29.5s-100-9.9-146.3-29.5c-44.8-18.9-84.9-46-119.5-80.5
		c-34.5-34.5-61.6-74.7-80.5-119.5c-19.6-46.3-29.5-95.6-29.5-146.3s9.9-100,29.5-146.3c18.9-44.8,46-84.9,80.5-119.5
		c34.5-34.5,74.7-61.6,119.5-80.5C850,230.7,899.3,220.8,950,220.8 M950,217.8c-209.2,0-378.8,169.6-378.8,378.8
		S740.8,975.4,950,975.4s378.8-169.6,378.8-378.8S1159.2,217.8,950,217.8L950,217.8z"/>
</g>
<g id="XMLID_100_">
	<g id="XMLID_218_">
		<path id="XMLID_85_" class="st10" d="M950,320.1L950,320.1c-61.2,0-111.2,50.1-111.2,111.2V576c0,61.2,50.1,111.2,111.2,111.2h0
			c61.2,0,111.2-50.1,111.2-111.2V431.4C1061.2,370.2,1011.2,320.1,950,320.1z"/>
	</g>
	<g id="XMLID_84_">
		<path id="XMLID_116_" class="st11" d="M1065.3,560.1H834.7c-5,0-9-4-9-9v-94.7c0-5,4-9,9-9h230.7c5,0,9,4,9,9v94.7
			C1074.3,556,1070.3,560.1,1065.3,560.1z"/>
	</g>
	<g id="XMLID_77_">
		<path id="XMLID_99_" class="st11" d="M950,747.1c-45.4,0-88.3-17.8-120.6-50.1c-32.3-32.3-50.1-75.2-50.1-120.6v-75.9h26.2v75.9
			c0,79.7,64.9,144.6,144.6,144.6s144.6-64.9,144.6-144.6v-75.9h26.2v75.9c0,45.4-17.8,88.3-50.1,120.6S995.4,747.1,950,747.1z"/>
	</g>
	<g id="XMLID_76_">
		<path id="XMLID_112_" class="st11" d="M805.4,472h-27.1c-15.6,0-28.4,12.8-28.4,28.4v0c0,15.6,12.8,28.4,28.4,28.4h27.1V472z"/>
	</g>
	<g id="XMLID_75_">
		<path id="XMLID_110_" class="st11" d="M1094.6,472h27.1c15.6,0,28.4,12.8,28.4,28.4v0c0,15.6-12.8,28.4-28.4,28.4h-27.1V472z"/>
	</g>
	<g id="XMLID_74_">
		<rect id="XMLID_86_" x="936.9" y="734" class="st11" width="26.2" height="32"/>
	</g>
	<g id="XMLID_73_">
		<path id="XMLID_106_" class="st11" d="M984.5,766h-68.9c-10.9,0-19.8,8.9-19.8,19.8v6.1c0,10.9,8.9,19.8,19.8,19.8h68.9
			c10.9,0,19.8-8.9,19.8-19.8v-6.1C1004.3,775,995.4,766,984.5,766z"/>
	</g>
	<g id="XMLID_72_">
		<path id="XMLID_104_" class="st11" d="M1047.4,873.1H852.6c-8.8,0-15.9-7.1-15.9-15.9v-21.6c0-25.8,20.9-46.6,46.6-46.6h133.3
			c25.8,0,46.6,20.9,46.6,46.6v21.6C1063.3,866,1056.2,873.1,1047.4,873.1z"/>
	</g>
	<g id="XMLID_71_">
		<circle id="XMLID_90_" class="st10" cx="950" cy="831" r="24.9"/>
	</g>
</g>
</svg>
