<?xml version="1.0" encoding="utf-8"?>
<!-- Generator: Adobe Illustrator 19.0.0, SVG Export Plug-In . SVG Version: 6.00 Build 0)  -->
<svg version="1.1" id="Layer_1" xmlns="http://www.w3.org/2000/svg" xmlns:xlink="http://www.w3.org/1999/xlink" x="0px" y="0px"
	 viewBox="0 0 1900 1200" style="enable-background:new 0 0 1900 1200;" xml:space="preserve">
<style type="text/css">
	.st0{display:none;fill:#21252D;}
	.st1{fill:#FFFFFF;}
	.st2{fill:#FFC355;}
	.st3{opacity:0.3;}
	.st4{fill:#332F3E;}
	.st5{fill:#262431;}
	.st6{fill:none;}
	.st7{fill:#F3AB49;}
	.st8{fill:#F05936;}
</style>
<rect id="XMLID_2_" class="st0" width="1900" height="1200"/>
<g id="XMLID_29_">
	<path id="XMLID_18_" class="st1" d="M1219,1104.8H661c-128.7,0-233-104.3-233-233v-558c0-128.7,104.3-233,233-233h558
		c128.7,0,233,104.3,233,233v558C1452,1000.5,1347.7,1104.8,1219,1104.8z"/>
</g>
<g id="XMLID_1_">
	<path id="XMLID_16_" class="st2" d="M1279.4,641H601.5V394.5c0-18.5,15-33.5,33.5-33.5h610.9c18.5,0,33.5,15,33.5,33.5V641z"/>
</g>
<g id="XMLID_6_" class="st3">
	<path id="XMLID_20_" class="st1" d="M1248.5,736h-617c-8.3,0-15-6.7-15-15s6.7-15,15-15h617c8.3,0,15,6.7,15,15
		S1256.8,736,1248.5,736z"/>
</g>
<g id="XMLID_8_">
	<path id="XMLID_14_" class="st4" d="M1290.6,689.9H589.5V867c0,66.8,54.2,121,121,121h0c63.1,0,114.3,51.2,114.3,114.3v2.5h230.5
		v-2.5c0-63.1,51.2-114.3,114.3-114.3h0c66.8,0,121-54.2,121-121V689.9z"/>
</g>
<g id="XMLID_4_">
	<path id="XMLID_12_" class="st4" d="M1294.2,641H585.9c-7.4,0-13.5,6-13.5,13.5v70.9c0,7.4,6,13.5,13.5,13.5h708.3
		c7.4,0,13.5-6,13.5-13.5v-70.9C1307.7,647,1301.6,641,1294.2,641z"/>
</g>
<g id="XMLID_5_">
	<rect id="XMLID_3_" x="589.5" y="740.1" class="st5" width="701.1" height="25.9"/>
</g>
<g id="XMLID_9_">
	<rect x="601.1" y="231" class="st6" width="677.9" height="410"/>
</g>
<g id="XMLID_13_">
	<g id="XMLID_59_">
		<path class="st7" d="M675.6,389.2h-0.9c-5.8,0-10.5,4.7-10.5,10.5v185.6c0,5.8,4.7,10.5,10.5,10.5h0.9c5.8,0,10.5-4.7,10.5-10.5
			V399.7C686.1,393.9,681.3,389.2,675.6,389.2z"/>
	</g>
	<g id="XMLID_50_">
		<path class="st7" d="M763.3,330.7c-6,0-11,4.9-11,11v184.7c0,6,4.9,11,11,11s11-4.9,11-11V341.7
			C774.2,335.7,769.3,330.7,763.3,330.7z"/>
	</g>
	<g id="XMLID_49_">
		<path class="st7" d="M763.3,559.2c-6,0-11,4.9-11,11v41.3c0,6,4.9,11,11,11s11-4.9,11-11v-41.3
			C774.2,564.1,769.3,559.2,763.3,559.2z"/>
	</g>
	<g id="XMLID_48_">
		<path class="st7" d="M851.5,504.5c-6,0-11,4.9-11,11v73.9c0,6,4.9,11,11,11c6,0,11-4.9,11-11v-73.9
			C862.4,509.4,857.5,504.5,851.5,504.5z"/>
	</g>
	<g id="XMLID_34_">
		<path class="st7" d="M851.5,291.6c-6,0-11,4.9-11,11v164.1c0,6,4.9,11,11,11c6,0,11-4.9,11-11V302.6
			C862.4,296.5,857.5,291.6,851.5,291.6z"/>
	</g>
	<g id="XMLID_30_">
		<path class="st7" d="M940.5,412.1c-6,0-11,4.9-11,11v184.7c0,6,4.9,11,11,11s11-4.9,11-11V423.1
			C951.4,417.1,946.5,412.1,940.5,412.1z"/>
	</g>
	<g id="XMLID_21_">
		<path class="st7" d="M1029,330.4c-6,0-11,4.9-11,11V526c0,6,4.9,11,11,11c6,0,11-4.9,11-11V341.3
			C1039.9,335.3,1035,330.4,1029,330.4z"/>
	</g>
	<g id="XMLID_15_">
		<path class="st7" d="M1116.8,300.6c-6,0-11,4.9-11,11v296.2c0,6,4.9,11,11,11s11-4.9,11-11V311.6
			C1127.8,305.6,1122.8,300.6,1116.8,300.6z"/>
	</g>
	<g id="XMLID_7_">
		<path class="st7" d="M1205,384.6c-6,0-11,4.9-11,11v184.7c0,6,4.9,11,11,11s11-4.9,11-11V395.6
			C1215.9,389.6,1211,384.6,1205,384.6z"/>
	</g>
</g>
<g id="XMLID_10_">
	<path class="st6" d="M1279,641H601.1V264.5c0-18.5,15-33.5,33.5-33.5h610.9c18.5,0,33.5,15,33.5,33.5V641z"/>
</g>
<g id="XMLID_19_">
	<circle class="st8" cx="1086.7" cy="436" r="41.1"/>
</g>
<g id="XMLID_17_">
	<circle class="st8" cx="721.9" cy="545.7" r="55.6"/>
</g>
<g id="XMLID_46_">
	<path class="st8" d="M1245.9,231h-42.5c-10.1,0-18.3,8.2-18.3,18.3v34.8c0,13.8-10.4,25.7-24.2,26.8c-15.4,1.2-28.5-11-28.5-26.2
		v-35.3c0-10.1-8.2-18.3-18.3-18.3H821.4c-10.1,0-18.3,8.2-18.3,18.3v41.5c0,9.4-7.7,17.4-17.1,17.3c-9.2-0.1-16.6-7.7-16.6-16.8
		v-42c0-10.1-8.2-18.3-18.3-18.3l0,0c-10.1,0-18.3,8.2-18.3,18.3v0.6c0,9.4-7.7,17.4-17.1,17.3c-9.2-0.1-16.6-7.7-16.6-16.8v-1.1
		c0-10.1-8.2-18.3-18.3-18.3H635c-18.5,0-33.5,15-33.5,33.5v148.8c24.3-1.7,49.2,6.7,67.8,25.2l0,0c34,34,89.1,34,123.1,0l53.8-53.8
		c26.1-26.1,68.3-26.1,94.4,0l0,0c26.1,26.1,68.3,26.1,94.4,0l2.4-2.4c26.1-26.1,68.3-26.1,94.4,0l0,0c40.6,40.6,94.4,60,147.6,58.1
		V264.5C1279.4,246,1264.4,231,1245.9,231z"/>
</g>
<g id="XMLID_11_">
	<path class="st6" d="M1279.4,570V264.5c0-18.5-15-33.5-33.5-33.5h-42.5c-10.1,0-18.3,8.2-18.3,18.3v34.8
		c0,13.8-10.4,25.7-24.2,26.8c-15.4,1.2-28.5-11-28.5-26.2v-35.3c0-10.1-8.2-18.3-18.3-18.3H821.4c-10.1,0-18.3,8.2-18.3,18.3v41.5
		c0,9.4-7.7,17.4-17.1,17.3c-9.2-0.1-16.6-7.7-16.6-16.8v-42c0-10.1-8.2-18.3-18.3-18.3l0,0c-10.1,0-18.3,8.2-18.3,18.3v0.6
		c0,9.4-7.7,17.4-17.1,17.3c-9.2-0.1-16.6-7.7-16.6-16.8v-1.1c0-10.1-8.2-18.3-18.3-18.3H635c-18.5,0-33.5,15-33.5,33.5v281.2"/>
</g>
</svg>
